<?xml version="1.0" encoding="UTF-8" ?>
<!DOCTYPE svg PUBLIC "-//W3C//DTD SVG 1.1//EN" "http://www.w3.org/Graphics/SVG/1.1/DTD/svg11.dtd">
<svg width="384pt" height="150pt" viewBox="0 0 384 150" version="1.1" xmlns="http://www.w3.org/2000/svg">
<g id="#62524867">
<path fill="#625248" opacity="0.40" d=" M 359.94 16.05 C 362.45 16.29 367.46 16.75 369.96 16.99 L 368.98 17.02 C 366.02 17.01 363.13 17.01 360.20 17.01 L 359.94 16.05 Z" />
</g>
<g id="#fe9190fe">
<path fill="#fe9190" opacity="1.00" d=" M 360.20 17.01 C 363.13 17.01 366.02 17.01 368.98 17.02 C 368.99 22.60 368.87 28.19 369.10 33.77 C 372.29 32.49 374.97 34.65 375.69 37.34 C 379.24 43.41 372.39 42.79 369.24 43.27 C 368.71 44.48 368.28 45.74 367.90 47.00 C 367.10 50.92 363.44 47.34 361.28 46.74 C 350.95 45.15 340.34 46.39 329.90 45.94 C 332.78 42.09 335.42 38.06 338.11 34.07 C 343.33 33.47 349.41 34.99 354.25 33.21 C 356.89 28.21 359.51 22.73 360.20 17.01 Z" />
</g>
<g id="#a16c62a8">
<path fill="#a16c62" opacity="0.66" d=" M 368.98 17.02 L 369.96 16.99 C 369.98 22.27 370.01 27.55 370.06 32.84 C 378.28 29.38 380.83 47.52 371.13 44.17 C 369.40 44.11 369.71 47.05 367.90 47.00 C 368.28 45.74 368.71 44.48 369.24 43.27 C 372.39 42.79 379.24 43.41 375.69 37.34 C 374.97 34.65 372.29 32.49 369.10 33.77 C 368.87 28.19 368.99 22.60 368.98 17.02 Z" />
</g>
<g id="#fdc889fd">
<path fill="#fdc889" opacity="1.00" d=" M 115.29 20.28 C 116.86 19.26 118.20 20.83 119.38 21.65 C 133.14 22.66 147.01 21.41 160.76 22.21 C 168.41 29.12 177.61 33.93 185.64 40.37 C 188.87 42.10 185.87 46.52 184.16 48.13 C 178.70 54.84 174.81 62.95 168.44 68.86 C 167.61 67.21 166.72 65.38 164.64 66.59 C 160.90 66.64 157.36 67.51 153.92 68.87 C 147.99 71.15 141.39 70.00 135.94 67.07 C 135.53 67.11 134.72 67.19 134.31 67.23 C 128.76 74.75 120.42 81.01 118.66 90.74 C 114.76 95.70 107.31 94.89 101.79 94.99 L 102.18 94.24 C 111.93 80.11 122.28 66.41 131.81 52.13 C 122.55 44.44 112.57 37.36 102.00 31.68 C 105.80 27.27 111.04 24.25 115.29 20.28 M 140.61 58.33 L 139.96 57.85 C 139.31 65.89 150.40 62.50 154.94 62.96 C 154.98 62.52 155.06 61.64 155.09 61.20 C 156.91 60.78 156.18 57.05 154.82 56.02 C 155.59 52.96 147.04 57.17 146.99 54.98 C 143.38 52.68 141.03 55.59 140.61 58.33 Z" />
</g>
<g id="#feb18dfe">
<path fill="#feb18d" opacity="1.00" d=" M 204.73 22.13 C 205.83 19.62 207.92 18.91 210.99 20.00 C 219.23 20.26 227.54 19.46 235.75 20.23 C 240.27 23.80 245.02 27.03 249.74 30.33 C 250.63 31.83 249.32 33.37 248.60 34.64 C 245.00 39.69 241.33 44.69 237.80 49.79 C 237.32 50.08 236.35 50.64 235.87 50.92 C 233.37 52.43 231.01 54.70 228.02 55.02 C 224.68 55.01 221.38 55.03 218.05 54.96 C 215.50 53.52 212.73 52.71 209.78 52.73 C 211.80 51.90 214.30 51.71 214.89 48.89 C 217.87 44.63 221.09 40.54 223.87 36.14 C 217.92 30.91 211.28 26.56 204.73 22.13 Z" />
</g>
<g id="#ffa98eff">
<path fill="#ffa98e" opacity="1.00" d=" M 235.75 20.23 C 248.72 20.00 261.78 19.64 274.72 20.23 C 276.99 22.07 279.52 23.54 281.87 25.26 C 282.15 26.54 281.16 27.59 280.61 28.64 C 275.80 35.83 270.10 42.43 265.74 49.91 C 256.43 50.05 247.11 50.10 237.80 49.79 C 241.33 44.69 245.00 39.69 248.60 34.64 C 249.32 33.37 250.63 31.83 249.74 30.33 C 245.02 27.03 240.27 23.80 235.75 20.23 Z" />
</g>
<g id="#fea08ffe">
<path fill="#fea08f" opacity="1.00" d=" M 274.72 20.23 C 279.90 19.58 285.22 20.74 289.82 23.14 C 296.69 24.83 304.03 23.69 311.09 24.00 C 305.76 31.69 300.71 39.59 294.92 46.95 C 292.11 48.37 284.10 44.34 284.78 49.95 C 278.43 50.01 272.09 50.04 265.74 49.91 C 270.10 42.43 275.80 35.83 280.61 28.64 C 281.16 27.59 282.15 26.54 281.87 25.26 C 279.52 23.54 276.99 22.07 274.72 20.23 Z" />
</g>
<g id="#fdb88bfd">
<path fill="#fdb88b" opacity="1.00" d=" M 160.76 22.21 C 175.41 21.90 190.09 21.84 204.73 22.13 C 211.28 26.56 217.92 30.91 223.87 36.14 C 221.09 40.54 217.87 44.63 214.89 48.89 C 214.30 51.71 211.80 51.90 209.78 52.73 C 205.56 53.38 201.24 52.74 196.99 53.06 C 196.43 64.23 204.29 73.42 208.81 82.68 C 202.14 90.36 197.86 99.83 190.99 107.35 C 190.46 107.03 189.40 106.39 188.86 106.07 C 181.19 98.40 176.35 88.34 171.03 78.96 C 168.79 74.89 168.51 69.58 164.64 66.59 C 166.72 65.38 167.61 67.21 168.44 68.86 C 174.81 62.95 178.70 54.84 184.16 48.13 C 185.87 46.52 188.87 42.10 185.64 40.37 C 177.61 33.93 168.41 29.12 160.76 22.21 Z" />
</g>
<g id="#90665696">
<path fill="#906656" opacity="0.59" d=" M 289.82 23.14 C 300.20 22.91 310.59 22.94 320.99 23.06 C 320.97 23.51 320.94 24.41 320.93 24.86 C 317.68 24.20 314.39 23.92 311.09 24.00 C 304.03 23.69 296.69 24.83 289.82 23.14 Z" />
</g>
<g id="#ff9990ff">
<path fill="#ff9990" opacity="1.00" d=" M 311.09 24.00 C 314.39 23.92 317.68 24.20 320.93 24.86 C 323.04 28.34 325.81 33.25 330.16 33.95 C 332.80 34.03 335.45 34.07 338.11 34.07 C 335.42 38.06 332.78 42.09 329.90 45.94 C 326.69 46.56 322.78 44.93 319.92 46.89 C 318.43 48.04 316.84 49.47 315.06 47.95 C 308.50 46.26 301.63 47.20 294.92 46.95 C 300.71 39.59 305.76 31.69 311.09 24.00 Z" />
</g>
<g id="#755b4f7a">
<path fill="#755b4f" opacity="0.48" d=" M 320.93 24.86 C 324.06 27.39 326.94 30.25 329.63 33.25 L 330.16 33.95 C 325.81 33.25 323.04 28.34 320.93 24.86 Z" />
</g>
<g id="#fcd887fc">
<path fill="#fcd887" opacity="1.00" d=" M 91.00 35.96 C 94.48 34.31 98.51 33.55 102.00 31.68 C 112.57 37.36 122.55 44.44 131.81 52.13 C 122.28 66.41 111.93 80.11 102.18 94.24 C 95.10 94.17 93.11 83.69 96.97 78.98 C 101.00 72.51 103.78 65.33 108.00 58.99 C 107.71 56.38 104.43 56.75 102.66 57.56 C 89.13 62.84 75.37 67.47 61.77 72.56 C 49.55 78.53 36.30 82.92 23.06 85.95 C 20.59 85.98 17.90 86.30 16.00 88.05 C 13.86 89.86 10.66 90.00 8.05 90.02 C 8.04 88.27 8.02 84.75 8.01 83.00 C 8.01 79.88 8.30 76.71 7.37 73.70 C 7.30 73.28 7.14 72.43 7.07 72.00 C 6.96 68.88 7.28 65.70 6.36 62.67 C 6.28 62.22 6.11 61.31 6.03 60.85 C 6.46 58.45 6.28 56.17 5.50 54.00 C 5.38 53.52 5.13 52.54 5.01 52.06 C 4.99 48.72 4.98 45.39 5.02 42.05 C 4.91 40.26 7.71 40.56 8.93 40.06 C 11.44 39.73 13.88 39.02 16.28 38.22 C 19.52 38.09 22.76 38.03 26.00 37.99 C 32.40 38.72 38.64 36.80 45.00 36.99 C 49.40 36.74 53.99 37.60 58.30 36.37 C 58.97 36.28 60.31 36.09 60.98 35.99 C 65.33 35.98 69.67 35.98 74.02 36.00 C 77.10 36.09 79.95 37.49 82.95 38.04 C 85.68 37.93 88.77 37.65 91.00 35.96 Z" />
</g>
<g id="#37262339">
<path fill="#372623" opacity="0.22" d=" M 329.63 33.25 C 337.82 32.94 346.06 32.69 354.25 33.21 C 349.41 34.99 343.33 33.47 338.11 34.07 C 335.45 34.07 332.80 34.03 330.16 33.95 L 329.63 33.25 Z" />
</g>
<g id="#a28e5da4">
<path fill="#a28e5d" opacity="0.64" d=" M 61.01 35.01 C 65.33 35.00 69.65 34.83 73.97 35.04 L 74.02 36.00 C 69.67 35.98 65.33 35.98 60.98 35.99 L 61.01 35.01 Z" />
</g>
<g id="#a99663ac">
<path fill="#a99663" opacity="0.67" d=" M 45.00 36.01 C 49.42 36.09 53.91 35.59 58.30 36.37 C 53.99 37.60 49.40 36.74 45.00 36.99 L 45.00 36.01 Z" />
</g>
<g id="#ae9665b0">
<path fill="#ae9665" opacity="0.69" d=" M 82.95 38.04 C 84.48 35.86 88.40 36.12 91.00 35.96 C 88.77 37.65 85.68 37.93 82.95 38.04 Z" />
</g>
<g id="#aa9766ae">
<path fill="#aa9766" opacity="0.68" d=" M 15.96 37.16 C 18.47 37.37 23.49 37.78 26.00 37.99 C 22.76 38.03 19.52 38.09 16.28 38.22 L 15.96 37.16 Z" />
</g>
<g id="#ab9666ae">
<path fill="#ab9666" opacity="0.68" d=" M 8.93 40.06 C 10.26 37.56 13.84 37.91 16.28 38.22 C 13.88 39.02 11.44 39.73 8.93 40.06 Z" />
</g>
<g id="#a79263a9">
<path fill="#a79263" opacity="0.66" d=" M 4.01 51.98 C 4.26 49.50 4.76 44.53 5.02 42.05 C 4.98 45.39 4.99 48.72 5.01 52.06 L 4.01 51.98 Z" />
</g>
<g id="#93695c9b">
<path fill="#93695c" opacity="0.61" d=" M 319.92 46.89 C 322.78 44.93 326.69 46.56 329.90 45.94 C 340.34 46.39 350.95 45.15 361.28 46.74 C 347.83 47.21 334.37 47.03 320.91 46.93 L 319.92 46.89 Z" />
</g>
<g id="#946d5c9c">
<path fill="#946d5c" opacity="0.61" d=" M 284.78 49.95 C 284.10 44.34 292.11 48.37 294.92 46.95 C 301.63 47.20 308.50 46.26 315.06 47.95 L 314.07 47.96 C 304.80 48.17 295.52 47.72 286.28 48.14 C 286.13 48.59 285.83 49.50 285.67 49.96 L 284.78 49.95 Z" />
</g>
<g id="#6d584c73">
<path fill="#6d584c" opacity="0.45" d=" M 315.06 47.95 C 316.84 49.47 318.43 48.04 319.92 46.89 L 320.91 46.93 C 320.52 50.14 314.75 51.66 314.07 47.96 L 315.06 47.95 Z" />
</g>
<g id="#866d5c8b">
<path fill="#866d5c" opacity="0.55" d=" M 235.87 50.92 C 236.35 50.64 237.32 50.08 237.80 49.79 C 247.11 50.10 256.43 50.05 265.74 49.91 C 272.09 50.04 278.43 50.01 284.78 49.95 L 285.67 49.96 L 286.09 50.90 C 269.35 51.05 252.60 51.10 235.87 50.92 Z" />
</g>
<g id="#b7a26fbb">
<path fill="#b7a26f" opacity="0.73" d=" M 5.50 54.00 C 6.28 56.17 6.46 58.45 6.03 60.85 C 3.82 59.98 4.64 55.84 5.50 54.00 Z" />
</g>
<g id="#8577598a">
<path fill="#857759" opacity="0.54" d=" M 140.61 58.33 C 141.03 55.59 143.38 52.68 146.99 54.98 C 147.04 57.17 155.59 52.96 154.82 56.02 C 150.09 56.54 144.25 54.28 140.61 58.33 Z" />
</g>
<g id="#a7846bab">
<path fill="#a7846b" opacity="0.67" d=" M 218.05 54.96 C 221.38 55.03 224.68 55.01 228.02 55.02 L 227.98 56.00 C 225.50 55.74 220.54 55.22 218.05 54.96 Z" />
</g>
<g id="#8778598c">
<path fill="#877859" opacity="0.55" d=" M 139.96 57.85 L 140.61 58.33 C 142.76 64.49 150.16 61.72 155.09 61.20 C 155.06 61.64 154.98 62.52 154.94 62.96 C 150.40 62.50 139.31 65.89 139.96 57.85 Z" />
</g>
<g id="#bca871c0">
<path fill="#bca871" opacity="0.75" d=" M 6.36 62.67 C 7.28 65.70 6.96 68.88 7.07 72.00 C 3.73 71.89 6.69 65.14 6.36 62.67 Z" />
</g>
<g id="#bda972c1">
<path fill="#bda972" opacity="0.76" d=" M 7.37 73.70 C 8.30 76.71 8.01 79.88 8.01 83.00 C 4.74 82.87 7.68 76.15 7.37 73.70 Z" />
</g>
<g id="#fba88cfb">
<path fill="#fba88c" opacity="1.00" d=" M 190.99 107.35 C 197.86 99.83 202.14 90.36 208.81 82.68 C 215.98 89.33 222.72 96.64 230.91 102.17 C 225.48 109.77 220.68 117.79 215.64 125.66 C 215.04 127.51 212.73 127.18 211.27 126.72 C 207.89 124.56 204.13 122.59 202.00 119.06 C 200.95 117.45 199.60 116.07 198.18 114.79 C 195.77 112.31 193.33 109.88 190.99 107.35 Z" />
</g>
<g id="#a4905ea6">
<path fill="#a4905e" opacity="0.65" d=" M 16.00 88.05 C 17.90 86.30 20.59 85.98 23.06 85.95 C 21.83 87.99 18.27 87.75 16.00 88.05 Z" />
</g>
<g id="#b6896fb9">
<path fill="#b6896f" opacity="0.73" d=" M 188.86 106.07 C 189.40 106.39 190.46 107.03 190.99 107.35 C 193.33 109.88 195.77 112.31 198.18 114.79 L 197.16 114.81 C 194.09 113.02 190.13 109.77 188.86 106.07 Z" />
</g>
<g id="#9f7c67a3">
<path fill="#9f7c67" opacity="0.64" d=" M 197.16 114.81 L 198.18 114.79 C 199.60 116.07 200.95 117.45 202.00 119.06 C 199.78 118.96 197.67 116.83 197.16 114.81 Z" />
</g>
</svg>
