<?xml version="1.0" encoding="UTF-8" ?>
<!DOCTYPE svg PUBLIC "-//W3C//DTD SVG 1.1//EN" "http://www.w3.org/Graphics/SVG/1.1/DTD/svg11.dtd">
<svg width="315pt" height="133pt" viewBox="0 0 315 133" version="1.1" xmlns="http://www.w3.org/2000/svg">
<g id="#ff9191ff">
<path fill="#ff9191" opacity="1.00" d=" M 159.31 2.86 C 161.79 1.47 164.72 2.10 167.43 2.02 C 168.30 2.73 169.17 3.43 170.06 4.12 C 171.38 2.66 173.17 2.85 174.67 3.80 C 175.25 3.87 176.42 4.01 177.00 4.09 C 177.00 9.36 177.00 14.64 177.00 19.91 C 176.42 19.99 175.25 20.13 174.67 20.20 C 173.33 21.15 171.67 21.15 170.33 20.20 C 169.75 20.13 168.58 19.98 168.00 19.91 L 168.00 20.96 C 168.38 20.98 169.15 21.01 169.53 21.02 C 170.22 22.04 170.50 24.04 172.10 23.95 C 185.07 24.12 198.05 23.90 211.02 24.03 C 212.66 23.99 214.02 25.07 215.46 25.70 C 216.78 26.38 218.11 27.06 219.45 27.73 C 221.87 28.58 224.34 29.92 224.20 32.87 C 224.12 35.52 227.21 34.96 228.97 35.03 C 244.08 34.87 259.20 35.20 274.31 34.86 C 276.75 33.45 279.65 34.07 282.32 34.13 C 283.95 35.29 286.07 35.30 287.70 34.13 C 288.56 34.11 289.43 34.11 290.31 34.11 C 291.43 35.06 292.55 35.06 293.68 34.12 C 296.56 33.99 299.44 34.02 302.31 33.86 C 305.50 32.27 309.21 33.22 312.63 33.00 C 312.96 33.65 313.61 34.94 313.94 35.59 C 313.57 38.25 315.26 42.17 312.54 43.87 C 304.27 44.14 295.97 44.04 287.69 43.87 C 286.36 42.80 284.65 42.82 283.32 43.86 C 280.00 43.84 276.37 44.76 273.31 43.10 C 271.29 43.02 269.11 42.69 267.31 43.86 C 258.23 44.16 249.13 43.94 240.04 43.99 C 237.14 44.10 234.06 43.51 231.33 44.77 C 230.83 44.84 229.83 44.98 229.33 45.05 C 228.87 45.60 227.95 46.71 227.50 47.27 C 226.46 46.95 225.44 46.61 224.42 46.29 C 221.15 47.70 217.46 46.77 214.01 46.99 C 214.02 49.85 214.22 52.77 213.48 55.58 C 212.95 56.76 212.41 57.95 211.86 59.13 C 212.50 59.11 213.77 59.08 214.40 59.06 C 215.05 59.39 216.35 60.04 217.00 60.37 C 217.02 68.58 216.98 76.79 216.99 85.01 C 216.84 86.64 217.54 88.12 218.16 89.58 C 219.21 91.50 220.57 93.36 221.01 95.54 C 220.22 96.22 219.41 96.87 218.57 97.50 C 217.26 97.78 215.94 98.04 214.62 98.31 C 212.92 99.18 211.04 99.20 209.35 98.30 C 207.67 98.04 205.98 97.82 204.37 97.30 C 203.92 97.18 203.02 96.94 202.57 96.81 C 201.92 96.53 200.64 95.95 200.00 95.67 C 200.12 92.23 199.47 88.65 200.69 85.35 C 200.96 83.69 201.21 82.02 201.62 80.38 C 201.97 79.05 202.31 77.71 202.71 76.39 C 202.86 75.95 203.17 75.07 203.32 74.63 C 204.12 72.65 204.01 70.49 204.07 68.40 C 203.57 67.96 202.55 67.08 202.04 66.65 C 201.98 66.15 201.87 65.16 201.81 64.66 C 199.88 62.84 202.30 61.38 203.28 59.95 C 200.75 60.02 198.21 60.03 195.69 59.86 C 192.16 58.41 187.93 58.60 184.34 59.75 C 183.86 59.83 182.91 60.00 182.43 60.09 C 181.98 60.47 181.09 61.24 180.65 61.62 C 179.29 62.25 178.26 63.28 177.65 64.64 C 176.24 66.25 174.75 67.78 173.30 69.35 C 172.69 70.41 172.04 71.44 171.40 72.48 C 170.16 74.20 168.81 75.83 167.63 77.59 C 167.31 78.05 166.68 78.96 166.36 79.41 C 165.59 80.55 164.76 81.65 163.96 82.76 C 163.51 80.04 163.03 77.32 162.88 74.57 C 162.94 74.30 163.05 73.77 163.11 73.50 C 163.50 73.03 164.28 72.09 164.66 71.62 C 165.51 70.22 166.42 68.86 167.27 67.46 C 167.80 66.43 168.36 65.42 168.91 64.41 C 168.00 63.02 167.26 61.53 166.63 60.01 C 165.48 60.00 164.34 60.00 163.20 59.99 C 160.05 40.96 155.97 22.10 152.78 3.07 C 154.96 2.96 157.13 2.97 159.31 2.86 Z" />
</g>
<g id="#ffa18fff">
<path fill="#ffa18f" opacity="1.00" d=" M 151.67 3.32 C 151.95 3.26 152.51 3.14 152.78 3.07 C 155.97 22.10 160.05 40.96 163.20 59.99 C 160.04 60.26 156.56 59.30 153.61 60.60 C 152.23 62.96 153.78 66.04 152.39 68.39 C 151.53 69.51 150.34 68.60 149.39 68.29 C 145.91 50.76 142.85 33.14 139.38 15.61 C 138.58 12.15 138.11 8.63 137.79 5.10 C 139.63 5.08 141.48 4.98 143.32 4.83 C 145.94 3.56 148.97 4.29 151.67 3.32 Z" />
</g>
<g id="#ffaf8dff">
<path fill="#ffaf8d" opacity="1.00" d=" M 127.95 3.98 C 130.41 3.99 132.88 4.00 135.34 4.12 C 135.95 4.36 137.18 4.85 137.79 5.10 C 138.11 8.63 138.58 12.15 139.38 15.61 C 142.85 33.14 145.91 50.76 149.39 68.29 C 148.80 68.17 147.62 67.93 147.03 67.80 C 147.02 68.34 147.00 69.42 146.99 69.96 C 145.14 69.98 143.28 69.92 141.44 70.11 C 140.18 71.45 139.21 73.04 138.16 74.56 C 135.75 65.27 134.51 55.75 132.56 46.36 C 131.47 39.21 129.48 32.20 128.80 24.98 L 130.00 25.00 C 130.00 22.92 130.00 20.84 130.00 18.77 C 129.34 19.02 128.02 19.53 127.36 19.79 C 127.01 19.85 126.32 19.97 125.98 20.03 C 124.96 15.31 123.97 10.57 123.52 5.75 C 123.78 5.55 124.30 5.15 124.56 4.95 C 125.88 4.97 127.06 5.52 128.21 6.13 C 128.14 5.59 128.01 4.52 127.95 3.98 Z" />
</g>
<g id="#ffbd8bff">
<path fill="#ffbd8b" opacity="1.00" d=" M 122.58 6.38 L 123.52 5.75 C 123.97 10.57 124.96 15.31 125.98 20.03 C 125.40 19.99 124.25 19.91 123.68 19.87 C 121.88 18.68 119.70 19.04 117.68 19.06 C 115.59 21.45 113.93 18.53 113.53 16.60 C 112.86 14.32 112.95 11.93 113.04 9.59 C 113.37 8.94 114.04 7.65 114.37 7.00 C 117.10 6.91 119.97 7.41 122.58 6.38 Z" />
</g>
<g id="#ffc18bff">
<path fill="#ffc18b" opacity="1.00" d=" M 121.36 25.76 C 123.68 24.64 126.31 25.04 128.80 24.98 C 129.48 32.20 131.47 39.21 132.56 46.36 C 134.51 55.75 135.75 65.27 138.16 74.56 C 137.69 75.56 137.21 76.56 136.74 77.57 C 136.05 78.90 135.37 80.24 134.71 81.58 C 134.46 82.07 133.96 83.04 133.71 83.52 C 131.99 85.82 131.60 88.45 133.17 90.96 C 133.72 91.03 134.80 91.15 135.34 91.21 C 136.07 91.44 137.53 91.89 138.26 92.12 C 138.59 93.75 138.92 95.38 139.26 97.01 C 131.51 96.98 123.76 97.01 116.01 97.00 C 116.11 93.46 115.51 89.81 116.61 86.38 C 117.01 84.67 117.53 83.00 118.16 81.37 C 118.43 80.89 118.99 79.94 119.27 79.47 C 119.75 78.48 120.23 77.50 120.71 76.51 C 121.56 75.12 122.48 73.78 123.35 72.41 C 125.46 71.30 127.17 69.59 128.38 67.54 C 128.83 66.12 129.30 64.70 129.82 63.30 C 129.15 61.41 128.31 59.55 126.59 58.39 C 124.64 58.03 122.66 57.97 120.69 58.08 C 118.02 59.70 114.76 58.81 111.82 58.97 C 109.98 50.01 108.36 41.00 106.67 32.00 C 108.64 32.00 110.60 32.00 112.57 32.00 C 114.61 29.75 116.76 27.54 119.45 26.06 C 119.93 25.99 120.88 25.84 121.36 25.76 Z" />
</g>
<g id="#ffe287ff">
<path fill="#ffe287" opacity="1.00" d=" M 98.69 32.14 C 101.35 31.99 104.01 32.00 106.67 32.00 C 108.36 41.00 109.98 50.01 111.82 58.97 C 109.64 58.99 107.33 58.72 105.32 59.79 C 104.75 59.86 103.59 60.00 103.02 60.07 C 103.01 60.49 103.00 61.33 103.00 61.74 C 101.70 62.21 100.41 62.72 99.12 63.19 C 97.80 66.14 97.40 69.62 98.71 72.65 C 98.96 74.33 99.15 76.03 99.69 77.65 C 99.96 79.30 100.19 80.95 100.58 82.57 C 100.96 83.57 101.34 84.57 101.74 85.57 C 102.00 86.90 102.27 88.24 102.61 89.57 C 102.97 90.57 103.34 91.57 103.73 92.57 C 104.00 93.91 104.27 95.24 104.62 96.57 C 104.97 97.56 105.33 98.56 105.70 99.55 C 106.02 100.55 106.34 101.55 106.68 102.55 C 107.01 103.56 107.34 104.56 107.70 105.55 C 107.99 106.53 108.30 107.50 108.62 108.48 C 108.94 108.99 109.60 110.02 109.92 110.53 C 109.97 111.01 110.06 111.97 110.10 112.45 C 110.65 113.46 111.18 114.47 111.71 115.50 C 112.58 116.89 113.54 118.23 114.49 119.57 C 115.53 121.90 115.17 124.46 112.56 125.41 C 111.18 125.82 109.80 126.21 108.44 126.67 C 107.49 127.00 106.56 127.35 105.63 127.72 C 103.93 128.45 102.20 129.10 100.46 129.73 C 99.51 130.03 98.56 130.34 97.62 130.68 C 95.83 131.51 93.99 132.25 92.16 133.00 L 89.30 133.00 C 88.98 131.78 88.63 130.57 88.26 129.38 C 88.11 127.30 87.72 125.27 86.84 123.38 C 86.55 122.90 85.97 121.96 85.68 121.49 C 84.76 119.57 84.01 117.58 83.24 115.60 C 82.68 114.25 82.12 112.90 81.62 111.53 C 81.17 109.84 80.82 108.13 80.36 106.44 C 79.99 105.43 79.61 104.42 79.21 103.42 C 79.10 102.96 78.87 102.05 78.76 101.59 C 78.20 99.87 77.79 98.11 77.25 96.39 C 77.03 94.68 76.94 92.93 76.22 91.34 C 76.06 90.11 75.93 88.88 75.78 87.66 C 75.09 86.07 74.97 84.34 74.71 82.65 C 73.48 80.00 74.62 76.87 73.13 74.31 C 72.75 71.43 73.58 68.30 72.42 65.59 C 70.60 63.97 69.03 66.69 67.34 67.27 C 65.57 68.89 63.89 70.60 62.27 72.36 C 61.26 71.53 60.29 70.67 59.32 69.81 C 57.65 70.26 56.05 70.93 54.47 71.62 C 53.50 72.29 52.54 72.98 51.58 73.67 C 50.17 74.53 48.80 75.47 47.39 76.35 C 46.11 77.44 44.81 78.50 43.33 79.31 C 41.61 80.71 40.20 82.44 39.10 84.36 C 38.67 85.68 38.20 87.00 37.82 88.34 C 38.76 89.37 39.68 90.40 40.58 91.46 C 40.96 92.81 40.91 94.21 40.60 95.57 C 39.61 96.64 38.82 98.39 37.07 97.99 C 29.86 98.05 22.65 97.97 15.44 98.00 C 14.00 96.51 12.54 95.04 11.07 93.58 C 10.99 93.10 10.84 92.13 10.77 91.64 C 10.33 90.31 9.99 88.96 9.65 87.60 C 9.27 86.28 8.98 84.94 8.67 83.60 C 8.28 82.28 7.97 80.94 7.66 79.60 C 7.28 78.27 6.99 76.93 6.70 75.58 C 6.18 73.86 5.79 72.10 5.26 70.38 C 5.03 68.68 4.92 66.94 4.22 65.34 C 4.07 64.11 3.93 62.89 3.78 61.66 C 3.09 60.07 2.97 58.34 2.71 56.65 C 1.42 52.77 1.86 48.49 2.45 44.51 C 4.93 41.20 7.55 37.82 11.54 36.26 C 12.56 35.95 13.57 35.61 14.58 35.24 C 19.98 33.97 25.55 34.68 31.03 34.47 C 42.97 33.13 55.03 33.95 67.01 33.53 C 74.62 32.52 82.31 33.17 89.96 33.02 C 92.86 32.84 96.03 33.63 98.69 32.14 Z" />
</g>
<g id="#ffa38fff">
<path fill="#ffa38f" opacity="1.00" d=" M 159.66 79.66 C 160.69 77.94 161.81 76.27 162.88 74.57 C 163.03 77.32 163.51 80.04 163.96 82.76 C 163.96 82.94 163.97 83.29 163.97 83.47 C 162.86 85.19 161.71 86.89 160.69 88.67 C 158.75 90.80 156.77 92.88 154.59 94.76 C 154.28 94.86 153.66 95.06 153.34 95.16 C 152.85 93.37 152.35 91.58 151.84 89.80 C 153.13 88.41 154.43 87.04 155.72 85.65 C 156.55 84.20 157.47 82.79 158.31 81.35 C 158.65 80.93 159.33 80.08 159.66 79.66 Z" />
</g>
<g id="#ffb18dff">
<path fill="#ffb18d" opacity="1.00" d=" M 149.64 90.29 C 150.19 90.16 151.29 89.92 151.84 89.80 C 152.35 91.58 152.85 93.37 153.34 95.16 C 152.84 95.30 151.83 95.60 151.33 95.75 C 149.31 96.04 147.17 95.88 145.31 96.85 C 143.29 96.98 141.27 97.02 139.26 97.01 C 138.92 95.38 138.59 93.75 138.26 92.12 C 139.61 92.06 140.97 91.95 142.33 91.82 C 144.64 90.77 147.28 91.17 149.64 90.29 Z" />
</g>
</svg>
