<?xml version="1.0" encoding="UTF-8" ?>
<!DOCTYPE svg PUBLIC "-//W3C//DTD SVG 1.1//EN" "http://www.w3.org/Graphics/SVG/1.1/DTD/svg11.dtd">
<svg width="456pt" height="133pt" viewBox="0 0 456 133" version="1.1" xmlns="http://www.w3.org/2000/svg">
<g id="#ffba8bff">
<path fill="#ffba8b" opacity="1.00" d=" M 160.98 19.78 C 165.75 19.83 170.59 19.27 175.33 19.92 C 177.05 21.83 178.20 24.18 179.51 26.39 C 181.34 43.05 183.78 59.84 183.09 76.62 C 182.38 80.74 181.50 84.82 180.76 88.93 C 175.85 89.50 170.92 90.09 166.01 90.63 C 164.93 68.84 162.08 47.18 161.18 25.39 C 161.13 23.52 161.05 21.65 160.98 19.78 Z" />
</g>
<g id="#ffa48eff">
<path fill="#ffa48e" opacity="1.00" d=" M 216.74 23.67 C 222.42 23.34 228.10 23.24 233.79 23.09 C 233.95 29.76 233.98 36.43 234.07 43.09 C 229.01 43.05 223.93 43.04 218.88 42.96 C 218.18 36.52 217.55 30.09 216.74 23.67 Z" />
</g>
<g id="#ffaa8dff">
<path fill="#ffaa8d" opacity="1.00" d=" M 199.21 25.56 C 205.07 25.04 210.88 24.11 216.74 23.67 C 217.55 30.09 218.18 36.52 218.88 42.96 C 212.91 42.72 206.97 42.25 201.03 41.76 C 200.41 36.36 199.86 30.96 199.21 25.56 Z" />
</g>
<g id="#ffc28aff">
<path fill="#ffc28a" opacity="1.00" d=" M 143.86 26.63 C 149.64 26.30 155.40 25.81 161.18 25.39 C 162.08 47.18 164.93 68.84 166.01 90.63 C 160.37 91.09 154.73 91.60 149.11 92.25 C 147.58 70.35 145.43 48.51 143.86 26.63 Z" />
</g>
<g id="#ffb38cff">
<path fill="#ffb38c" opacity="1.00" d=" M 179.51 26.39 C 186.07 26.14 192.64 25.94 199.21 25.56 C 199.86 30.96 200.41 36.36 201.03 41.76 C 197.05 41.45 193.03 41.76 189.07 42.02 C 189.53 42.15 190.45 42.40 190.91 42.53 C 192.19 42.85 194.75 43.49 196.04 43.81 C 196.75 53.49 197.45 63.17 198.05 72.86 C 193.07 74.13 188.09 75.43 183.09 76.62 C 183.78 59.84 181.34 43.05 179.51 26.39 Z" />
</g>
<g id="#ffcf89ff">
<path fill="#ffcf89" opacity="1.00" d=" M 108.04 27.78 C 114.21 27.33 120.38 27.13 126.56 26.97 C 126.49 32.16 126.63 37.34 127.04 42.51 C 120.70 42.99 114.34 43.01 107.99 43.25 C 108.00 39.38 108.03 31.65 108.04 27.78 Z" />
<path fill="#ffcf89" opacity="1.00" d=" M 116.66 47.58 C 119.83 45.79 123.58 45.55 127.09 44.79 C 128.19 54.49 128.99 64.21 129.86 73.92 C 125.43 73.47 121.28 74.87 119.16 79.03 C 122.76 79.90 126.37 80.69 129.99 81.49 C 130.38 83.44 130.78 85.39 131.17 87.35 C 125.74 87.08 120.42 85.97 115.15 84.70 C 114.94 86.10 114.52 88.89 114.32 90.29 C 113.77 78.98 112.26 67.71 112.50 56.37 C 113.64 53.34 114.97 50.35 116.66 47.58 Z" />
</g>
<g id="#ffc889ff">
<path fill="#ffc889" opacity="1.00" d=" M 126.56 26.97 C 132.32 26.87 138.09 26.82 143.86 26.63 C 145.43 48.51 147.58 70.35 149.11 92.25 C 147.44 92.44 145.76 92.65 144.09 92.86 C 144.04 88.91 143.99 84.97 143.94 81.02 C 139.72 83.21 135.65 85.73 131.17 87.35 C 130.78 85.39 130.38 83.44 129.99 81.49 C 131.99 80.71 134.00 79.92 136.00 79.13 C 136.00 77.60 136.01 76.06 136.01 74.53 C 133.96 74.30 131.92 74.06 129.86 73.92 C 128.99 64.21 128.19 54.49 127.09 44.79 C 132.35 43.97 137.68 43.95 142.99 43.59 C 142.98 42.96 142.95 41.69 142.94 41.06 C 137.65 41.56 132.34 42.05 127.04 42.51 C 126.63 37.34 126.49 32.16 126.56 26.97 Z" />
</g>
<g id="#ffad8dff">
<path fill="#ffad8d" opacity="1.00" d=" M 196.04 43.81 C 200.99 44.20 205.96 44.02 210.93 44.11 C 211.57 53.07 212.29 62.02 213.06 70.97 C 208.00 71.06 202.94 71.51 198.05 72.86 C 197.45 63.17 196.75 53.49 196.04 43.81 Z" />
</g>
<g id="#ffa68eff">
<path fill="#ffa68e" opacity="1.00" d=" M 210.93 44.11 C 216.98 44.10 223.03 44.04 229.09 44.01 C 230.19 55.97 231.34 67.92 232.15 79.90 C 232.24 81.94 232.42 86.01 232.51 88.05 C 229.88 86.30 225.63 86.25 223.77 83.29 C 221.55 79.54 221.40 75.06 221.09 70.83 C 218.39 70.86 215.75 70.88 213.06 70.97 C 212.29 62.02 211.57 53.07 210.93 44.11 Z" />
</g>
<g id="#ff9f8fff">
<path fill="#ff9f8f" opacity="1.00" d=" M 229.09 44.01 C 236.01 43.97 242.93 44.01 249.86 44.00 C 250.29 56.04 251.47 68.04 252.81 80.00 C 245.92 79.98 239.04 79.98 232.15 79.90 C 231.34 67.92 230.19 55.97 229.09 44.01 Z" />
</g>
<g id="#ff988fff">
<path fill="#ff988f" opacity="1.00" d=" M 249.86 44.00 C 258.55 44.00 267.23 44.00 275.93 44.01 C 276.94 56.01 277.92 68.01 279.03 79.99 C 270.29 80.00 261.55 80.01 252.81 80.00 C 251.47 68.04 250.29 56.04 249.86 44.00 Z" />
</g>
<g id="#ff9190ff">
<path fill="#ff9190" opacity="1.00" d=" M 275.93 44.01 C 315.62 43.98 355.31 44.02 395.00 43.99 C 415.33 44.00 435.71 43.46 456.00 45.09 L 456.00 55.67 C 435.43 58.12 414.66 56.73 394.00 57.01 C 357.16 57.32 320.29 56.23 283.47 57.70 C 287.54 58.26 291.63 58.80 295.72 59.31 C 296.56 66.18 297.65 73.02 298.46 79.89 C 291.98 79.93 285.51 79.98 279.03 79.99 C 277.92 68.01 276.94 56.01 275.93 44.01 Z" />
</g>
<g id="#fee186fe">
<path fill="#fee186" opacity="1.00" d=" M 8.01 53.32 C 25.21 51.26 42.64 49.91 59.93 51.47 C 63.75 51.81 67.07 53.72 70.45 55.31 C 71.31 70.83 72.59 86.33 74.22 101.79 C 69.84 98.28 66.19 93.68 61.20 91.01 C 54.35 89.85 47.33 90.03 40.39 89.72 C 39.47 94.13 38.52 98.53 37.42 102.90 C 24.97 100.75 12.13 101.77 0.00 105.20 L 0.00 55.65 C 2.56 54.54 5.23 53.65 8.01 53.32 Z" />
</g>
<g id="#ffdb87ff">
<path fill="#ffdb87" opacity="1.00" d=" M 70.45 55.31 C 77.97 55.68 85.49 55.89 93.01 56.03 C 93.42 61.72 93.80 67.41 94.18 73.10 C 87.01 73.77 79.73 79.15 79.62 86.88 C 82.47 93.96 89.80 93.51 96.01 93.69 C 96.37 97.73 96.77 101.75 97.16 105.79 C 89.43 105.00 81.74 103.73 74.22 101.79 C 72.59 86.33 71.31 70.83 70.45 55.31 Z" />
</g>
<g id="#ffd588ff">
<path fill="#ffd588" opacity="1.00" d=" M 93.01 56.03 C 99.51 56.13 106.00 56.23 112.50 56.37 C 112.26 67.71 113.77 78.98 114.32 90.29 C 113.40 94.79 112.92 99.61 110.64 103.66 C 107.81 108.07 101.31 104.78 97.16 105.79 C 96.77 101.75 96.37 97.73 96.01 93.69 C 99.53 89.59 105.01 85.65 103.65 79.39 C 102.49 75.25 97.79 74.11 94.18 73.10 C 93.80 67.41 93.42 61.72 93.01 56.03 Z" />
</g>
</svg>
