<?xml version="1.0" encoding="UTF-8" ?>
<!DOCTYPE svg PUBLIC "-//W3C//DTD SVG 1.1//EN" "http://www.w3.org/Graphics/SVG/1.1/DTD/svg11.dtd">
<svg width="376pt" height="133pt" viewBox="0 0 376 133" version="1.1" xmlns="http://www.w3.org/2000/svg">
<g id="#ff9190ff">
<path fill="#ff9190" opacity="1.00" d=" M 330.39 10.03 C 337.21 8.90 344.06 8.04 350.96 7.52 C 350.99 17.30 351.02 27.09 351.04 36.87 C 358.28 37.01 365.52 37.16 372.77 37.35 C 372.85 43.21 372.97 49.08 373.09 54.95 C 367.21 54.97 361.33 55.05 355.47 55.09 C 357.10 66.43 356.90 77.92 357.16 89.34 C 334.80 84.66 311.85 86.08 289.17 85.97 C 285.53 65.33 281.29 44.79 277.77 24.12 C 294.74 24.21 311.72 23.97 328.70 23.69 C 329.29 19.14 329.81 14.59 330.39 10.03 Z" />
</g>
<g id="#fea68dfe">
<path fill="#fea68d" opacity="1.00" d=" M 222.89 9.17 C 226.24 10.31 229.60 11.59 232.47 13.69 C 235.61 37.94 241.31 61.77 245.22 85.89 C 241.88 85.92 238.52 86.03 235.20 86.23 C 231.42 63.07 226.20 40.17 222.58 16.99 C 222.60 14.38 222.71 11.77 222.89 9.17 Z" />
</g>
<g id="#fea18ffe">
<path fill="#fea18f" opacity="1.00" d=" M 245.22 85.89 C 241.31 61.77 235.61 37.94 232.47 13.69 C 235.40 16.13 239.08 17.00 242.91 16.51 C 248.06 39.51 251.89 62.79 256.24 85.95 C 252.57 85.93 248.88 85.90 245.22 85.89 Z" />
</g>
<g id="#ff9c8fff">
<path fill="#ff9c8f" opacity="1.00" d=" M 242.91 16.51 C 245.13 15.93 247.32 15.20 249.52 14.51 C 251.67 17.86 254.88 19.90 258.71 20.88 C 263.01 42.55 266.66 64.34 271.09 85.99 C 266.14 85.99 261.18 85.97 256.24 85.95 C 251.89 62.79 248.06 39.51 242.91 16.51 Z" />
</g>
<g id="#ffac8dff">
<path fill="#ffac8d" opacity="1.00" d=" M 211.84 22.74 C 215.44 20.86 219.02 18.95 222.58 16.99 C 226.20 40.17 231.42 63.07 235.20 86.23 C 231.47 86.99 227.83 88.17 224.16 89.15 C 220.01 67.02 215.77 44.91 211.84 22.74 Z" />
</g>
<g id="#ff9690ff">
<path fill="#ff9690" opacity="1.00" d=" M 258.71 20.88 C 264.62 23.81 271.29 23.97 277.77 24.12 C 281.29 44.79 285.53 65.33 289.17 85.97 C 283.14 85.99 277.11 85.98 271.09 85.99 C 266.66 64.34 263.01 42.55 258.71 20.88 Z" />
</g>
<g id="#fed188fe">
<path fill="#fed188" opacity="1.00" d=" M 146.30 24.18 C 148.54 22.72 151.28 22.50 153.84 21.89 C 158.24 45.02 162.33 68.21 167.07 91.27 C 165.35 103.15 163.72 115.05 163.06 127.05 C 161.41 127.05 159.76 127.08 158.11 127.09 C 152.11 94.97 146.45 62.78 139.84 30.77 C 142.08 28.66 144.12 26.35 146.30 24.18 Z" />
</g>
<g id="#ffc98aff">
<path fill="#ffc98a" opacity="1.00" d=" M 153.84 21.89 C 158.53 21.73 163.22 21.92 167.91 21.93 C 170.68 36.37 173.15 50.88 176.37 65.24 C 176.03 70.40 175.49 75.55 175.07 80.71 C 179.71 80.86 184.36 81.12 189.01 81.13 C 189.01 81.94 189.01 83.55 189.00 84.36 C 182.42 83.28 175.70 82.87 169.24 81.12 C 168.42 84.48 167.71 87.87 167.07 91.27 C 162.33 68.21 158.24 45.02 153.84 21.89 Z" />
</g>
<g id="#ffc38aff">
<path fill="#ffc38a" opacity="1.00" d=" M 167.91 21.93 C 171.86 21.96 175.82 21.98 179.78 22.00 C 182.03 36.74 184.89 51.38 187.84 65.99 C 187.07 66.00 185.53 66.02 184.77 66.04 C 185.92 70.73 187.12 75.43 187.89 80.21 C 182.03 77.03 178.86 71.16 176.37 65.24 C 173.15 50.88 170.68 36.37 167.91 21.93 Z" />
</g>
<g id="#febe8bfe">
<path fill="#febe8b" opacity="1.00" d=" M 179.78 22.00 C 182.83 22.00 185.85 21.98 188.91 21.99 C 191.74 36.64 194.06 51.40 197.33 65.96 C 194.15 65.92 191.00 65.96 187.84 65.99 C 184.89 51.38 182.03 36.74 179.78 22.00 Z" />
</g>
<g id="#ffb88bff">
<path fill="#ffb88b" opacity="1.00" d=" M 188.91 21.99 C 192.62 21.99 196.32 22.04 200.04 22.14 C 204.43 43.46 207.95 64.96 212.15 86.32 C 204.54 89.62 196.62 85.30 189.00 84.36 C 189.01 83.55 189.01 81.94 189.01 81.13 C 193.30 80.78 197.74 81.13 201.95 80.07 C 202.80 75.48 202.97 70.79 203.41 66.15 C 201.89 66.11 198.85 66.01 197.33 65.96 C 194.06 51.40 191.74 36.64 188.91 21.99 Z" />
</g>
<g id="#ffb28cff">
<path fill="#ffb28c" opacity="1.00" d=" M 200.04 22.14 C 203.97 22.29 207.90 22.52 211.84 22.74 C 215.77 44.91 220.01 67.02 224.16 89.15 C 223.17 88.69 222.19 88.23 221.20 87.77 C 220.99 84.72 220.71 81.65 220.52 78.62 C 219.73 84.16 218.86 89.69 217.77 95.19 C 214.95 92.89 213.09 89.80 212.15 86.32 C 207.95 64.96 204.43 43.46 200.04 22.14 Z" />
</g>
<g id="#edc77def">
<path fill="#edc77d" opacity="0.94" d=" M 121.09 42.27 C 129.91 36.83 137.86 30.15 146.30 24.18 C 144.12 26.35 142.08 28.66 139.84 30.77 C 134.32 35.69 127.94 39.50 121.09 42.27 Z" />
</g>
<g id="#ffd888ff">
<path fill="#ffd888" opacity="1.00" d=" M 121.09 42.27 C 127.94 39.50 134.32 35.69 139.84 30.77 C 146.45 62.78 152.11 94.97 158.11 127.09 C 152.96 127.07 147.78 126.89 142.69 126.15 C 138.79 125.12 137.00 120.73 137.03 117.02 C 137.03 101.96 140.12 87.11 140.27 72.06 C 135.81 72.04 131.34 72.03 126.88 72.01 C 124.90 62.11 123.11 52.17 121.09 42.27 Z" />
</g>
<g id="#fee186fe">
<path fill="#fee186" opacity="1.00" d=" M 0.00 40.35 C 20.67 44.61 42.06 40.83 62.96 41.08 C 82.31 42.34 101.71 41.95 121.09 42.27 C 123.11 52.17 124.90 62.11 126.88 72.01 C 106.59 72.28 85.96 70.38 65.99 74.82 C 65.51 77.70 65.03 80.57 64.58 83.46 C 56.18 84.24 47.67 85.28 39.93 88.85 C 28.85 93.66 17.27 97.18 5.62 100.31 C 4.73 93.53 3.79 86.48 0.00 80.62 L 0.00 65.38 C 0.39 63.63 0.86 61.89 1.06 60.10 C 1.39 55.66 1.60 51.22 1.73 46.78 C 1.74 45.91 1.76 44.18 1.77 43.32 C 1.16 44.51 0.57 45.71 0.00 46.92 L 0.00 40.35 M 14.00 60.01 C 13.99 67.73 14.00 75.45 13.99 83.17 C 22.48 82.70 31.27 83.34 39.39 80.39 C 40.67 82.21 44.80 81.36 44.43 78.94 C 46.89 78.40 49.28 77.64 51.69 76.94 C 54.99 76.51 58.25 75.75 61.32 74.48 C 63.08 74.13 64.69 73.30 66.22 72.40 C 77.64 70.62 88.96 68.29 100.23 65.76 C 98.67 64.31 97.09 62.89 95.56 61.42 C 97.51 61.11 101.41 60.50 103.36 60.19 C 73.58 59.72 43.79 60.12 14.00 60.01 M 11.17 84.17 C 10.65 85.80 11.20 86.35 12.83 85.83 C 13.35 84.20 12.80 83.65 11.17 84.17 Z" />
</g>
<g id="#c8b26cc9">
<path fill="#c8b26c" opacity="0.79" d=" M 1.06 60.10 C 1.43 55.67 1.51 51.22 1.73 46.78 C 1.60 51.22 1.39 55.66 1.06 60.10 Z" />
</g>
<g id="#e9ce7ce9">
<path fill="#e9ce7c" opacity="0.91" d=" M 51.69 76.94 C 54.87 75.98 58.09 75.23 61.32 74.48 C 58.25 75.75 54.99 76.51 51.69 76.94 Z" />
</g>
<g id="#d9c073d9">
<path fill="#d9c073" opacity="0.85" d=" M 39.39 80.39 C 41.04 79.79 42.71 79.27 44.43 78.94 C 44.80 81.36 40.67 82.21 39.39 80.39 Z" />
</g>
</svg>
