<?xml version="1.0" encoding="UTF-8" ?>
<!DOCTYPE svg PUBLIC "-//W3C//DTD SVG 1.1//EN" "http://www.w3.org/Graphics/SVG/1.1/DTD/svg11.dtd">
<svg width="200pt" height="133pt" viewBox="0 0 200 133" version="1.1" xmlns="http://www.w3.org/2000/svg">
<g id="#ffcf89ff">
<path fill="#ffcf89" opacity="1.00" d=" M 31.03 5.00 C 32.56 5.00 34.10 5.00 35.63 5.00 C 36.06 5.50 36.93 6.51 37.37 7.01 C 38.60 7.00 39.83 7.00 41.06 7.00 C 44.69 15.55 49.09 23.74 52.70 32.30 C 56.94 40.67 60.14 49.56 64.97 57.62 C 66.54 59.30 68.29 60.85 70.44 61.75 C 71.17 62.14 71.89 62.54 72.61 62.95 C 73.08 63.96 73.54 64.97 73.99 66.00 C 73.67 65.93 73.03 65.78 72.71 65.71 C 71.36 65.30 69.97 65.02 68.58 64.79 C 67.21 64.28 65.82 63.81 64.64 62.94 C 63.19 64.34 61.19 64.86 59.27 65.19 C 59.01 65.74 58.49 66.84 58.23 67.39 C 57.21 69.73 56.59 72.26 55.20 74.43 C 54.28 76.56 53.66 78.81 52.68 80.92 L 52.05 81.17 C 41.40 59.05 31.39 36.64 20.90 14.45 C 20.93 13.96 21.01 12.97 21.04 12.48 C 22.32 10.76 24.02 9.42 25.98 8.57 C 25.99 8.18 26.02 7.39 26.03 7.00 C 27.68 7.00 29.32 7.00 30.97 7.00 C 30.99 6.50 31.02 5.50 31.03 5.00 Z" />
</g>
<g id="#ff9191ff">
<path fill="#ff9191" opacity="1.00" d=" M 150.03 4.98 C 151.51 5.00 152.99 5.02 154.47 5.03 C 156.69 5.89 158.38 7.44 158.24 10.00 C 158.84 10.00 160.03 10.00 160.62 10.00 C 161.54 11.00 162.46 12.00 163.38 13.00 C 175.24 12.99 187.10 13.01 198.96 13.00 C 199.18 17.00 199.20 21.00 198.97 25.00 C 187.98 24.97 176.99 25.05 166.00 24.96 C 164.10 25.01 162.05 24.75 160.36 25.82 C 159.77 25.89 158.60 26.01 158.01 26.07 C 157.96 28.55 158.31 31.12 157.53 33.52 C 155.77 34.15 153.87 34.00 152.04 34.04 C 145.02 33.96 138.00 34.02 130.99 34.00 L 131.00 34.96 C 133.22 35.03 135.60 34.65 137.63 35.79 C 138.12 35.87 139.09 36.01 139.58 36.08 C 140.79 37.51 142.25 38.71 143.99 39.44 C 143.99 39.83 144.01 40.61 144.02 41.00 C 140.10 40.99 136.18 41.02 132.26 41.00 C 129.96 35.59 126.97 30.52 124.87 25.03 C 122.06 19.08 118.90 13.28 116.81 7.00 C 127.87 6.99 138.92 7.00 149.97 7.00 C 149.98 6.50 150.01 5.49 150.03 4.98 Z" />
</g>
<g id="#ffbe8bff">
<path fill="#ffbe8b" opacity="1.00" d=" M 41.06 7.00 C 48.95 7.00 56.85 7.00 64.74 7.01 C 70.72 20.29 77.09 33.39 82.98 46.70 C 83.02 48.29 83.03 49.88 83.06 51.47 C 83.64 52.44 84.19 53.42 84.72 54.42 C 85.40 57.11 88.40 57.60 90.57 58.62 C 89.85 59.16 89.13 59.70 88.42 60.24 C 87.68 60.16 86.20 59.99 85.46 59.91 C 82.66 58.55 80.41 56.35 79.11 53.52 C 78.99 51.76 79.15 49.90 78.15 48.35 C 78.06 47.07 78.00 45.78 77.93 44.50 C 77.17 43.60 76.43 42.69 75.70 41.77 C 75.04 43.01 73.51 42.90 72.35 43.17 C 70.24 45.24 68.19 47.36 66.05 49.39 C 65.99 49.89 65.88 50.88 65.82 51.38 C 64.64 53.26 65.05 55.53 64.97 57.62 C 60.14 49.56 56.94 40.67 52.70 32.30 C 49.09 23.74 44.69 15.55 41.06 7.00 Z" />
</g>
<g id="#ffae8dff">
<path fill="#ffae8d" opacity="1.00" d=" M 64.74 7.01 C 71.42 6.99 78.10 7.00 84.78 7.01 C 90.73 20.12 96.70 33.22 102.94 46.20 C 101.82 45.87 100.77 45.37 99.80 44.72 C 99.85 45.45 99.97 46.91 100.03 47.64 C 100.52 48.07 101.50 48.94 102.00 49.37 C 101.94 52.73 102.24 56.11 101.83 59.44 C 101.85 61.17 99.63 60.75 98.56 61.30 C 97.57 61.63 96.56 61.95 95.56 62.26 C 94.97 62.52 93.78 63.02 93.19 63.28 C 92.71 62.06 92.22 60.86 91.70 59.66 C 93.56 58.06 95.21 56.25 97.00 54.58 C 97.01 51.88 96.99 49.19 96.98 46.50 C 95.82 44.08 93.95 42.16 91.51 41.05 C 90.53 41.00 89.56 40.95 88.59 40.90 C 87.95 40.59 86.66 39.97 86.02 39.66 C 86.02 40.41 86.01 41.90 86.00 42.65 C 85.50 43.08 84.50 43.94 84.00 44.37 C 84.00 45.09 83.99 46.54 83.98 47.27 L 82.98 46.70 C 77.09 33.39 70.72 20.29 64.74 7.01 Z" />
</g>
<g id="#ff9f8fff">
<path fill="#ff9f8f" opacity="1.00" d=" M 84.78 7.01 C 95.46 6.99 106.14 7.01 116.81 7.00 C 118.90 13.28 122.06 19.08 124.87 25.03 C 126.97 30.52 129.96 35.59 132.26 41.00 C 131.38 40.96 129.62 40.88 128.74 40.84 C 129.68 42.29 130.21 43.93 130.71 45.57 C 131.03 46.59 131.37 47.60 131.73 48.61 C 131.99 49.94 132.25 51.28 132.63 52.59 C 132.99 53.60 133.37 54.60 133.75 55.60 C 133.99 56.94 134.25 58.28 134.63 59.59 C 135.00 60.60 135.37 61.60 135.74 62.60 C 135.99 63.94 136.25 65.28 136.61 66.60 C 137.00 67.60 137.40 68.60 137.81 69.59 C 137.91 70.05 138.12 70.95 138.22 71.41 C 138.78 73.12 139.22 74.88 139.77 76.60 C 139.89 77.05 140.13 77.94 140.24 78.39 C 140.80 80.10 141.19 81.86 141.66 83.59 C 142.02 84.60 142.40 85.60 142.80 86.59 C 142.91 87.05 143.12 87.95 143.22 88.40 C 143.78 90.12 144.21 91.88 144.77 93.60 C 144.89 94.05 145.12 94.95 145.23 95.40 C 145.78 97.12 146.21 98.88 146.76 100.61 C 146.88 101.05 147.12 101.95 147.24 102.40 C 147.80 104.10 148.19 105.85 148.66 107.59 C 149.02 108.59 149.40 109.60 149.80 110.59 C 149.91 111.04 150.12 111.94 150.23 112.39 C 150.79 114.12 151.22 115.88 151.77 117.61 C 151.88 118.05 152.11 118.94 152.23 119.38 C 154.04 121.89 152.88 125.37 149.59 125.37 C 146.93 126.39 144.04 125.96 141.26 126.00 C 135.33 111.78 128.18 98.13 122.04 84.01 C 118.94 78.52 117.07 72.47 114.02 66.97 C 110.78 60.95 108.96 54.18 104.88 48.62 C 104.25 47.80 103.58 47.01 102.94 46.20 C 96.70 33.22 90.73 20.12 84.78 7.01 Z" />
</g>
<g id="#ffe087ff">
<path fill="#ffe087" opacity="1.00" d=" M 10.89 13.93 C 11.76 11.06 15.20 12.23 17.41 12.02 C 18.49 12.95 19.62 13.81 20.90 14.45 C 31.39 36.64 41.40 59.05 52.05 81.17 C 51.98 81.45 51.85 82.01 51.79 82.29 C 51.44 83.36 51.08 84.43 50.73 85.50 C 49.50 87.76 48.76 90.24 47.76 92.60 C 47.06 94.24 46.47 95.92 45.80 97.57 C 44.36 99.61 42.99 102.39 44.87 104.65 C 44.94 105.74 44.99 106.83 45.04 107.92 C 46.87 108.04 48.77 107.83 50.53 108.48 C 51.83 110.22 49.95 111.82 48.62 112.71 C 47.50 113.35 46.46 114.10 45.44 114.88 C 44.51 114.97 43.58 115.07 42.65 115.18 C 41.11 116.04 39.33 116.02 37.64 116.23 C 36.21 117.05 34.55 117.04 32.95 117.04 C 23.96 116.96 14.98 117.01 5.99 117.00 C 6.01 116.34 6.04 115.00 6.06 114.33 C 4.85 113.25 3.58 112.20 2.05 111.61 C 2.00 111.11 1.89 110.12 1.83 109.62 C 1.18 107.79 0.69 105.92 0.00 104.10 L 0.00 103.14 L 0.75 103.22 C 0.99 101.93 1.28 100.66 1.62 99.40 C 2.01 98.40 2.41 97.40 2.83 96.41 C 2.91 95.95 3.07 95.04 3.16 94.58 C 3.71 93.27 4.20 91.93 4.75 90.61 C 5.48 88.91 6.13 87.18 6.71 85.43 C 7.01 84.47 7.34 83.53 7.71 82.60 C 8.34 81.27 8.92 79.93 9.33 78.53 C 9.66 77.54 9.97 76.55 10.28 75.56 C 11.02 73.51 11.70 71.43 12.74 69.50 C 13.04 68.47 13.34 67.44 13.65 66.41 C 14.02 65.42 14.40 64.44 14.81 63.46 C 14.89 62.95 15.05 61.94 15.12 61.43 C 16.37 60.28 17.53 59.01 18.27 57.47 C 18.90 55.94 19.86 54.60 21.03 53.45 C 21.01 51.75 21.10 50.00 20.40 48.40 C 20.06 47.41 19.72 46.41 19.38 45.41 C 19.10 42.17 15.66 41.28 13.35 39.72 C 12.56 39.01 11.77 38.31 10.98 37.61 C 10.99 36.53 10.99 35.46 10.99 34.39 C 11.78 33.68 12.57 32.98 13.37 32.28 C 15.59 31.38 17.28 29.61 18.32 27.48 C 18.87 26.44 19.41 25.39 19.92 24.34 C 19.95 22.86 18.42 22.00 17.64 20.94 C 16.22 20.98 14.80 21.01 13.38 21.05 C 11.74 19.17 8.81 16.55 10.89 13.93 Z" />
</g>
<g id="#ffaa8eff">
<path fill="#ffaa8e" opacity="1.00" d=" M 104.88 48.62 C 108.96 54.18 110.78 60.95 114.02 66.97 C 117.07 72.47 118.94 78.52 122.04 84.01 C 128.18 98.13 135.33 111.78 141.26 126.00 L 140.03 125.98 C 140.02 126.48 139.98 127.50 139.97 128.00 C 135.66 128.00 131.36 128.00 127.06 128.00 C 127.01 127.40 126.91 126.21 126.86 125.61 C 126.43 124.61 126.03 123.61 125.65 122.59 C 125.19 120.86 124.81 119.10 124.24 117.40 C 124.12 116.95 123.88 116.06 123.77 115.61 C 123.21 113.88 122.79 112.12 122.23 110.40 C 122.11 109.95 121.88 109.06 121.77 108.61 C 121.21 106.88 120.79 105.12 120.23 103.40 C 120.12 102.95 119.89 102.05 119.77 101.61 C 119.21 99.88 118.79 98.12 118.23 96.40 C 118.11 95.95 117.88 95.06 117.77 94.61 C 117.21 92.88 116.79 91.12 116.23 89.40 C 116.12 88.95 115.89 88.05 115.77 87.60 C 115.21 85.88 114.78 84.12 114.23 82.40 C 114.11 81.95 113.88 81.05 113.77 80.60 C 113.21 78.88 112.78 77.12 112.23 75.40 C 112.11 74.95 111.88 74.05 111.77 73.60 C 111.21 71.88 110.79 70.11 110.23 68.39 C 110.12 67.95 109.89 67.05 109.77 66.60 C 109.21 64.88 108.79 63.12 108.23 61.39 C 108.12 60.94 107.89 60.05 107.77 59.60 C 107.21 57.88 106.78 56.12 106.24 54.40 C 106.11 53.96 105.86 53.07 105.74 52.62 C 105.25 51.34 104.96 50.00 104.88 48.62 Z" />
</g>
<g id="#ffbb8cff">
<path fill="#ffbb8c" opacity="1.00" d=" M 83.82 62.92 C 86.43 61.79 89.16 60.93 91.70 59.66 C 92.22 60.86 92.71 62.06 93.19 63.28 L 92.78 63.67 C 91.66 64.03 90.53 64.38 89.39 64.73 C 88.01 64.99 86.60 65.19 85.34 65.87 C 81.56 66.06 77.77 66.05 73.99 66.00 C 73.54 64.97 73.08 63.96 72.61 62.95 C 76.35 63.01 80.09 63.14 83.82 62.92 Z" />
</g>
</svg>
