<?xml version="1.0" encoding="UTF-8" ?>
<!DOCTYPE svg PUBLIC "-//W3C//DTD SVG 1.1//EN" "http://www.w3.org/Graphics/SVG/1.1/DTD/svg11.dtd">
<svg width="211pt" height="133pt" viewBox="0 0 211 133" version="1.1" xmlns="http://www.w3.org/2000/svg">
<g id="#ffb08dff">
<path fill="#ffb08d" opacity="1.00" d=" M 34.33 7.08 C 39.44 8.64 44.50 10.34 49.60 11.92 C 61.74 23.59 72.93 36.19 84.66 48.25 C 81.65 49.91 79.37 52.59 78.06 55.75 C 62.64 40.75 48.44 24.56 32.91 9.68 C 33.26 9.03 33.97 7.73 34.33 7.08 Z" />
</g>
<g id="#ff9190ff">
<path fill="#ff9190" opacity="1.00" d=" M 176.98 12.58 C 185.30 13.70 193.13 10.01 201.22 8.87 C 204.87 9.13 207.78 11.80 211.00 13.32 L 211.00 27.15 C 208.54 33.72 206.06 40.28 203.76 46.91 C 183.55 47.05 163.34 47.03 143.12 46.96 C 132.09 35.36 121.30 23.52 109.88 12.30 C 132.24 13.93 154.60 10.90 176.98 12.58 Z" />
</g>
<g id="#ffb68cff">
<path fill="#ffb68c" opacity="1.00" d=" M 32.91 9.68 C 48.44 24.56 62.64 40.75 78.06 55.75 C 78.92 59.88 78.10 65.18 81.28 68.55 C 87.30 69.08 93.35 69.17 99.39 69.34 C 100.96 71.24 102.53 73.14 104.11 75.04 C 98.15 75.96 92.16 76.90 86.12 76.92 C 67.12 56.18 46.69 36.82 27.80 15.98 C 29.73 14.08 31.52 12.02 32.91 9.68 Z" />
</g>
<g id="#fea88efe">
<path fill="#fea88e" opacity="1.00" d=" M 49.60 11.92 C 55.02 11.74 60.42 11.28 65.84 11.10 C 80.80 25.93 95.09 41.42 109.97 56.34 C 107.69 62.21 107.22 68.55 106.21 74.71 C 105.68 74.79 104.63 74.96 104.11 75.04 C 102.53 73.14 100.96 71.24 99.39 69.34 C 99.32 62.93 100.60 56.32 99.17 50.01 C 94.39 49.03 89.51 48.61 84.66 48.25 C 72.93 36.19 61.74 23.59 49.60 11.92 Z" />
</g>
<g id="#ffa08fff">
<path fill="#ffa08f" opacity="1.00" d=" M 65.84 11.10 C 72.19 10.96 78.54 11.12 84.88 11.25 C 96.27 23.13 108.61 34.12 119.13 46.81 C 115.97 49.88 112.62 52.80 109.97 56.34 C 95.09 41.42 80.80 25.93 65.84 11.10 Z" />
</g>
<g id="#ff9890ff">
<path fill="#ff9890" opacity="1.00" d=" M 84.88 11.25 C 93.22 11.59 101.54 11.99 109.88 12.30 C 121.30 23.52 132.09 35.36 143.12 46.96 C 135.12 46.94 127.12 46.92 119.13 46.81 C 108.61 34.12 96.27 23.13 84.88 11.25 Z" />
</g>
<g id="#ffbc8bff">
<path fill="#ffbc8b" opacity="1.00" d=" M 21.15 21.62 C 23.47 19.86 25.71 18.00 27.80 15.98 C 46.69 36.82 67.12 56.18 86.12 76.92 C 81.93 76.76 77.74 76.44 73.56 76.16 C 56.48 57.60 38.19 40.21 21.15 21.62 Z" />
</g>
<g id="#ffc28bff">
<path fill="#ffc28b" opacity="1.00" d=" M 12.51 19.25 C 15.46 19.76 18.40 20.41 21.15 21.62 C 38.19 40.21 56.48 57.60 73.56 76.16 C 72.72 78.52 71.88 80.88 71.22 83.30 C 56.24 69.77 43.31 54.20 28.71 40.29 C 23.57 34.92 17.68 30.07 13.62 23.77 C 13.23 22.27 12.86 20.76 12.51 19.25 Z" />
</g>
<g id="#ffc78aff">
<path fill="#ffc78a" opacity="1.00" d=" M 13.62 23.77 C 17.68 30.07 23.57 34.92 28.71 40.29 C 43.31 54.20 56.24 69.77 71.22 83.30 C 70.33 86.90 69.64 90.55 68.90 94.19 C 61.91 87.47 55.06 80.61 48.55 73.43 C 38.14 62.15 26.66 51.90 16.65 40.25 C 16.15 34.67 15.12 29.16 13.62 23.77 Z" />
</g>
<g id="#fece89fe">
<path fill="#fece89" opacity="1.00" d=" M 0.00 48.69 C 4.89 44.73 11.04 42.92 16.65 40.25 C 26.66 51.90 38.14 62.15 48.55 73.43 C 55.06 80.61 61.91 87.47 68.90 94.19 C 67.99 98.82 67.02 103.44 66.23 108.09 C 52.99 94.78 40.49 80.76 27.07 67.62 C 26.48 62.66 27.14 55.67 21.70 53.33 C 14.80 50.80 7.17 52.31 0.00 51.62 L 0.00 48.69 Z" />
</g>
<g id="#fed488fe">
<path fill="#fed488" opacity="1.00" d=" M 27.07 67.62 C 40.49 80.76 52.99 94.78 66.23 108.09 C 65.05 113.45 66.09 118.88 67.72 124.02 C 67.37 124.02 66.68 124.02 66.33 124.02 C 52.18 108.63 37.79 93.34 22.35 79.24 C 23.87 75.35 25.65 71.55 27.07 67.62 Z" />
</g>
<g id="#fed987fe">
<path fill="#fed987" opacity="1.00" d=" M 22.35 79.24 C 37.79 93.34 52.18 108.63 66.33 124.02 C 62.25 124.37 58.21 125.03 54.16 125.51 C 42.14 113.89 30.40 101.99 19.11 89.67 C 18.51 90.92 17.90 92.18 17.33 93.45 C 19.03 88.72 20.50 83.91 22.35 79.24 Z" />
</g>
<g id="#fedf87fe">
<path fill="#fedf87" opacity="1.00" d=" M 19.11 89.67 C 30.40 101.99 42.14 113.89 54.16 125.51 C 40.51 127.70 26.65 126.86 12.94 125.78 C 11.37 114.82 12.19 103.44 17.33 93.45 C 17.90 92.18 18.51 90.92 19.11 89.67 Z" />
</g>
</svg>
