<?xml version="1.0" encoding="UTF-8" ?>
<!DOCTYPE svg PUBLIC "-//W3C//DTD SVG 1.1//EN" "http://www.w3.org/Graphics/SVG/1.1/DTD/svg11.dtd">
<svg width="324pt" height="133pt" viewBox="0 0 324 133" version="1.1" xmlns="http://www.w3.org/2000/svg">
<g id="#ffbd8bff">
<path fill="#ffbd8b" opacity="1.00" d=" M 116.89 9.34 C 121.87 8.58 126.91 8.40 131.93 8.07 C 132.29 12.88 132.73 17.69 133.10 22.51 C 130.54 25.70 128.42 29.67 129.00 33.93 C 129.62 36.35 131.66 38.01 133.32 39.75 C 137.77 61.52 139.59 83.73 143.71 105.56 C 143.67 107.79 143.65 110.02 143.63 112.26 C 137.27 110.93 130.37 110.75 124.77 107.16 C 119.65 103.68 123.28 96.32 123.34 91.41 C 124.28 82.68 129.51 75.39 134.26 68.33 C 131.33 66.92 128.35 65.62 125.32 64.43 C 122.39 46.08 120.56 27.56 116.89 9.34 Z" />
</g>
<g id="#ffb48cff">
<path fill="#ffb48c" opacity="1.00" d=" M 131.93 8.07 C 137.26 7.86 142.60 7.96 147.94 7.94 C 148.68 12.95 149.47 17.97 150.16 23.00 C 144.47 22.90 138.78 22.85 133.10 22.51 C 132.73 17.69 132.29 12.88 131.93 8.07 Z" />
</g>
<g id="#ffac8dff">
<path fill="#ffac8d" opacity="1.00" d=" M 147.94 7.94 C 153.68 7.98 159.43 8.03 165.18 8.18 C 165.88 13.11 166.52 18.05 167.13 23.00 C 161.47 23.01 155.82 23.02 150.16 23.00 C 149.47 17.97 148.68 12.95 147.94 7.94 Z" />
</g>
<g id="#ffa38eff">
<path fill="#ffa38e" opacity="1.00" d=" M 165.18 8.18 C 172.40 8.52 179.61 9.00 186.83 9.40 C 187.22 13.93 187.64 18.46 188.05 22.99 C 181.07 23.00 174.10 22.99 167.13 23.00 C 166.52 18.05 165.88 13.11 165.18 8.18 Z" />
</g>
<g id="#fe9a8ffe">
<path fill="#fe9a8f" opacity="1.00" d=" M 186.83 9.40 C 196.52 10.05 206.21 10.74 215.92 11.05 C 216.28 15.00 216.69 18.95 217.07 22.90 C 207.39 22.96 197.72 22.99 188.05 22.99 C 187.64 18.46 187.22 13.93 186.83 9.40 Z" />
</g>
<g id="#ffc28aff">
<path fill="#ffc28a" opacity="1.00" d=" M 107.54 26.33 C 109.57 20.22 110.14 12.13 116.89 9.34 C 120.56 27.56 122.39 46.08 125.32 64.43 C 121.16 66.11 116.99 67.77 112.87 69.56 C 111.96 55.05 108.69 40.81 107.54 26.33 Z" />
</g>
<g id="#ff9190ff">
<path fill="#ff9190" opacity="1.00" d=" M 215.92 11.05 C 230.41 11.68 244.91 12.03 259.41 12.02 C 264.23 21.56 262.52 32.63 262.27 42.95 C 281.35 48.96 301.28 42.24 320.72 43.03 C 321.37 46.94 321.90 50.86 322.45 54.79 C 301.41 56.76 280.02 53.25 259.18 57.42 C 256.74 61.54 255.73 68.36 250.02 68.87 C 242.41 69.48 234.75 69.07 227.13 69.09 C 226.10 59.06 224.75 49.06 223.02 39.12 C 231.03 38.91 239.13 39.11 247.05 37.65 C 245.12 33.66 247.93 25.49 242.36 23.77 C 233.98 22.69 225.50 22.93 217.07 22.90 C 216.69 18.95 216.28 15.00 215.92 11.05 Z" />
</g>
<g id="#ffe187ff">
<path fill="#ffe187" opacity="1.00" d=" M 12.52 24.69 C 19.56 23.53 26.75 23.71 33.86 23.64 C 35.48 43.66 39.54 63.38 41.54 83.36 C 30.20 85.89 18.67 87.42 7.03 87.40 C 4.27 76.89 1.25 66.40 0.00 55.58 L 0.00 46.33 C 1.84 38.15 5.68 29.84 12.52 24.69 Z" />
</g>
<g id="#ffde87ff">
<path fill="#ffde87" opacity="1.00" d=" M 33.86 23.64 C 40.79 23.79 47.05 26.72 52.31 31.09 C 55.88 45.90 57.03 61.15 59.74 76.12 C 56.59 77.70 54.19 80.32 51.39 82.39 C 48.50 84.40 44.77 84.15 41.54 83.36 C 39.54 63.38 35.48 43.66 33.86 23.64 Z" />
</g>
<g id="#ffd887ff">
<path fill="#ffd887" opacity="1.00" d=" M 52.31 31.09 C 56.89 26.36 63.21 24.64 69.78 25.39 C 74.21 58.37 78.67 91.36 84.01 124.20 C 80.65 124.90 77.20 125.16 73.80 125.60 C 71.90 108.48 71.85 91.25 71.89 74.06 C 67.83 74.72 63.76 75.28 59.74 76.12 C 57.03 61.15 55.88 45.90 52.31 31.09 Z" />
</g>
<g id="#ffd388ff">
<path fill="#ffd388" opacity="1.00" d=" M 69.78 25.39 C 73.15 25.45 76.50 25.68 79.87 25.79 C 84.10 57.63 89.03 89.37 93.29 121.20 C 90.28 122.43 87.18 123.47 84.01 124.20 C 78.67 91.36 74.21 58.37 69.78 25.39 Z" />
</g>
<g id="#ffcf89ff">
<path fill="#ffcf89" opacity="1.00" d=" M 79.87 25.79 C 83.88 25.90 87.88 25.98 91.90 26.04 C 93.72 45.92 97.78 65.52 99.77 85.36 C 99.58 96.34 99.55 107.33 100.02 118.30 C 97.78 119.28 95.54 120.25 93.29 121.20 C 89.03 89.37 84.10 57.63 79.87 25.79 Z" />
</g>
<g id="#ffc989ff">
<path fill="#ffc989" opacity="1.00" d=" M 91.90 26.04 C 97.11 26.12 102.32 26.22 107.54 26.33 C 108.69 40.81 111.96 55.05 112.87 69.56 C 108.61 74.91 105.18 81.03 99.77 85.36 C 97.78 65.52 93.72 45.92 91.90 26.04 Z" />
</g>
<g id="#ffb68cff">
<path fill="#ffb68c" opacity="1.00" d=" M 133.32 39.75 C 138.25 39.40 143.18 39.19 148.12 39.01 C 150.20 52.96 152.58 66.90 153.65 80.98 C 149.10 88.62 146.88 97.32 143.71 105.56 C 139.59 83.73 137.77 61.52 133.32 39.75 Z" />
</g>
<g id="#ffaf8dff">
<path fill="#ffaf8d" opacity="1.00" d=" M 148.12 39.01 C 152.39 38.94 156.66 38.98 160.94 38.98 C 162.98 53.71 165.30 68.40 167.00 83.18 C 162.53 82.60 158.09 81.80 153.65 80.98 C 152.58 66.90 150.20 52.96 148.12 39.01 Z" />
</g>
<g id="#ffa98eff">
<path fill="#ffa98e" opacity="1.00" d=" M 160.94 38.98 C 164.59 38.99 168.23 39.00 171.88 39.01 C 173.81 53.91 176.20 68.75 177.97 83.68 C 174.31 83.75 170.64 83.51 167.00 83.18 C 165.30 68.40 162.98 53.71 160.94 38.98 Z" />
</g>
<g id="#ffa48eff">
<path fill="#ffa48e" opacity="1.00" d=" M 171.88 39.01 C 176.53 39.02 181.18 39.01 185.83 39.01 C 186.98 49.04 188.51 59.02 190.08 68.99 C 187.46 69.00 184.84 69.00 182.22 69.02 C 181.85 73.86 181.48 78.71 181.08 83.56 C 180.04 83.61 179.00 83.65 177.97 83.68 C 176.20 68.75 173.81 53.91 171.88 39.01 Z" />
</g>
<g id="#ff9e8fff">
<path fill="#ff9e8f" opacity="1.00" d=" M 185.83 39.01 C 190.90 39.01 195.96 39.02 201.04 39.03 C 202.53 48.99 203.98 58.96 205.13 68.96 C 200.11 68.96 195.09 68.98 190.08 68.99 C 188.51 59.02 186.98 49.04 185.83 39.01 Z" />
</g>
<g id="#fe9790fe">
<path fill="#fe9790" opacity="1.00" d=" M 201.04 39.03 C 208.36 39.05 215.69 39.11 223.02 39.12 C 224.75 49.06 226.10 59.06 227.13 69.09 C 219.79 69.03 212.46 68.99 205.13 68.96 C 203.98 58.96 202.53 48.99 201.04 39.03 Z" />
</g>
</svg>
