<?xml version="1.0" encoding="UTF-8" ?>
<!DOCTYPE svg PUBLIC "-//W3C//DTD SVG 1.1//EN" "http://www.w3.org/Graphics/SVG/1.1/DTD/svg11.dtd">
<svg width="163pt" height="133pt" viewBox="0 0 163 133" version="1.1" xmlns="http://www.w3.org/2000/svg">
<g id="#ffb98bff">
<path fill="#ffb98b" opacity="1.00" d=" M 7.35 13.61 C 9.53 10.59 12.61 8.16 16.45 7.85 C 30.06 23.40 44.78 37.94 58.66 53.25 C 58.94 57.28 59.21 61.33 59.59 65.37 C 64.02 65.61 68.44 65.86 72.88 66.02 C 75.63 68.98 78.41 71.93 81.17 74.90 C 75.50 74.76 69.85 74.37 64.18 74.21 C 45.73 53.55 26.33 33.77 7.35 13.61 Z" />
</g>
<g id="#ffb28cff">
<path fill="#ffb28c" opacity="1.00" d=" M 16.45 7.85 C 21.25 9.12 25.91 10.85 30.66 12.26 C 42.96 25.04 54.91 38.15 67.16 50.98 C 64.31 51.65 61.47 52.39 58.66 53.25 C 44.78 37.94 30.06 23.40 16.45 7.85 Z" />
</g>
<g id="#ff9190ff">
<path fill="#ff9190" opacity="1.00" d=" M 87.83 12.00 C 111.69 12.27 136.98 18.56 159.77 8.94 C 161.95 19.21 163.37 30.28 159.60 40.31 C 157.05 41.77 153.94 41.87 151.22 42.82 C 149.65 44.35 148.19 46.05 146.30 47.19 C 138.02 48.20 129.67 47.82 121.36 47.98 C 110.62 35.58 99.04 23.96 87.83 12.00 Z" />
</g>
<g id="#ffab8dff">
<path fill="#ffab8d" opacity="1.00" d=" M 30.66 12.26 C 35.00 12.38 39.34 12.27 43.68 12.27 C 55.28 25.38 67.79 37.66 79.45 50.71 C 75.35 50.74 71.26 50.82 67.16 50.98 C 54.91 38.15 42.96 25.04 30.66 12.26 Z" />
</g>
<g id="#ffa58eff">
<path fill="#ffa58e" opacity="1.00" d=" M 43.68 12.27 C 48.09 12.21 52.50 12.14 56.91 12.09 C 71.21 27.09 84.87 42.75 99.87 57.06 C 99.04 62.34 99.31 67.94 97.09 72.91 C 95.10 70.68 93.12 68.44 91.14 66.20 C 91.51 61.12 91.87 56.05 92.13 50.97 C 87.90 50.89 83.68 50.74 79.45 50.71 C 67.79 37.66 55.28 25.38 43.68 12.27 Z" />
</g>
<g id="#ff9e8fff">
<path fill="#ff9e8f" opacity="1.00" d=" M 56.91 12.09 C 61.23 12.05 65.56 12.05 69.88 12.03 C 81.25 24.69 93.17 36.84 104.69 49.37 C 102.82 51.75 100.99 54.22 99.87 57.06 C 84.87 42.75 71.21 27.09 56.91 12.09 Z" />
</g>
<g id="#ff9790ff">
<path fill="#ff9790" opacity="1.00" d=" M 69.88 12.03 C 75.86 12.00 81.85 11.97 87.83 12.00 C 99.04 23.96 110.62 35.58 121.36 47.98 C 115.78 48.28 110.23 48.77 104.69 49.37 C 93.17 36.84 81.25 24.69 69.88 12.03 Z" />
</g>
<g id="#ffc08bff">
<path fill="#ffc08b" opacity="1.00" d=" M 3.16 22.02 C 4.17 19.04 5.54 16.18 7.35 13.61 C 26.33 33.77 45.73 53.55 64.18 74.21 C 61.02 74.61 57.89 75.11 54.77 75.73 C 36.82 58.57 20.25 40.02 3.16 22.02 Z" />
</g>
<g id="#fec88afe">
<path fill="#fec88a" opacity="1.00" d=" M 3.16 22.02 C 20.25 40.02 36.82 58.57 54.77 75.73 C 54.25 80.18 53.71 84.63 53.06 89.07 C 43.56 77.90 33.12 67.59 23.21 56.79 C 15.53 48.99 8.51 40.50 0.20 33.35 C 1.13 29.55 2.08 25.77 3.16 22.02 Z" />
</g>
<g id="#ffce89ff">
<path fill="#ffce89" opacity="1.00" d=" M 0.00 34.31 L 0.20 33.35 C 8.51 40.50 15.53 48.99 23.21 56.79 C 33.12 67.59 43.56 77.90 53.06 89.07 C 52.44 92.11 51.54 95.07 50.75 98.07 C 38.93 86.23 27.52 74.01 16.23 61.67 C 16.26 58.83 16.22 55.35 13.62 53.56 C 9.16 50.27 4.38 47.42 0.00 44.01 L 0.00 34.31 Z" />
</g>
<g id="#ffd588ff">
<path fill="#ffd588" opacity="1.00" d=" M 16.23 61.67 C 27.52 74.01 38.93 86.23 50.75 98.07 C 49.67 102.37 48.73 106.72 47.97 111.10 C 35.33 99.16 23.73 86.18 11.81 73.54 C 13.18 69.54 14.87 65.67 16.23 61.67 Z" />
</g>
<g id="#ffaf8dff">
<path fill="#ffaf8d" opacity="1.00" d=" M 72.88 66.02 C 78.96 66.14 85.05 66.14 91.14 66.20 C 93.12 68.44 95.10 70.68 97.09 72.91 C 91.96 74.56 86.49 74.53 81.17 74.90 C 78.41 71.93 75.63 68.98 72.88 66.02 Z" />
</g>
<g id="#ffdb87ff">
<path fill="#ffdb87" opacity="1.00" d=" M 7.76 86.61 C 8.98 82.22 10.39 77.88 11.81 73.54 C 23.73 86.18 35.33 99.16 47.97 111.10 C 47.96 115.85 48.66 121.79 43.36 124.13 C 31.38 111.74 19.54 99.21 7.76 86.61 Z" />
</g>
<g id="#ffe187ff">
<path fill="#ffe187" opacity="1.00" d=" M 2.97 116.04 C 3.02 106.05 5.17 96.22 7.76 86.61 C 19.54 99.21 31.38 111.74 43.36 124.13 C 33.24 124.30 23.10 124.97 12.98 124.67 C 7.95 125.61 2.84 121.04 2.97 116.04 Z" />
</g>
</svg>
