<?xml version="1.0" encoding="UTF-8" ?>
<!DOCTYPE svg PUBLIC "-//W3C//DTD SVG 1.1//EN" "http://www.w3.org/Graphics/SVG/1.1/DTD/svg11.dtd">
<svg width="389pt" height="133pt" viewBox="0 0 389 133" version="1.1" xmlns="http://www.w3.org/2000/svg">
<g id="#ffaa8eff">
<path fill="#ffaa8e" opacity="1.00" d=" M 166.53 14.55 C 168.46 13.79 170.76 13.59 172.58 14.74 C 175.26 14.60 177.03 16.70 179.43 17.40 C 184.15 18.73 189.18 17.66 194.02 18.02 C 194.92 23.65 195.56 29.33 196.23 34.99 C 194.28 35.00 192.34 35.00 190.39 35.00 C 189.80 37.01 188.36 38.55 186.46 39.38 C 185.84 39.60 184.60 40.04 183.98 40.25 L 183.95 40.81 C 185.73 41.43 187.52 42.02 189.40 42.27 C 190.67 42.85 192.06 43.02 193.43 43.24 C 194.42 43.64 195.43 44.01 196.44 44.37 C 197.73 44.81 199.07 45.02 200.41 45.26 C 202.67 46.54 205.35 45.88 207.82 46.01 C 208.82 54.69 210.16 63.32 211.17 72.00 C 208.77 71.99 206.38 71.99 203.99 71.99 C 204.21 74.53 203.28 77.42 204.91 79.64 C 205.47 83.27 203.99 87.35 205.92 90.64 C 206.40 93.94 205.07 97.66 206.91 100.64 C 207.08 104.68 206.97 108.72 207.00 112.76 C 205.71 112.90 204.50 113.27 203.36 113.86 C 201.35 114.08 199.15 113.61 197.38 114.84 C 196.46 114.94 195.54 115.06 194.62 115.17 C 193.13 116.18 191.32 115.99 189.63 116.17 C 187.85 117.38 185.65 116.92 183.64 117.12 C 181.39 118.69 178.53 117.79 176.00 118.00 C 175.99 114.88 176.04 111.76 175.91 108.64 C 174.36 106.63 175.19 103.98 174.91 101.65 C 172.94 98.02 174.52 93.60 173.92 89.64 C 172.39 87.74 173.15 85.23 172.98 83.01 C 172.51 83.00 171.55 82.98 171.07 82.97 C 170.92 75.15 169.21 67.48 168.37 59.73 C 167.41 50.53 165.67 41.43 164.71 32.23 C 164.15 27.18 162.59 22.13 163.51 17.02 C 164.17 15.85 165.44 15.26 166.53 14.55 Z" />
</g>
<g id="#ff9c90ff">
<path fill="#ff9c90" opacity="1.00" d=" M 209.36 16.92 C 210.65 15.76 212.36 16.00 213.94 15.97 C 218.75 16.05 223.57 15.91 228.38 16.08 C 229.62 16.82 231.06 17.07 232.39 17.61 C 232.94 18.93 233.16 20.38 233.93 21.61 C 234.01 23.53 234.00 25.46 233.90 27.38 C 233.42 28.38 233.00 29.40 232.62 30.44 C 232.31 31.50 232.04 32.57 231.81 33.65 C 231.06 34.43 230.33 35.21 229.59 36.00 C 222.06 36.00 214.52 35.98 206.98 36.03 C 205.40 35.99 203.67 36.24 202.37 35.09 C 200.32 35.00 198.28 34.99 196.23 34.99 C 195.56 29.33 194.92 23.65 194.02 18.02 C 195.47 18.00 196.92 17.97 198.37 17.91 C 201.65 15.98 205.74 17.48 209.36 16.92 Z" />
</g>
<g id="#ffd189ff">
<path fill="#ffd189" opacity="1.00" d=" M 76.53 17.50 C 77.92 16.80 79.51 17.05 81.00 16.98 C 91.03 17.02 101.05 17.00 111.08 17.00 C 112.24 22.50 112.50 28.13 113.48 33.65 C 113.61 35.77 116.21 35.86 117.70 36.63 L 118.54 36.93 C 104.77 37.00 90.99 37.00 77.22 37.02 C 75.47 33.81 76.10 30.14 75.93 26.64 C 74.57 25.21 74.63 22.96 75.80 21.44 C 76.00 20.12 75.98 18.74 76.53 17.50 Z" />
</g>
<g id="#ffc58bff">
<path fill="#ffc58b" opacity="1.00" d=" M 111.08 17.00 C 116.50 17.04 121.93 16.90 127.36 17.09 C 129.08 18.47 131.35 17.90 133.37 18.11 C 134.60 19.32 136.41 19.34 137.63 18.09 C 139.02 18.03 140.41 18.01 141.81 17.98 C 144.08 39.39 147.62 60.64 150.13 82.01 C 146.80 81.79 143.45 82.00 140.34 83.30 C 141.71 84.20 143.11 85.06 144.51 85.92 C 144.98 86.02 145.91 86.23 146.38 86.34 C 147.84 86.80 149.36 86.99 150.88 87.06 C 151.37 90.38 151.78 93.72 152.13 97.06 C 148.83 97.06 145.36 97.39 142.56 95.30 C 141.15 94.59 139.68 93.95 138.50 92.88 C 137.06 94.00 136.91 95.86 136.39 97.46 C 134.12 100.12 133.41 103.58 131.75 106.58 C 130.27 109.00 129.34 111.68 128.30 114.29 C 127.13 116.38 124.43 116.41 122.51 115.43 C 121.17 114.50 119.88 113.49 118.45 112.71 C 116.16 111.90 114.64 109.91 112.56 108.74 C 110.50 107.60 109.47 104.87 106.82 104.86 C 107.33 104.07 107.83 103.26 108.31 102.45 C 109.32 99.93 110.85 97.70 112.30 95.43 C 114.55 90.87 118.42 87.46 121.47 83.48 C 122.56 81.42 121.82 79.20 120.81 77.29 C 120.21 76.98 119.00 76.37 118.40 76.06 C 115.64 75.98 112.89 76.00 110.14 76.00 C 108.74 65.99 107.46 55.98 105.88 46.00 C 108.04 46.01 110.20 46.01 112.36 45.90 C 113.82 44.90 115.71 45.21 117.21 44.33 C 118.35 43.33 119.35 42.16 120.38 41.04 C 121.66 40.96 122.94 40.87 124.21 40.77 C 126.44 41.54 128.74 42.06 130.98 42.81 C 130.34 41.71 129.73 40.58 129.08 39.48 C 129.04 38.30 129.01 37.11 128.98 35.93 C 125.21 36.09 121.46 36.38 117.70 36.63 C 116.21 35.86 113.61 35.77 113.48 33.65 C 112.50 28.13 112.24 22.50 111.08 17.00 Z" />
</g>
<g id="#ffb78cff">
<path fill="#ffb78c" opacity="1.00" d=" M 159.03 18.01 C 160.61 18.13 162.06 17.55 163.51 17.02 C 162.59 22.13 164.15 27.18 164.71 32.23 C 165.67 41.43 167.41 50.53 168.37 59.73 C 169.21 67.48 170.92 75.15 171.07 82.97 C 171.45 84.99 169.72 85.99 168.00 86.28 C 168.00 85.46 168.01 83.81 168.01 82.99 C 167.53 82.99 166.59 82.99 166.11 83.00 C 166.00 84.53 166.03 86.12 165.36 87.55 C 164.85 89.26 164.08 90.86 163.32 92.47 C 162.82 93.88 161.78 94.84 160.44 95.46 C 159.17 95.80 157.88 96.01 156.59 96.25 C 155.25 97.12 153.64 96.99 152.13 97.06 C 151.78 93.72 151.37 90.38 150.88 87.06 C 152.45 87.06 154.03 87.02 155.60 86.99 C 156.37 86.20 157.15 85.41 157.93 84.63 C 157.99 84.09 158.12 83.00 158.18 82.45 C 158.53 81.72 159.23 80.26 159.58 79.52 C 158.43 80.22 157.28 80.93 156.14 81.65 C 154.15 81.98 152.13 82.04 150.13 82.01 C 147.62 60.64 144.08 39.39 141.81 17.98 C 147.55 18.00 153.29 18.02 159.03 18.01 Z" />
</g>
<g id="#ff9191ff">
<path fill="#ff9191" opacity="1.00" d=" M 326.48 34.52 C 328.61 33.44 330.85 34.26 332.86 35.16 C 333.48 36.87 334.03 38.60 334.26 40.40 C 335.66 43.25 334.79 46.53 335.00 49.57 C 335.80 50.36 336.61 51.15 337.41 51.96 C 339.19 52.04 341.14 51.67 342.64 52.91 C 357.41 53.12 372.19 52.94 386.96 53.00 C 386.99 54.12 387.04 55.24 387.10 56.37 C 388.98 58.35 387.58 60.92 386.76 63.01 C 379.21 62.92 371.64 63.12 364.09 62.94 C 363.66 62.73 362.79 62.30 362.35 62.09 C 355.24 61.88 348.12 62.06 341.01 62.00 C 341.00 62.48 341.00 63.43 341.00 63.90 C 339.39 64.03 337.61 63.74 336.33 64.94 C 334.56 62.83 330.65 63.96 330.89 66.91 C 331.02 69.22 328.51 68.88 326.99 69.17 C 326.99 71.11 327.00 73.06 327.00 75.00 C 323.88 75.00 320.76 75.05 317.64 74.91 C 315.72 73.42 313.21 74.15 310.99 73.96 C 308.78 74.15 306.28 73.43 304.36 74.90 C 301.31 74.76 296.08 76.47 295.73 72.00 C 279.89 71.94 264.04 72.13 248.20 71.90 C 246.93 63.29 245.72 54.66 244.82 46.00 C 253.00 45.94 261.18 46.11 269.36 45.91 C 272.62 43.72 276.91 46.11 280.34 44.37 C 283.37 42.14 287.25 43.21 290.73 43.00 C 291.21 44.22 291.25 46.20 293.10 45.94 C 303.14 46.08 313.19 45.97 323.24 45.98 C 323.10 44.70 322.73 43.49 322.11 42.37 C 322.03 41.05 321.99 39.73 321.95 38.40 C 323.39 37.03 324.84 35.66 326.48 34.52 Z" />
</g>
<g id="#ffd489ff">
<path fill="#ffd489" opacity="1.00" d=" M 97.36 47.18 C 99.95 45.60 102.99 45.99 105.88 46.00 C 107.46 55.98 108.74 65.99 110.14 76.00 C 104.79 76.06 99.43 75.88 94.09 76.06 C 93.67 76.24 92.83 76.62 92.41 76.81 C 91.95 76.90 91.04 77.10 90.58 77.20 C 89.58 77.61 88.57 77.99 87.55 78.33 C 86.56 78.68 85.56 79.00 84.55 79.30 C 83.56 79.67 82.56 80.00 81.55 80.30 C 80.56 80.67 79.56 81.01 78.55 81.34 C 77.83 81.52 76.37 81.88 75.64 82.06 C 75.80 71.28 73.07 60.69 71.91 50.00 C 73.48 50.00 75.05 50.00 76.62 50.00 C 77.32 51.84 78.78 53.25 79.41 55.13 C 82.08 55.36 84.32 53.88 86.59 52.70 C 88.58 52.03 90.56 51.29 92.45 50.36 C 94.09 49.31 95.67 48.17 97.36 47.18 Z" />
</g>
<g id="#ff9990ff">
<path fill="#ff9990" opacity="1.00" d=" M 207.82 46.01 C 220.15 45.99 232.48 46.01 244.82 46.00 C 245.72 54.66 246.93 63.29 248.20 71.90 C 246.81 71.85 245.52 72.18 244.35 72.89 C 242.02 73.18 239.39 72.39 237.36 73.91 C 234.79 74.01 232.21 73.99 229.64 74.08 C 227.95 75.97 225.82 74.36 223.97 73.76 C 223.98 73.32 224.00 72.44 224.00 72.00 C 219.72 72.00 215.45 72.00 211.17 72.00 C 210.16 63.32 208.82 54.69 207.82 46.01 Z" />
</g>
<g id="#ffe287ff">
<path fill="#ffe287" opacity="1.00" d=" M 47.68 50.18 C 55.75 49.82 63.83 50.09 71.91 50.00 C 73.07 60.69 75.80 71.28 75.64 82.06 C 75.00 82.61 74.26 83.03 73.42 83.34 C 72.11 83.81 70.77 84.21 69.47 84.71 C 68.52 84.99 67.59 85.31 66.66 85.67 C 64.99 86.49 63.23 87.11 61.47 87.72 C 60.46 88.01 59.46 88.33 58.47 88.68 C 57.04 89.05 55.70 89.67 54.36 90.28 C 53.06 90.82 51.72 91.25 50.43 91.83 C 49.97 91.91 49.03 92.09 48.57 92.17 C 47.28 92.75 45.94 93.18 44.64 93.72 C 43.30 94.33 41.95 94.94 40.52 95.32 C 39.54 95.67 38.55 95.99 37.54 96.27 C 36.24 96.77 34.91 97.18 33.62 97.72 C 31.99 98.47 30.30 99.08 28.62 99.72 C 27.29 100.33 25.95 100.93 24.54 101.35 C 22.30 102.61 19.42 101.23 17.37 102.92 C 13.76 103.00 10.13 103.15 6.53 102.89 C 5.24 102.06 3.71 100.82 4.00 99.09 C 4.01 93.74 3.92 88.38 4.05 83.03 C 4.27 82.62 4.70 81.79 4.92 81.37 C 5.04 78.46 5.05 75.54 4.92 72.63 C 3.57 70.90 4.30 68.56 3.39 66.66 C 1.72 64.37 1.44 61.18 2.52 58.59 C 3.50 58.22 4.49 57.92 5.52 57.68 C 11.04 56.10 17.05 57.43 22.77 57.00 C 23.02 55.33 23.60 53.74 24.14 52.16 C 25.43 51.77 26.63 51.01 28.01 51.03 C 33.98 50.86 39.95 51.16 45.90 50.94 C 46.35 50.75 47.23 50.37 47.68 50.18 Z" />
</g>
</svg>
