<?xml version="1.0" encoding="UTF-8" ?>
<!DOCTYPE svg PUBLIC "-//W3C//DTD SVG 1.1//EN" "http://www.w3.org/Graphics/SVG/1.1/DTD/svg11.dtd">
<svg width="377pt" height="133pt" viewBox="0 0 377 133" version="1.1" xmlns="http://www.w3.org/2000/svg">
<g id="#ff9190ff">
<path fill="#ff9190" opacity="1.00" d=" M 286.68 16.02 C 289.78 16.01 293.00 16.01 296.13 16.00 C 295.88 20.44 295.73 24.89 295.38 29.32 C 300.06 32.19 305.46 33.89 311.00 33.85 C 331.64 34.41 352.34 34.43 372.93 32.62 C 372.95 36.74 372.98 40.87 373.01 45.00 C 351.01 45.29 329.00 44.48 307.01 45.14 C 303.38 46.14 301.49 50.01 298.71 52.32 C 293.27 49.89 288.11 46.66 282.17 45.57 C 281.73 39.07 281.30 32.56 280.93 26.06 C 282.46 25.99 284.01 25.92 285.55 25.86 C 285.67 22.55 286.05 19.27 286.68 16.02 Z" />
</g>
<g id="#fed588fe">
<path fill="#fed588" opacity="1.00" d=" M 106.86 16.33 C 110.70 17.67 114.49 19.20 118.23 20.80 C 118.91 36.55 119.87 52.30 119.81 68.07 C 117.93 77.88 114.33 87.37 114.50 97.54 C 107.46 95.74 100.84 92.62 94.58 88.99 C 98.20 78.93 102.25 69.03 105.57 58.86 C 103.24 57.02 100.90 55.19 98.50 53.43 C 97.93 47.11 97.32 40.78 96.50 34.48 L 96.49 34.41 C 99.21 33.18 103.17 32.63 104.08 29.31 C 105.14 25.01 105.85 20.64 106.86 16.33 Z" />
</g>
<g id="#ffcd89ff">
<path fill="#ffcd89" opacity="1.00" d=" M 118.23 20.80 C 125.29 23.68 132.65 25.65 140.13 27.07 C 140.67 36.24 140.94 45.43 141.21 54.62 C 137.12 54.79 133.04 54.95 128.96 55.11 C 128.53 57.19 128.11 59.28 127.70 61.37 C 132.77 62.28 137.86 63.01 142.96 63.80 C 142.41 64.80 141.85 65.79 141.28 66.77 C 141.09 67.05 140.70 67.62 140.51 67.90 C 134.29 68.54 128.39 66.35 122.44 65.03 C 121.56 66.04 120.69 67.06 119.81 68.07 C 119.87 52.30 118.91 36.55 118.23 20.80 Z" />
</g>
<g id="#ffba8bff">
<path fill="#ffba8b" opacity="1.00" d=" M 182.27 23.94 C 183.85 24.03 185.44 24.13 187.03 24.23 C 187.52 32.48 187.87 40.74 188.12 49.00 C 184.28 49.79 180.47 50.61 176.63 51.34 C 176.14 72.12 185.00 91.40 192.91 110.13 C 186.63 112.92 180.46 116.00 174.00 118.35 C 172.29 88.27 172.10 58.12 170.30 28.04 C 174.55 28.00 178.81 27.96 183.07 27.91 C 182.80 26.58 182.54 25.26 182.27 23.94 Z" />
</g>
<g id="#ffb28cff">
<path fill="#ffb28c" opacity="1.00" d=" M 187.03 24.23 C 193.61 25.29 200.27 25.72 206.91 26.18 C 207.24 36.47 207.75 46.75 208.08 57.05 C 203.57 57.29 199.07 57.64 194.56 57.83 C 193.95 54.70 193.36 51.57 192.78 48.43 C 191.22 48.63 189.67 48.82 188.12 49.00 C 187.87 40.74 187.52 32.48 187.03 24.23 Z" />
</g>
<g id="#ffaa8dff">
<path fill="#ffaa8d" opacity="1.00" d=" M 206.91 26.18 C 212.91 26.09 218.91 26.03 224.91 25.98 C 225.11 35.99 225.65 45.98 226.07 55.98 C 220.08 56.39 214.08 56.77 208.08 57.05 C 207.75 46.75 207.24 36.47 206.91 26.18 Z" />
</g>
<g id="#ffa48eff">
<path fill="#ffa48e" opacity="1.00" d=" M 224.91 25.98 C 229.56 25.99 234.23 25.99 238.89 26.00 C 239.04 36.00 239.19 46.00 239.78 55.98 C 235.20 55.98 230.64 55.98 226.07 55.98 C 225.65 45.98 225.11 35.99 224.91 25.98 Z" />
</g>
<g id="#ff9f8fff">
<path fill="#ff9f8f" opacity="1.00" d=" M 238.89 26.00 C 244.65 26.00 250.42 25.99 256.20 25.99 C 256.56 33.77 256.92 41.57 256.67 49.36 C 256.28 51.59 255.83 53.82 255.32 56.03 C 250.13 56.01 244.96 56.00 239.78 55.98 C 239.19 46.00 239.04 36.00 238.89 26.00 Z" />
</g>
<g id="#ff9890ff">
<path fill="#ff9890" opacity="1.00" d=" M 256.20 25.99 C 264.44 26.01 272.68 26.02 280.93 26.06 C 281.30 32.56 281.73 39.07 282.17 45.57 C 274.78 45.64 267.38 45.60 259.99 45.92 C 258.87 47.28 257.76 48.63 256.65 49.98 L 256.67 49.36 C 256.92 41.57 256.56 33.77 256.20 25.99 Z" />
</g>
<g id="#ffc58aff">
<path fill="#ffc58a" opacity="1.00" d=" M 140.13 27.07 C 146.06 27.40 151.98 27.79 157.91 28.08 C 159.25 53.11 159.47 78.18 160.97 103.19 C 156.44 90.56 153.55 77.42 150.78 64.31 C 147.65 65.24 144.49 66.13 141.28 66.77 C 141.85 65.79 142.41 64.80 142.96 63.80 C 144.17 61.62 145.37 59.43 146.52 57.22 C 144.75 56.34 142.98 55.47 141.21 54.62 C 140.94 45.43 140.67 36.24 140.13 27.07 Z" />
</g>
<g id="#ffbf8bff">
<path fill="#ffbf8b" opacity="1.00" d=" M 157.91 28.08 C 162.04 28.06 166.17 28.05 170.30 28.04 C 172.10 58.12 172.29 88.27 174.00 118.35 L 174.05 119.22 C 172.05 119.95 170.06 120.68 168.05 121.39 C 165.47 115.44 162.13 109.64 160.97 103.19 C 159.47 78.18 159.25 53.11 157.91 28.08 Z" />
</g>
<g id="#5b4a2865">
<path fill="#5b4a28" opacity="0.40" d=" M 89.36 36.68 C 89.71 34.89 90.61 34.59 92.04 35.77 C 91.26 36.40 90.36 36.70 89.36 36.68 Z" />
</g>
<g id="#fedb87fe">
<path fill="#fedb87" opacity="1.00" d=" M 92.04 35.77 C 93.51 35.27 94.99 34.84 96.50 34.48 C 97.32 40.78 97.93 47.11 98.50 53.43 C 82.91 54.49 67.35 56.81 51.68 55.80 C 59.50 55.19 67.35 55.03 75.19 54.80 C 74.95 49.60 74.79 44.40 74.37 39.22 C 79.39 38.55 84.37 37.57 89.36 36.68 C 90.36 36.70 91.26 36.40 92.04 35.77 Z" />
</g>
<g id="#fee186fe">
<path fill="#fee186" opacity="1.00" d=" M 3.16 41.22 C 5.51 39.07 9.15 39.48 12.00 39.15 C 32.78 38.61 53.58 39.01 74.37 39.22 C 74.79 44.40 74.95 49.60 75.19 54.80 C 67.35 55.03 59.50 55.19 51.68 55.80 C 40.29 57.56 31.84 66.43 22.91 72.92 C 16.23 76.69 15.40 86.32 7.19 88.09 C 5.67 76.29 4.76 64.42 3.21 52.62 C 3.16 48.90 1.73 44.84 3.16 41.22 M 11.87 48.98 C 12.57 56.31 13.31 63.64 14.02 70.98 C 23.29 63.52 32.82 56.38 42.33 49.23 C 32.18 49.03 22.02 48.99 11.87 48.98 Z" />
</g>
</svg>
