<?xml version="1.0" encoding="UTF-8" ?>
<!DOCTYPE svg PUBLIC "-//W3C//DTD SVG 1.1//EN" "http://www.w3.org/Graphics/SVG/1.1/DTD/svg11.dtd">
<svg width="187pt" height="133pt" viewBox="0 0 187 133" version="1.1" xmlns="http://www.w3.org/2000/svg">
<g id="#feb28cfe">
<path fill="#feb28c" opacity="1.00" d=" M 16.23 12.22 C 19.37 11.18 22.47 9.74 25.80 9.48 C 49.39 30.20 73.58 50.24 97.26 70.85 C 92.12 70.50 87.06 69.60 82.04 68.53 C 60.01 49.87 38.21 30.93 16.23 12.22 Z" />
</g>
<g id="#feab8dfe">
<path fill="#feab8d" opacity="1.00" d=" M 25.80 9.48 C 32.17 10.03 38.31 12.16 44.75 12.15 C 58.66 25.21 73.53 37.20 88.08 49.52 C 88.42 53.89 87.29 59.01 90.18 62.77 C 97.06 63.34 103.97 63.29 110.87 63.03 C 113.34 65.43 115.85 67.82 118.32 70.23 C 111.35 71.18 104.27 70.87 97.26 70.85 C 73.58 50.24 49.39 30.20 25.80 9.48 Z" />
</g>
<g id="#ff9190ff">
<path fill="#ff9190" opacity="1.00" d=" M 157.01 11.74 C 166.35 11.53 175.66 9.68 185.04 10.65 C 185.80 20.40 186.69 30.32 184.98 40.02 C 185.38 45.96 178.55 46.36 174.56 46.72 C 162.75 47.67 150.87 46.59 139.04 46.85 C 125.71 35.15 112.01 23.90 98.78 12.09 C 118.19 11.90 137.60 12.42 157.01 11.74 Z" />
</g>
<g id="#ffa58eff">
<path fill="#ffa58e" opacity="1.00" d=" M 44.75 12.15 C 49.43 12.31 54.11 12.19 58.79 12.21 C 72.40 25.02 86.96 36.77 101.08 49.02 C 96.74 49.15 92.41 49.31 88.08 49.52 C 73.53 37.20 58.66 25.21 44.75 12.15 Z" />
</g>
<g id="#ff9f8fff">
<path fill="#ff9f8f" opacity="1.00" d=" M 58.79 12.21 C 64.77 12.17 70.76 12.14 76.76 12.13 C 91.93 26.19 107.70 39.65 123.95 52.44 C 125.13 56.76 126.92 61.17 126.56 65.70 C 126.00 69.53 121.17 69.55 118.32 70.23 C 115.85 67.82 113.34 65.43 110.87 63.03 C 112.72 62.62 114.54 62.08 116.35 61.54 C 115.95 57.33 115.54 53.14 115.11 48.94 C 110.43 48.97 105.76 48.92 101.08 49.02 C 86.96 36.77 72.40 25.02 58.79 12.21 Z" />
</g>
<g id="#fe9790fe">
<path fill="#fe9790" opacity="1.00" d=" M 76.76 12.13 C 84.10 12.10 91.44 12.09 98.78 12.09 C 112.01 23.90 125.71 35.15 139.04 46.85 C 133.68 47.45 127.91 48.46 123.95 52.44 C 107.70 39.65 91.93 26.19 76.76 12.13 Z" />
</g>
<g id="#ffb78cff">
<path fill="#ffb78c" opacity="1.00" d=" M 13.98 19.62 C 14.64 17.13 15.28 14.62 16.23 12.22 C 38.21 30.93 60.01 49.87 82.04 68.53 C 79.51 68.80 77.08 69.64 74.88 70.90 C 54.13 54.35 34.80 36.09 13.98 19.62 Z" />
</g>
<g id="#ffbd8bff">
<path fill="#ffbd8b" opacity="1.00" d=" M 13.98 19.62 C 34.80 36.09 54.13 54.35 74.88 70.90 C 73.07 73.16 71.49 75.60 70.11 78.15 C 51.49 61.90 32.72 45.82 13.82 29.89 C 13.70 26.47 13.84 23.04 13.98 19.62 Z" />
</g>
<g id="#ffc38aff">
<path fill="#ffc38a" opacity="1.00" d=" M 13.82 29.89 C 32.72 45.82 51.49 61.90 70.11 78.15 C 68.78 80.77 67.61 83.47 66.49 86.18 C 54.57 74.95 40.89 65.58 29.80 53.51 C 27.92 50.44 26.41 46.99 23.26 44.94 C 18.64 41.03 12.33 37.27 13.82 29.89 Z" />
</g>
<g id="#ffc98aff">
<path fill="#ffc98a" opacity="1.00" d=" M 29.80 53.51 C 40.89 65.58 54.57 74.95 66.49 86.18 C 65.39 88.90 64.29 91.63 63.19 94.36 C 50.62 84.14 38.40 73.49 26.11 62.94 C 27.41 59.82 28.57 56.65 29.80 53.51 Z" />
</g>
<g id="#ffd089ff">
<path fill="#ffd089" opacity="1.00" d=" M 26.11 62.94 C 38.40 73.49 50.62 84.14 63.19 94.36 C 61.77 97.97 60.35 101.58 58.97 105.22 C 46.29 94.63 33.64 83.99 21.41 72.87 C 23.08 69.61 24.67 66.31 26.11 62.94 Z" />
</g>
<g id="#ffd788ff">
<path fill="#ffd788" opacity="1.00" d=" M 12.83 85.72 C 15.77 81.49 18.69 77.25 21.41 72.87 C 33.64 83.99 46.29 94.63 58.97 105.22 C 57.02 110.38 55.42 115.66 54.05 121.01 C 40.54 108.98 26.71 97.32 12.83 85.72 Z" />
</g>
<g id="#ffdf87ff">
<path fill="#ffdf87" opacity="1.00" d=" M 0.00 108.27 C 2.25 99.74 8.16 92.98 12.83 85.72 C 26.71 97.32 40.54 108.98 54.05 121.01 C 53.74 122.11 53.43 123.22 53.12 124.33 C 35.41 123.16 14.05 128.38 0.00 114.77 L 0.00 108.27 Z" />
</g>
</svg>
