<?xml version="1.0" encoding="UTF-8" ?>
<!DOCTYPE svg PUBLIC "-//W3C//DTD SVG 1.1//EN" "http://www.w3.org/Graphics/SVG/1.1/DTD/svg11.dtd">
<svg width="135pt" height="133pt" viewBox="0 0 135 133" version="1.1" xmlns="http://www.w3.org/2000/svg">
<g id="#ffb18cff">
<path fill="#ffb18c" opacity="1.00" d=" M 14.91 17.83 C 19.80 16.17 24.89 18.17 29.71 18.98 C 43.28 30.86 57.41 42.12 70.92 54.08 C 74.39 57.68 77.89 61.25 81.24 64.97 C 72.91 65.57 68.83 58.55 65.67 52.11 C 63.40 53.29 61.14 54.50 58.90 55.73 C 44.34 42.97 28.78 31.35 14.91 17.83 Z" />
</g>
<g id="#feb98bfe">
<path fill="#feb98b" opacity="1.00" d=" M 3.92 27.08 C 6.54 22.95 10.57 19.97 14.91 17.83 C 28.78 31.35 44.34 42.97 58.90 55.73 C 59.33 58.45 59.50 61.23 60.32 63.87 C 64.31 65.29 68.54 65.93 72.71 66.63 C 74.75 67.82 76.62 69.26 78.49 70.70 C 73.06 70.83 67.62 70.68 62.19 70.92 C 44.53 54.54 25.35 39.90 7.37 23.88 C 6.20 24.93 5.04 25.98 3.92 27.08 Z" />
</g>
<g id="#fea98dfe">
<path fill="#fea98d" opacity="1.00" d=" M 29.71 18.98 C 34.09 19.17 38.47 19.10 42.85 19.15 C 56.05 30.26 69.00 41.69 82.38 52.57 C 78.54 52.94 74.71 53.38 70.92 54.08 C 57.41 42.12 43.28 30.86 29.71 18.98 Z" />
</g>
<g id="#ffa38eff">
<path fill="#ffa38e" opacity="1.00" d=" M 42.85 19.15 C 47.52 19.16 52.19 19.17 56.86 19.24 C 69.24 29.88 81.83 40.26 94.39 50.69 C 94.19 56.73 94.86 62.73 95.92 68.66 C 94.17 67.29 92.40 65.93 90.63 64.59 C 90.19 61.02 89.78 57.46 89.33 53.89 C 87.01 53.45 84.70 53.01 82.38 52.57 C 69.00 41.69 56.05 30.26 42.85 19.15 Z" />
</g>
<g id="#ff9a8fff">
<path fill="#ff9a8f" opacity="1.00" d=" M 56.86 19.24 C 64.50 19.46 72.13 19.82 79.78 19.82 C 91.25 30.22 103.23 40.03 115.08 49.99 C 108.18 50.21 101.28 50.31 94.39 50.69 C 81.83 40.26 69.24 29.88 56.86 19.24 Z" />
</g>
<g id="#ff9290ff">
<path fill="#ff9290" opacity="1.00" d=" M 79.78 19.82 C 97.85 19.04 115.99 18.23 134.05 19.84 C 134.28 21.24 134.76 24.04 135.00 25.44 L 135.00 48.81 C 128.37 49.34 121.73 49.74 115.08 49.99 C 103.23 40.03 91.25 30.22 79.78 19.82 Z" />
</g>
<g id="#ffc08bff">
<path fill="#ffc08b" opacity="1.00" d=" M 3.92 27.08 C 5.04 25.98 6.20 24.93 7.37 23.88 C 25.35 39.90 44.53 54.54 62.19 70.92 C 58.97 71.15 55.74 71.35 52.55 71.84 C 34.93 58.95 19.23 43.67 1.83 30.49 C 2.45 29.31 3.14 28.17 3.92 27.08 Z" />
</g>
<g id="#fec889fe">
<path fill="#fec889" opacity="1.00" d=" M 0.79 44.88 C 1.07 40.08 1.38 35.28 1.83 30.49 C 19.23 43.67 34.93 58.95 52.55 71.84 C 51.54 75.37 50.48 78.89 49.24 82.35 C 38.30 73.19 27.10 64.32 16.67 54.58 C 12.17 50.19 6.26 47.79 0.79 44.88 Z" />
</g>
<g id="#ffd089ff">
<path fill="#ffd089" opacity="1.00" d=" M 16.67 54.58 C 27.10 64.32 38.30 73.19 49.24 82.35 C 48.15 85.32 47.01 88.28 45.93 91.26 C 35.03 82.50 24.48 73.33 13.58 64.59 C 14.63 61.26 15.66 57.93 16.67 54.58 Z" />
</g>
<g id="#ffaf8dff">
<path fill="#ffaf8d" opacity="1.00" d=" M 90.63 64.59 C 92.40 65.93 94.17 67.29 95.92 68.66 C 90.17 69.76 84.36 70.69 78.49 70.70 C 76.62 69.26 74.75 67.82 72.71 66.63 C 78.70 66.10 84.67 65.42 90.63 64.59 Z" />
</g>
<g id="#ffd688ff">
<path fill="#ffd688" opacity="1.00" d=" M 9.90 73.39 C 11.18 70.48 12.48 67.57 13.58 64.59 C 24.48 73.33 35.03 82.50 45.93 91.26 C 44.82 94.27 43.75 97.31 42.94 100.42 C 31.72 91.66 21.25 81.99 9.90 73.39 Z" />
</g>
<g id="#ffdc87ff">
<path fill="#ffdc87" opacity="1.00" d=" M 5.14 83.98 C 6.62 80.40 8.30 76.91 9.90 73.39 C 21.25 81.99 31.72 91.66 42.94 100.42 C 43.79 106.49 46.12 112.25 49.05 117.60 C 47.73 117.60 46.41 117.61 45.10 117.58 C 32.01 106.11 18.78 94.79 5.14 83.98 Z" />
</g>
<g id="#ffe187ff">
<path fill="#ffe187" opacity="1.00" d=" M 5.14 83.98 C 18.78 94.79 32.01 106.11 45.10 117.58 C 29.83 116.32 14.95 112.28 0.00 109.14 L 0.00 99.54 C 1.50 94.29 3.09 89.04 5.14 83.98 Z" />
</g>
</svg>
