<?xml version="1.0" encoding="UTF-8" ?>
<!DOCTYPE svg PUBLIC "-//W3C//DTD SVG 1.1//EN" "http://www.w3.org/Graphics/SVG/1.1/DTD/svg11.dtd">
<svg width="403pt" height="133pt" viewBox="0 0 403 133" version="1.1" xmlns="http://www.w3.org/2000/svg">
<g id="#ff9f8fff">
<path fill="#ff9f8f" opacity="1.00" d=" M 225.04 23.02 C 215.55 26.89 217.69 9.68 224.82 12.25 C 235.11 16.50 246.11 18.10 256.70 21.32 C 260.53 27.47 259.23 35.32 255.01 40.92 C 255.78 40.94 257.32 40.99 258.10 41.01 C 260.31 54.61 261.44 68.39 264.09 81.92 C 258.07 81.97 252.06 82.04 246.05 81.98 C 244.38 67.58 243.06 52.99 240.03 38.83 C 244.65 38.18 250.64 37.59 251.91 32.13 C 246.33 27.91 239.18 26.48 232.39 25.49 C 229.79 25.06 227.73 23.01 225.04 23.02 Z" />
</g>
<g id="#ffbf8bff">
<path fill="#ffbf8b" opacity="1.00" d=" M 141.88 30.75 C 146.52 27.36 152.29 30.36 157.23 31.63 C 157.88 47.88 161.14 63.88 163.05 80.01 C 163.68 83.92 163.68 87.97 165.09 91.71 C 163.74 91.61 161.86 90.39 161.36 92.34 C 159.01 97.14 157.19 102.19 155.14 107.13 C 153.96 109.44 155.50 112.10 154.24 114.36 C 150.24 91.91 147.95 69.15 144.58 46.59 C 143.39 41.37 144.00 35.73 141.88 30.75 Z" />
</g>
<g id="#ffc58bff">
<path fill="#ffc58b" opacity="1.00" d=" M 137.67 38.69 C 139.34 36.18 139.52 32.77 141.88 30.75 C 144.00 35.73 143.39 41.37 144.58 46.59 C 147.95 69.15 150.24 91.91 154.24 114.36 C 153.21 117.04 150.62 120.02 147.10 117.80 C 140.50 116.33 134.39 113.27 128.15 110.77 C 132.66 101.62 139.77 93.69 143.02 83.99 C 142.11 77.68 133.16 78.32 128.04 77.92 C 126.67 65.53 125.66 53.01 122.90 40.84 C 127.69 39.43 132.74 39.23 137.67 38.69 Z" />
</g>
<g id="#ff9291ff">
<path fill="#ff9291" opacity="1.00" d=" M 321.19 31.04 C 322.62 31.03 325.48 31.02 326.91 31.01 C 327.22 36.93 326.82 42.86 327.14 48.78 C 331.03 51.04 335.75 49.55 339.99 50.04 C 358.98 49.59 378.04 50.89 396.98 49.19 C 399.89 48.15 401.89 48.84 403.00 51.26 L 403.00 59.06 C 389.95 59.23 377.04 56.74 364.00 56.97 C 352.44 57.11 340.87 56.73 329.31 57.19 C 324.78 60.50 333.35 57.81 335.30 59.71 C 338.36 61.69 336.76 65.85 336.97 68.95 C 327.64 69.17 318.27 68.58 309.00 69.80 C 302.09 70.44 294.57 69.23 288.01 72.06 C 285.69 61.80 285.66 51.12 283.09 40.94 C 287.08 41.71 292.86 39.39 295.40 43.61 C 302.40 45.32 309.40 48.14 316.71 47.89 C 318.53 42.36 321.72 37.09 321.19 31.04 Z" />
</g>
<g id="#ffba8cff">
<path fill="#ffba8c" opacity="1.00" d=" M 157.23 31.63 C 161.20 32.65 166.84 33.99 165.25 39.85 C 168.48 40.17 171.71 39.98 174.95 40.04 C 175.86 53.45 178.53 66.67 180.02 79.98 C 176.74 80.03 173.47 79.74 170.23 80.19 C 166.24 82.83 172.65 88.69 176.02 86.04 C 177.75 86.20 178.85 84.57 180.17 83.73 C 180.51 86.09 181.11 88.36 181.99 90.56 C 176.84 93.03 170.65 92.15 165.09 91.71 C 163.68 87.97 163.68 83.92 163.05 80.01 C 161.14 63.88 157.88 47.88 157.23 31.63 Z" />
</g>
<g id="#ffaf8dff">
<path fill="#ffaf8d" opacity="1.00" d=" M 188.75 39.97 C 189.27 35.07 197.10 39.54 199.96 37.98 C 203.93 67.32 207.68 96.70 212.11 125.97 C 208.08 126.01 204.06 126.02 200.05 126.00 C 197.39 97.21 192.64 68.62 188.75 39.97 Z" />
</g>
<g id="#ffac8eff">
<path fill="#ffac8e" opacity="1.00" d=" M 199.96 37.98 C 203.93 38.96 207.24 41.73 211.94 40.07 C 216.24 68.67 219.28 97.46 224.09 125.97 C 220.10 125.98 216.10 125.98 212.11 125.97 C 207.68 96.70 203.93 67.32 199.96 37.98 Z" />
</g>
<g id="#ffa38fff">
<path fill="#ffa38f" opacity="1.00" d=" M 224.11 39.93 C 229.27 38.36 234.72 39.16 240.03 38.83 C 243.06 52.99 244.38 67.58 246.05 81.98 C 240.71 82.00 235.38 82.06 230.05 81.93 C 228.29 67.91 226.82 53.77 224.11 39.93 Z" />
</g>
<g id="#ffb48dff">
<path fill="#ffb48d" opacity="1.00" d=" M 174.95 40.04 C 179.55 39.97 184.14 40.00 188.75 39.97 C 192.64 68.62 197.39 97.21 200.05 126.00 C 197.34 125.97 191.91 125.92 189.20 125.89 C 188.19 123.73 187.81 121.43 188.05 119.00 C 187.79 103.64 188.21 88.28 187.94 72.91 C 183.50 72.71 186.30 77.39 184.97 79.81 C 182.69 82.66 186.42 89.35 181.99 90.56 C 181.11 88.36 180.51 86.09 180.17 83.73 C 180.11 82.48 180.06 81.23 180.02 79.98 C 178.53 66.67 175.86 53.45 174.95 40.04 Z" />
</g>
<g id="#ffa88eff">
<path fill="#ffa88e" opacity="1.00" d=" M 211.94 40.07 C 215.99 40.03 220.05 39.98 224.11 39.93 C 226.82 53.77 228.29 67.91 230.05 81.93 C 229.35 81.96 227.96 82.02 227.26 82.06 C 230.71 95.05 228.32 108.75 229.01 122.02 C 232.48 129.62 226.91 126.48 224.09 125.97 C 219.28 97.46 216.24 68.67 211.94 40.07 Z" />
</g>
<g id="#ffcc8aff">
<path fill="#ffcc8a" opacity="1.00" d=" M 101.85 44.92 C 108.57 42.37 115.73 41.07 122.90 40.84 C 125.66 53.01 126.67 65.53 128.04 77.92 C 120.70 77.72 113.40 76.87 106.05 76.96 C 105.49 66.20 103.98 55.48 101.85 44.92 Z" />
</g>
<g id="#ff9890ff">
<path fill="#ff9890" opacity="1.00" d=" M 258.10 41.01 C 266.43 41.00 274.75 40.96 283.09 40.94 C 285.66 51.12 285.69 61.80 288.01 72.06 C 287.89 74.93 284.57 76.28 282.08 75.99 C 279.72 75.28 278.10 73.25 275.96 72.14 C 272.31 72.05 277.65 81.22 273.75 82.87 C 270.52 82.61 267.33 82.11 264.09 81.92 C 261.44 68.39 260.31 54.61 258.10 41.01 Z" />
</g>
<g id="#ffe287ff">
<path fill="#ffe287" opacity="1.00" d=" M 0.00 45.04 C 10.89 42.50 21.87 47.95 32.91 48.00 C 35.26 64.32 36.86 80.84 39.91 97.00 C 27.94 96.66 16.03 98.90 4.06 97.90 C 2.28 97.67 1.05 96.14 0.00 94.82 L 0.00 45.04 Z" />
</g>
<g id="#ffd289ff">
<path fill="#ffd289" opacity="1.00" d=" M 82.69 51.68 C 89.14 49.61 95.36 46.88 101.85 44.92 C 103.98 55.48 105.49 66.20 106.05 76.96 C 99.39 76.99 92.73 77.07 86.07 76.97 C 85.25 68.50 83.94 60.09 82.69 51.68 Z" />
</g>
<g id="#ffde87ff">
<path fill="#ffde87" opacity="1.00" d=" M 32.91 48.00 C 37.95 48.23 43.53 48.89 46.79 53.21 C 49.85 57.53 55.13 57.61 59.89 56.92 C 60.77 64.31 61.05 71.87 63.07 79.07 C 60.02 79.76 56.56 81.48 56.23 84.98 C 56.67 87.77 57.53 90.48 59.18 92.80 C 60.19 94.02 60.47 96.11 58.74 96.84 C 52.46 97.12 46.19 97.04 39.91 97.00 C 36.86 80.84 35.26 64.32 32.91 48.00 Z" />
</g>
<g id="#ffd988ff">
<path fill="#ffd988" opacity="1.00" d=" M 59.89 56.92 C 67.79 56.48 75.27 54.30 82.69 51.68 C 83.94 60.09 85.25 68.50 86.07 76.97 C 78.28 76.37 70.60 77.06 63.07 79.07 C 61.05 71.87 60.77 64.31 59.89 56.92 Z" />
</g>
</svg>
