<?xml version="1.0" encoding="UTF-8" ?>
<!DOCTYPE svg PUBLIC "-//W3C//DTD SVG 1.1//EN" "http://www.w3.org/Graphics/SVG/1.1/DTD/svg11.dtd">
<svg width="333pt" height="133pt" viewBox="0 0 333 133" version="1.1" xmlns="http://www.w3.org/2000/svg">
<g id="#ffbb8bff">
<path fill="#ffbb8b" opacity="1.00" d=" M 128.62 19.87 C 135.40 20.11 142.15 20.61 148.92 20.96 C 149.27 23.89 149.64 26.82 150.00 29.75 C 143.73 28.47 138.23 31.36 135.03 36.51 C 137.98 36.61 143.88 36.82 146.83 36.93 C 147.57 47.89 149.25 58.75 150.67 69.64 C 148.76 71.09 146.71 72.45 145.23 74.38 C 145.57 77.86 148.14 80.60 151.20 82.03 C 151.99 82.47 152.79 82.89 153.60 83.29 C 147.92 83.53 142.24 83.86 136.56 83.72 C 135.55 62.91 131.95 42.32 128.92 21.74 C 128.85 21.27 128.70 20.34 128.62 19.87 M 138.66 78.05 C 140.87 79.31 143.10 80.53 145.38 81.65 C 143.46 78.28 141.93 74.69 140.72 71.00 C 140.02 73.35 139.28 75.67 138.66 78.05 Z" />
</g>
<g id="#ffb08dff">
<path fill="#ffb08d" opacity="1.00" d=" M 148.92 20.96 C 157.31 21.16 165.71 21.52 174.06 22.46 C 174.05 24.30 174.02 28.00 174.01 29.84 C 166.01 29.73 158.00 29.62 150.00 29.75 C 149.64 26.82 149.27 23.89 148.92 20.96 Z" />
</g>
<g id="#ffc28aff">
<path fill="#ffc28a" opacity="1.00" d=" M 116.16 39.41 C 121.21 34.11 125.01 27.88 128.92 21.74 C 131.95 42.32 135.55 62.91 136.56 83.72 C 132.42 90.62 129.06 98.01 123.63 104.09 C 123.28 82.35 117.99 61.04 116.16 39.41 Z" />
</g>
<g id="#fea48efe">
<path fill="#fea48e" opacity="1.00" d=" M 174.06 22.46 C 183.24 22.32 193.17 25.97 196.52 35.14 C 198.27 43.27 198.99 51.58 200.04 59.81 C 198.10 59.79 196.17 59.80 194.24 59.82 C 193.99 58.43 193.75 57.03 193.52 55.64 C 190.92 59.26 188.11 62.78 186.38 66.92 C 185.48 57.36 184.00 47.87 183.10 38.31 C 185.98 36.43 188.82 34.50 191.66 32.56 C 185.90 31.05 179.96 30.15 174.01 29.84 C 174.02 28.00 174.05 24.30 174.06 22.46 Z" />
</g>
<g id="#ff9190ff">
<path fill="#ff9190" opacity="1.00" d=" M 276.03 22.92 C 278.33 23.27 280.64 23.62 282.95 23.97 C 282.98 30.61 283.01 37.26 283.03 43.90 C 297.35 44.33 311.68 44.89 326.00 44.00 C 325.94 47.01 326.01 50.05 326.00 53.07 C 313.03 52.32 300.03 51.73 287.11 53.54 C 285.40 57.16 281.66 58.50 278.10 59.54 C 279.49 49.37 268.74 52.62 264.98 57.10 C 264.60 55.81 264.22 54.52 263.85 53.22 C 262.18 55.46 260.39 57.61 258.62 59.77 C 252.40 59.87 246.19 59.96 239.97 60.02 C 238.93 52.33 237.88 44.65 236.89 36.97 C 244.49 37.06 252.16 36.45 259.73 37.32 C 261.74 39.00 263.12 41.28 264.55 43.44 C 264.93 35.14 271.66 29.33 276.03 22.92 M 274.42 30.42 C 272.44 33.59 270.47 36.74 268.55 39.94 C 272.60 39.66 276.65 39.34 280.71 38.98 C 278.72 36.05 276.62 33.19 274.42 30.42 Z" />
</g>
<g id="#fe9e8ffe">
<path fill="#fe9e8f" opacity="1.00" d=" M 196.52 35.14 C 202.06 35.33 207.58 35.69 213.12 35.91 C 214.30 43.96 215.37 52.03 216.71 60.05 C 211.15 59.98 205.59 59.91 200.04 59.81 C 198.99 51.58 198.27 43.27 196.52 35.14 Z" />
</g>
<g id="#ff9790ff">
<path fill="#ff9790" opacity="1.00" d=" M 213.12 35.91 C 221.05 36.07 229.00 36.07 236.89 36.97 C 237.88 44.65 238.93 52.33 239.97 60.02 C 232.21 60.01 224.46 60.02 216.71 60.05 C 215.37 52.03 214.30 43.96 213.12 35.91 Z" />
</g>
<g id="#feb38cfe">
<path fill="#feb38c" opacity="1.00" d=" M 146.83 36.93 C 151.17 36.99 155.50 36.95 159.85 36.97 C 162.57 65.15 167.61 93.05 170.48 121.21 C 163.04 110.65 162.02 97.39 159.86 85.07 C 158.30 84.62 155.17 83.73 153.60 83.29 C 152.79 82.89 151.99 82.47 151.20 82.03 C 153.13 81.57 155.06 81.11 156.99 80.66 C 157.30 78.20 157.55 75.72 157.88 73.27 C 155.48 72.06 153.08 70.84 150.67 69.64 C 149.25 58.75 147.57 47.89 146.83 36.93 Z" />
</g>
<g id="#ffaf8dff">
<path fill="#ffaf8d" opacity="1.00" d=" M 159.85 36.97 C 162.95 36.98 166.02 37.00 169.13 37.08 C 172.81 64.04 176.43 91.00 180.10 117.96 L 180.19 118.63 C 176.93 119.41 173.69 120.25 170.48 121.21 C 167.61 93.05 162.57 65.15 159.85 36.97 Z" />
</g>
<g id="#ffaa8dff">
<path fill="#ffaa8d" opacity="1.00" d=" M 169.13 37.08 C 173.80 37.31 178.45 37.84 183.10 38.31 C 184.00 47.87 185.48 57.36 186.38 66.92 C 188.37 75.21 185.61 83.59 187.29 91.85 C 188.74 99.74 191.09 107.43 193.69 115.00 C 189.16 115.99 184.65 117.05 180.10 117.96 C 176.43 91.00 172.81 64.04 169.13 37.08 Z" />
</g>
<g id="#fee186fe">
<path fill="#fee186" opacity="1.00" d=" M 5.01 37.86 C 6.58 37.96 8.16 38.06 9.73 38.17 C 14.03 38.52 18.34 38.80 22.64 39.19 C 22.99 39.23 23.68 39.31 24.03 39.35 C 29.07 39.94 34.12 40.55 39.19 40.78 C 41.77 40.89 44.35 41.00 46.92 41.09 C 48.12 50.43 49.43 59.75 51.01 69.03 C 47.38 69.74 43.70 70.18 39.99 70.18 C 35.40 72.85 30.82 75.54 26.27 78.29 C 26.16 76.40 25.94 72.63 25.83 70.74 C 18.37 74.22 9.32 76.54 5.38 84.49 C 4.87 68.95 4.96 53.40 5.01 37.86 M 11.53 40.12 C 11.68 40.44 11.96 41.09 12.10 41.41 C 14.70 42.02 12.95 37.94 11.53 40.12 Z" />
</g>
<g id="#7a673d80">
<path fill="#7a673d" opacity="0.50" d=" M 9.73 38.17 C 14.22 38.48 18.72 38.76 23.20 39.24 L 22.64 39.19 C 18.34 38.80 14.03 38.52 9.73 38.17 Z" />
</g>
<g id="#ffc989ff">
<path fill="#ffc989" opacity="1.00" d=" M 94.82 41.11 C 101.96 40.92 109.05 40.02 116.16 39.41 C 117.99 61.04 123.28 82.35 123.63 104.09 C 122.79 108.00 121.95 111.92 121.87 115.95 C 113.79 113.97 105.66 112.16 97.60 110.06 C 103.61 99.01 110.39 88.40 116.55 77.43 C 118.38 74.11 120.12 69.20 116.86 66.25 C 114.05 65.39 111.06 65.56 108.17 65.28 C 108.07 62.56 108.00 59.87 107.92 57.16 C 104.29 56.66 100.66 56.15 97.04 55.65 C 96.29 50.80 95.52 45.97 94.82 41.11 Z" />
</g>
<g id="#959374a0">
<path fill="#959374" opacity="0.63" d=" M 11.53 40.12 C 12.95 37.94 14.70 42.02 12.10 41.41 C 11.96 41.09 11.68 40.44 11.53 40.12 Z" />
</g>
<g id="#f2d580f2">
<path fill="#f2d580" opacity="0.95" d=" M 24.03 39.35 C 29.08 39.83 34.15 40.13 39.19 40.78 C 34.12 40.55 29.07 39.94 24.03 39.35 Z" />
</g>
<g id="#ffdb87ff">
<path fill="#ffdb87" opacity="1.00" d=" M 46.92 41.09 C 54.89 41.04 62.85 41.03 70.81 40.99 C 71.52 47.05 72.35 53.10 73.15 59.15 C 67.45 59.47 61.75 59.83 56.04 60.13 C 56.01 63.07 56.00 66.03 55.98 68.98 C 54.32 69.00 52.67 69.01 51.01 69.03 C 49.43 59.75 48.12 50.43 46.92 41.09 Z" />
</g>
<g id="#ffd388ff">
<path fill="#ffd388" opacity="1.00" d=" M 70.81 40.99 C 78.81 41.01 86.82 41.05 94.82 41.11 C 95.52 45.97 96.29 50.80 97.04 55.65 C 89.02 56.42 81.16 58.29 73.15 59.15 C 72.35 53.10 71.52 47.05 70.81 40.99 Z" />
</g>
</svg>
