<?xml version="1.0" encoding="UTF-8" ?>
<!DOCTYPE svg PUBLIC "-//W3C//DTD SVG 1.1//EN" "http://www.w3.org/Graphics/SVG/1.1/DTD/svg11.dtd">
<svg width="327pt" height="133pt" viewBox="0 0 327 133" version="1.1" xmlns="http://www.w3.org/2000/svg">
<g id="#feb78cfe">
<path fill="#feb78c" opacity="1.00" d=" M 129.90 13.12 C 133.09 13.03 137.12 11.65 139.72 14.16 C 141.52 17.71 140.79 21.99 141.54 25.81 C 143.87 24.94 146.17 24.16 148.55 23.37 C 148.66 24.28 148.87 26.10 148.98 27.01 C 150.66 39.72 152.36 52.43 154.75 65.02 C 153.36 65.66 151.98 66.30 150.60 66.94 C 150.87 69.58 151.15 72.23 151.39 74.88 C 148.63 72.43 146.12 69.72 143.70 66.95 C 143.73 69.60 143.79 72.26 143.85 74.92 C 148.10 75.57 152.36 76.18 156.60 76.98 C 156.72 77.63 156.84 78.27 156.97 78.91 C 152.25 79.14 147.53 79.27 142.83 79.73 C 139.75 61.56 137.83 43.21 134.57 25.08 C 132.93 21.13 131.14 17.23 129.90 13.12 Z" />
</g>
<g id="#ff9190ff">
<path fill="#ff9190" opacity="1.00" d=" M 280.53 27.53 C 284.74 21.76 290.21 16.37 297.76 15.69 C 297.88 23.03 297.99 30.38 298.09 37.73 C 307.59 35.78 317.36 36.35 327.00 36.35 L 327.00 45.49 C 318.27 45.79 309.55 45.41 300.83 45.76 C 290.71 46.70 281.16 50.79 270.99 51.54 C 263.06 52.22 255.11 52.11 247.17 52.07 C 246.16 43.70 244.91 35.35 243.87 26.98 C 256.09 27.02 268.31 27.08 280.53 27.53 M 286.18 32.90 C 288.17 32.93 292.14 33.00 294.12 33.04 C 293.94 29.57 293.63 26.09 293.46 22.64 C 288.22 23.53 286.45 28.38 286.18 32.90 Z" />
</g>
<g id="#ffbd8bff">
<path fill="#ffbd8b" opacity="1.00" d=" M 123.09 28.12 C 126.93 27.17 130.85 26.45 134.57 25.08 C 137.83 43.21 139.75 61.56 142.83 79.73 C 136.17 79.42 135.87 87.48 132.53 91.44 C 129.49 70.32 126.61 49.17 123.09 28.12 Z" />
</g>
<g id="#ffb08dff">
<path fill="#ffb08d" opacity="1.00" d=" M 148.98 27.01 C 153.69 26.98 158.39 26.95 163.11 26.93 C 167.99 57.66 171.72 88.57 177.06 119.22 C 175.93 119.50 174.79 119.77 173.65 120.04 C 170.12 106.49 167.26 92.73 166.64 78.70 C 163.42 78.76 160.19 78.82 156.97 78.91 C 156.84 78.27 156.72 77.63 156.60 76.98 C 159.20 74.76 162.48 72.47 162.05 68.44 C 159.87 66.82 157.26 65.98 154.75 65.02 C 152.36 52.43 150.66 39.72 148.98 27.01 Z" />
</g>
<g id="#ffac8dff">
<path fill="#ffac8d" opacity="1.00" d=" M 163.11 26.93 C 167.36 26.93 171.62 26.93 175.88 26.97 C 179.58 56.72 184.15 86.35 188.73 115.97 C 184.87 117.16 180.96 118.18 177.06 119.22 C 171.72 88.57 167.99 57.66 163.11 26.93 Z" />
</g>
<g id="#ffa78eff">
<path fill="#ffa78e" opacity="1.00" d=" M 175.88 26.97 C 180.19 27.07 184.50 27.24 188.81 27.47 C 190.08 41.18 192.58 54.72 194.75 68.30 C 194.36 83.06 196.25 97.94 201.99 111.64 C 197.56 113.07 193.14 114.53 188.73 115.97 C 184.15 86.35 179.58 56.72 175.88 26.97 Z" />
</g>
<g id="#ffa18fff">
<path fill="#ffa18f" opacity="1.00" d=" M 188.81 27.47 C 194.24 28.27 199.70 28.36 205.14 27.68 C 206.31 35.78 207.48 43.89 208.88 51.95 C 204.34 51.84 199.82 51.70 195.29 51.53 C 195.07 57.12 194.85 62.71 194.75 68.30 C 192.58 54.72 190.08 41.18 188.81 27.47 Z" />
</g>
<g id="#fe9b8ffe">
<path fill="#fe9b8f" opacity="1.00" d=" M 205.14 27.68 C 211.39 27.25 217.65 27.12 223.91 26.98 C 225.13 35.34 226.43 43.69 227.91 52.00 C 221.56 51.98 215.22 52.04 208.88 51.95 C 207.48 43.89 206.31 35.78 205.14 27.68 Z" />
</g>
<g id="#ff9590ff">
<path fill="#ff9590" opacity="1.00" d=" M 223.91 26.98 C 230.56 26.91 237.21 26.98 243.87 26.98 C 244.91 35.35 246.16 43.70 247.17 52.07 C 240.74 52.04 234.32 52.01 227.91 52.00 C 226.43 43.69 225.13 35.34 223.91 26.98 Z" />
</g>
<g id="#ffc28aff">
<path fill="#ffc28a" opacity="1.00" d=" M 109.72 35.15 C 114.03 32.57 118.08 29.25 123.09 28.12 C 126.61 49.17 129.49 70.32 132.53 91.44 C 128.72 96.77 126.19 102.94 126.71 109.56 C 125.29 109.47 122.46 109.28 121.05 109.19 C 118.95 98.77 117.79 88.21 115.84 77.77 C 118.22 73.28 121.71 69.12 122.62 64.01 C 122.36 59.70 116.94 59.45 113.84 57.81 C 113.24 54.33 112.64 50.85 112.02 47.38 C 111.25 43.30 110.43 39.24 109.72 35.15 Z" />
</g>
<g id="#fee187fe">
<path fill="#fee187" opacity="1.00" d=" M 0.00 34.44 C 10.44 29.63 22.61 32.80 33.67 31.85 C 37.73 45.21 38.48 59.25 41.06 72.92 C 29.33 76.78 18.89 83.57 9.54 91.55 C 7.04 94.63 3.13 92.59 0.00 92.04 L 0.00 34.44 Z" />
</g>
<g id="#fedc87fe">
<path fill="#fedc87" opacity="1.00" d=" M 33.67 31.85 C 40.40 31.93 47.14 31.97 53.88 31.97 C 55.48 42.81 57.22 53.65 58.10 64.58 C 52.04 66.54 46.65 69.96 41.06 72.92 C 38.48 59.25 37.73 45.21 33.67 31.85 Z" />
</g>
<g id="#ffd788ff">
<path fill="#ffd788" opacity="1.00" d=" M 53.88 31.97 C 59.20 31.95 64.52 31.88 69.84 31.93 C 70.96 41.93 72.50 51.87 74.01 61.82 C 69.90 66.52 63.75 66.65 58.10 64.58 C 57.22 53.65 55.48 42.81 53.88 31.97 Z" />
</g>
<g id="#ffd189ff">
<path fill="#ffd189" opacity="1.00" d=" M 69.84 31.93 C 76.68 32.28 83.47 33.23 90.24 34.25 C 90.44 37.99 90.69 41.73 90.87 45.47 C 83.03 47.98 79.17 56.05 74.01 61.82 C 72.50 51.87 70.96 41.93 69.84 31.93 Z" />
</g>
<g id="#fec989fe">
<path fill="#fec989" opacity="1.00" d=" M 90.24 34.25 C 96.70 35.00 103.22 34.91 109.72 35.15 C 110.43 39.24 111.25 43.30 112.02 47.38 C 104.99 46.56 97.94 45.77 90.87 45.47 C 90.69 41.73 90.44 37.99 90.24 34.25 Z" />
</g>
<g id="#ffc88aff">
<path fill="#ffc88a" opacity="1.00" d=" M 102.04 103.94 C 104.66 94.31 110.88 86.28 115.84 77.77 C 117.79 88.21 118.95 98.77 121.05 109.19 C 115.47 108.66 109.64 108.68 104.37 106.61 C 103.55 105.88 101.42 105.38 102.04 103.94 Z" />
</g>
</svg>
