<?xml version="1.0" encoding="UTF-8" ?>
<!DOCTYPE svg PUBLIC "-//W3C//DTD SVG 1.1//EN" "http://www.w3.org/Graphics/SVG/1.1/DTD/svg11.dtd">
<svg width="402pt" height="133pt" viewBox="0 0 402 133" version="1.1" xmlns="http://www.w3.org/2000/svg">
<g id="#ffbb8bff">
<path fill="#ffbb8b" opacity="1.00" d=" M 124.26 16.98 C 130.14 17.26 136.03 17.44 141.89 18.00 C 142.19 20.65 142.50 23.31 142.82 25.96 C 139.94 26.28 136.74 25.66 134.15 27.17 C 131.91 29.06 131.39 32.13 130.33 34.71 C 132.23 34.79 136.04 34.95 137.94 35.03 C 138.53 45.53 140.61 55.88 141.44 66.35 C 140.46 70.19 140.50 74.17 142.38 77.74 C 141.03 77.07 139.67 76.44 138.30 75.83 C 137.50 72.96 136.66 70.08 135.84 67.22 C 135.01 69.62 134.13 72.03 134.09 74.63 C 135.98 77.60 139.80 77.79 142.92 78.38 C 142.95 78.98 143.00 80.20 143.03 80.80 C 137.87 81.09 132.63 81.13 127.64 82.59 C 125.20 63.23 123.40 43.76 119.92 24.55 C 121.41 22.05 122.82 19.51 124.26 16.98 Z" />
</g>
<g id="#ffad8dff">
<path fill="#ffad8d" opacity="1.00" d=" M 141.89 18.00 C 151.57 19.01 161.22 20.28 170.92 21.06 C 171.35 22.68 171.78 24.30 172.21 25.92 C 162.41 25.86 152.62 25.87 142.82 25.96 C 142.50 23.31 142.19 20.65 141.89 18.00 Z" />
</g>
<g id="#ff9190ff">
<path fill="#ff9190" opacity="1.00" d=" M 258.51 40.90 C 259.57 31.66 266.53 24.92 272.66 18.61 C 273.95 19.26 275.23 19.94 276.50 20.64 C 276.81 27.39 277.01 34.14 277.24 40.89 C 291.17 41.52 305.12 41.63 319.05 40.93 C 325.06 41.32 330.03 37.12 335.99 37.10 C 357.98 36.56 379.99 37.26 402.00 37.00 L 402.00 55.00 C 376.99 54.91 351.98 55.15 326.98 54.98 C 327.38 53.23 327.81 51.49 328.25 49.75 C 315.44 50.20 302.64 49.24 289.85 49.73 C 283.02 48.84 278.66 54.57 272.74 56.49 C 272.35 54.65 271.57 50.96 271.19 49.12 C 266.10 47.29 262.94 50.31 260.81 54.21 C 260.08 52.99 259.37 51.76 258.68 50.52 C 257.37 52.66 255.97 54.73 254.58 56.81 C 244.09 57.04 233.61 57.07 223.13 57.02 C 222.63 48.99 221.72 40.99 220.89 32.99 C 232.12 33.08 243.34 32.91 254.57 33.14 C 255.92 35.71 257.23 38.28 258.51 40.90 M 268.41 27.48 C 266.52 30.30 264.72 33.17 262.91 36.03 C 265.80 35.99 271.58 35.90 274.47 35.86 C 273.09 32.68 271.65 29.19 268.41 27.48 M 263.00 40.00 C 265.50 40.25 270.50 40.75 273.00 41.00 C 270.50 40.75 265.50 40.25 263.00 40.00 Z" />
</g>
<g id="#ff9f8fff">
<path fill="#ff9f8f" opacity="1.00" d=" M 170.92 21.06 C 175.31 21.58 179.74 21.97 184.03 23.08 C 187.93 24.25 188.47 29.18 190.22 32.14 C 193.11 32.17 196.02 32.16 198.92 32.19 C 199.87 40.48 201.01 48.75 202.13 57.02 C 197.31 56.92 191.49 57.76 187.77 53.88 C 186.17 55.40 184.60 56.95 182.98 58.44 C 181.96 50.40 180.65 42.39 180.03 34.30 C 183.56 33.66 185.63 30.72 185.75 27.02 C 181.25 26.56 176.72 26.18 172.21 25.92 C 171.78 24.30 171.35 22.68 170.92 21.06 Z" />
</g>
<g id="#ffc38aff">
<path fill="#ffc38a" opacity="1.00" d=" M 107.84 37.70 C 113.56 35.09 116.98 29.81 119.92 24.55 C 123.40 43.76 125.20 63.23 127.64 82.59 C 127.69 91.78 119.78 97.97 116.37 105.89 C 114.94 94.87 113.25 83.88 112.05 72.84 C 112.75 70.31 113.26 67.73 113.65 65.14 C 113.00 63.07 111.55 61.40 110.34 59.65 C 109.43 52.34 108.61 45.02 107.84 37.70 Z" />
</g>
<g id="#ff9790ff">
<path fill="#ff9790" opacity="1.00" d=" M 198.92 32.19 C 206.24 32.39 213.56 32.91 220.89 32.99 C 221.72 40.99 222.63 48.99 223.13 57.02 C 216.12 56.99 209.13 57.00 202.13 57.02 C 201.01 48.75 199.87 40.48 198.92 32.19 Z" />
</g>
<g id="#ffa68eff">
<path fill="#ffa68e" opacity="1.00" d=" M 166.85 34.74 C 171.24 34.54 175.63 34.43 180.03 34.30 C 180.65 42.39 181.96 50.40 182.98 58.44 C 183.10 67.95 180.99 77.44 182.08 86.94 C 183.58 95.14 186.13 103.08 188.64 111.02 C 184.58 112.19 180.50 113.32 176.42 114.45 C 173.95 87.79 169.43 61.38 166.85 34.74 Z" />
</g>
<g id="#fee186fe">
<path fill="#fee186" opacity="1.00" d=" M 0.00 34.71 C 16.63 35.80 33.12 39.00 49.86 38.06 C 50.49 43.97 51.58 49.82 51.86 55.76 C 51.05 58.23 50.40 60.78 49.13 63.06 C 44.24 64.86 38.96 65.00 33.98 66.40 C 29.40 68.35 25.39 71.39 21.18 74.02 C 21.09 71.38 20.98 68.74 20.86 66.10 C 13.30 69.68 4.71 72.60 0.00 80.02 L 0.00 34.71 M 2.01 36.96 L 2.01 38.04 C 5.75 38.04 13.25 38.04 16.99 38.04 L 16.99 36.96 C 13.25 36.96 5.75 36.96 2.01 36.96 M 9.87 56.29 C 10.09 57.88 13.91 57.88 14.13 56.29 C 13.02 55.32 10.97 55.32 9.87 56.29 Z" />
</g>
<g id="#ffb38cff">
<path fill="#ffb38c" opacity="1.00" d=" M 137.94 35.03 C 142.58 35.13 147.22 35.08 151.87 35.07 C 154.65 59.84 158.64 84.48 160.62 109.33 C 158.13 100.05 155.71 90.73 154.55 81.18 C 150.70 81.00 146.87 80.88 143.03 80.80 C 143.00 80.20 142.95 78.98 142.92 78.38 C 145.88 78.25 148.86 78.05 151.82 77.84 C 152.35 75.16 152.87 72.48 153.28 69.78 C 149.35 68.59 145.45 67.28 141.44 66.35 C 140.61 55.88 138.53 45.53 137.94 35.03 Z" />
</g>
<g id="#ffac8dff">
<path fill="#ffac8d" opacity="1.00" d=" M 151.87 35.07 C 156.86 35.01 161.85 34.89 166.85 34.74 C 169.43 61.38 173.95 87.79 176.42 114.45 C 172.00 115.65 167.57 116.82 163.13 117.95 C 162.20 115.10 161.32 112.24 160.62 109.33 C 158.64 84.48 154.65 59.84 151.87 35.07 Z" />
</g>
<g id="#ffc989ff">
<path fill="#ffc989" opacity="1.00" d=" M 92.96 38.96 C 97.91 38.45 102.84 37.51 107.84 37.70 C 108.61 45.02 109.43 52.34 110.34 59.65 C 108.02 59.99 105.70 60.34 103.38 60.69 C 103.13 57.87 102.89 55.07 102.66 52.25 C 99.81 51.66 96.96 51.02 94.07 50.65 C 93.73 46.75 93.32 42.85 92.96 38.96 Z" />
</g>
<g id="#ffd987ff">
<path fill="#ffd987" opacity="1.00" d=" M 49.86 38.06 C 57.88 38.14 65.88 38.66 73.89 38.99 C 74.20 44.34 74.65 49.67 75.06 55.00 C 67.34 55.56 59.59 55.70 51.86 55.76 C 51.58 49.82 50.49 43.97 49.86 38.06 Z" />
</g>
<g id="#ffd188ff">
<path fill="#ffd188" opacity="1.00" d=" M 73.89 38.99 C 80.25 39.16 86.60 39.13 92.96 38.96 C 93.32 42.85 93.73 46.75 94.07 50.65 C 87.48 50.99 81.26 52.98 75.06 55.00 C 74.65 49.67 74.20 44.34 73.89 38.99 Z" />
</g>
<g id="#feca89fe">
<path fill="#feca89" opacity="1.00" d=" M 92.79 105.68 C 98.87 94.54 105.39 83.64 112.05 72.84 C 113.25 83.88 114.94 94.87 116.37 105.89 C 116.67 107.61 117.03 109.32 117.36 111.04 C 109.03 109.96 100.94 107.63 92.79 105.68 Z" />
</g>
</svg>
