<?xml version="1.0" encoding="UTF-8" ?>
<!DOCTYPE svg PUBLIC "-//W3C//DTD SVG 1.1//EN" "http://www.w3.org/Graphics/SVG/1.1/DTD/svg11.dtd">
<svg width="185pt" height="133pt" viewBox="0 0 185 133" version="1.1" xmlns="http://www.w3.org/2000/svg">
<g id="#fe9890fe">
<path fill="#fe9890" opacity="1.00" d=" M 10.24 2.19 C 10.62 2.20 11.37 2.20 11.74 2.21 C 42.01 19.83 72.97 36.27 103.09 54.15 C 104.06 56.62 104.34 59.64 106.39 61.52 C 110.69 63.22 115.51 63.06 120.01 63.97 C 122.37 64.84 124.59 66.03 126.82 67.20 C 123.50 68.55 119.89 68.93 116.34 68.96 C 79.84 48.14 43.01 27.92 6.56 7.01 C 7.70 5.34 8.92 3.72 10.24 2.19 Z" />
</g>
<g id="#fe9190fe">
<path fill="#fe9190" opacity="1.00" d=" M 11.74 2.21 C 28.22 2.61 44.72 3.69 61.06 5.88 C 66.98 4.14 66.02 9.81 66.50 13.05 C 83.25 13.06 100.00 13.02 116.75 12.89 C 117.28 10.59 117.81 8.30 118.33 6.00 C 122.63 6.13 126.92 6.31 131.23 6.50 C 134.48 10.06 138.46 14.01 143.97 12.14 C 152.49 12.23 158.85 5.35 166.87 4.08 C 174.58 5.74 169.53 16.91 171.59 22.14 C 176.05 22.75 180.52 23.30 185.00 23.88 L 185.00 32.15 C 180.66 33.34 176.10 33.90 171.95 35.66 C 171.36 37.92 170.18 42.44 169.59 44.71 C 161.98 44.91 154.37 45.05 146.77 45.23 C 146.28 48.42 145.67 51.59 145.05 54.76 C 142.46 54.95 137.28 55.35 134.68 55.55 C 132.17 59.50 129.64 63.46 126.82 67.20 C 124.59 66.03 122.37 64.84 120.01 63.97 C 124.99 62.97 125.96 58.02 126.92 53.74 C 118.98 53.53 110.99 53.11 103.09 54.15 C 72.97 36.27 42.01 19.83 11.74 2.21 Z" />
</g>
<g id="#fea08efe">
<path fill="#fea08e" opacity="1.00" d=" M 5.29 16.21 C 5.58 13.13 5.82 10.02 6.56 7.01 C 43.01 27.92 79.84 48.14 116.34 68.96 C 111.12 68.86 105.79 68.46 100.84 66.69 C 72.31 51.17 44.09 35.02 15.85 18.97 C 16.38 17.36 16.89 15.74 17.40 14.12 C 15.85 14.07 14.31 14.03 12.76 13.98 C 12.82 15.73 12.88 17.47 12.97 19.21 C 10.47 18.05 7.89 17.08 5.29 16.21 Z" />
</g>
<g id="#efa088f0">
<path fill="#efa088" opacity="0.94" d=" M 12.76 13.98 C 14.31 14.03 15.85 14.07 17.40 14.12 C 16.89 15.74 16.38 17.36 15.85 18.97 C 15.28 20.60 14.64 22.22 13.93 23.80 C 13.78 24.12 13.48 24.74 13.32 25.05 C 13.24 23.59 13.06 20.67 12.97 19.21 C 12.88 17.47 12.82 15.73 12.76 13.98 M 14.17 15.57 C 13.26 16.23 13.40 18.27 14.76 18.20 C 16.55 17.93 16.02 14.34 14.17 15.57 Z" />
</g>
<g id="#77786280">
<path fill="#777862" opacity="0.50" d=" M 14.17 15.57 C 16.02 14.34 16.55 17.93 14.76 18.20 C 13.40 18.27 13.26 16.23 14.17 15.57 Z" />
</g>
<g id="#feb08dfe">
<path fill="#feb08d" opacity="1.00" d=" M 5.29 16.21 C 7.89 17.08 10.47 18.05 12.97 19.21 C 13.06 20.67 13.24 23.59 13.32 25.05 C 13.48 24.74 13.78 24.12 13.93 23.80 C 28.81 30.99 42.66 40.10 57.45 47.44 C 54.84 47.91 52.24 48.42 49.65 48.99 C 35.09 39.97 20.01 31.81 4.89 23.77 C 4.99 21.88 5.19 18.10 5.29 16.21 Z" />
</g>
<g id="#fea98dfe">
<path fill="#fea98d" opacity="1.00" d=" M 15.85 18.97 C 44.09 35.02 72.31 51.17 100.84 66.69 C 100.89 68.80 100.93 70.92 100.96 73.04 C 89.24 66.09 76.85 60.23 65.65 52.44 C 63.18 50.38 60.44 48.64 57.45 47.44 C 42.66 40.10 28.81 30.99 13.93 23.80 C 14.64 22.22 15.28 20.60 15.85 18.97 Z" />
</g>
<g id="#feba8bfe">
<path fill="#feba8b" opacity="1.00" d=" M 4.89 23.77 C 20.01 31.81 35.09 39.97 49.65 48.99 C 45.95 50.05 42.08 49.82 38.33 49.18 C 27.35 42.25 16.13 35.70 4.53 29.86 C 4.66 27.83 4.78 25.80 4.89 23.77 Z" />
</g>
<g id="#ffc58aff">
<path fill="#ffc58a" opacity="1.00" d=" M 4.53 29.86 C 16.13 35.70 27.35 42.25 38.33 49.18 C 33.62 48.79 28.88 48.71 24.17 48.35 C 17.31 44.87 10.70 40.93 4.12 36.95 C 4.22 35.18 4.43 31.63 4.53 29.86 Z" />
</g>
<g id="#ffd188ff">
<path fill="#ffd188" opacity="1.00" d=" M 4.12 36.95 C 10.70 40.93 17.31 44.87 24.17 48.35 C 24.10 51.31 24.04 54.27 24.01 57.24 C 17.37 53.10 10.39 49.56 3.51 45.84 C 3.77 42.88 3.93 39.91 4.12 36.95 Z" />
</g>
<g id="#ffdd87ff">
<path fill="#ffdd87" opacity="1.00" d=" M 3.51 45.84 C 10.39 49.56 17.37 53.10 24.01 57.24 C 24.04 58.84 24.10 62.04 24.12 63.64 C 17.74 63.68 11.12 63.96 5.06 61.79 C 0.24 57.89 3.64 50.87 3.51 45.84 Z" />
</g>
<g id="#ffb38cff">
<path fill="#ffb38c" opacity="1.00" d=" M 65.65 52.44 C 76.85 60.23 89.24 66.09 100.96 73.04 C 100.98 75.04 101.01 77.04 101.03 79.05 C 89.69 72.88 78.27 66.81 67.23 60.11 C 67.14 57.48 66.50 54.91 65.65 52.44 Z" />
</g>
<g id="#ffbe8bff">
<path fill="#ffbe8b" opacity="1.00" d=" M 67.23 60.11 C 78.27 66.81 89.69 72.88 101.03 79.05 C 101.05 80.80 101.08 84.31 101.10 86.07 C 89.27 79.72 77.55 73.18 65.86 66.57 C 66.36 64.43 66.86 62.28 67.23 60.11 Z" />
</g>
<g id="#ffc88aff">
<path fill="#ffc88a" opacity="1.00" d=" M 64.66 71.68 C 65.05 69.98 65.45 68.28 65.86 66.57 C 77.55 73.18 89.27 79.72 101.10 86.07 C 101.11 88.06 101.10 90.06 101.02 92.06 C 88.83 85.39 76.56 78.85 64.66 71.68 Z" />
</g>
<g id="#ffd089ff">
<path fill="#ffd089" opacity="1.00" d=" M 63.45 76.88 C 63.85 75.15 64.25 73.41 64.66 71.68 C 76.56 78.85 88.83 85.39 101.02 92.06 C 100.91 93.99 100.73 95.91 100.43 97.82 C 88.07 90.91 75.62 84.13 63.45 76.88 Z" />
</g>
<g id="#ffd988ff">
<path fill="#ffd988" opacity="1.00" d=" M 61.67 84.50 C 62.25 81.96 62.85 79.42 63.45 76.88 C 75.62 84.13 88.07 90.91 100.43 97.82 C 99.76 100.04 98.90 102.18 98.24 104.40 C 85.82 98.20 74.03 90.83 61.67 84.50 Z" />
</g>
<g id="#fee187fe">
<path fill="#fee187" opacity="1.00" d=" M 58.60 99.56 C 59.57 94.52 60.52 89.49 61.67 84.50 C 74.03 90.83 85.82 98.20 98.24 104.40 C 97.80 113.26 97.93 122.13 97.89 131.00 C 90.27 131.00 82.66 131.00 75.04 131.00 C 75.02 121.11 75.00 111.22 74.95 101.33 C 69.50 100.79 64.04 100.24 58.60 99.56 Z" />
</g>
</svg>
