<?xml version="1.0" encoding="UTF-8" ?>
<!DOCTYPE svg PUBLIC "-//W3C//DTD SVG 1.1//EN" "http://www.w3.org/Graphics/SVG/1.1/DTD/svg11.dtd">
<svg width="281pt" height="133pt" viewBox="0 0 281 133" version="1.1" xmlns="http://www.w3.org/2000/svg">
<g id="#ffe287ff">
<path fill="#ffe287" opacity="1.00" d=" M 6.15 13.70 C 8.60 17.61 13.58 15.64 17.35 16.18 C 17.78 16.37 18.64 16.76 19.07 16.95 C 25.63 17.11 32.20 16.94 38.76 17.01 C 41.49 34.48 46.28 51.57 49.22 69.01 C 47.67 69.00 46.12 68.98 44.58 68.93 C 42.64 67.25 39.89 68.26 37.58 67.93 C 34.98 65.78 31.25 68.06 28.47 66.31 C 27.52 66.02 26.59 65.69 25.67 65.34 C 23.14 64.25 20.58 63.32 18.34 61.67 C 17.39 59.93 16.16 58.38 15.22 56.64 C 14.66 55.23 13.99 53.87 13.31 52.52 C 11.67 50.61 11.07 47.44 8.40 46.70 C 7.88 46.46 6.83 45.98 6.31 45.74 C 5.61 43.50 3.46 42.28 2.12 40.48 C 1.84 36.32 2.01 32.15 2.01 27.99 C 1.84 26.60 2.81 25.52 3.37 24.34 C 4.33 22.51 3.66 20.29 4.71 18.49 C 5.19 16.89 5.77 15.33 6.15 13.70 Z" />
</g>
<g id="#ffd888ff">
<path fill="#ffd888" opacity="1.00" d=" M 45.63 16.12 C 51.02 16.01 56.42 15.96 61.81 16.03 C 63.29 16.52 64.82 16.99 66.12 17.89 C 67.41 20.36 67.55 23.26 68.18 25.94 C 74.53 55.96 80.96 85.97 87.29 116.00 C 76.36 115.91 65.42 116.17 54.50 115.89 C 52.23 114.34 50.35 112.14 50.90 109.21 C 54.46 109.60 56.10 106.40 56.79 103.46 C 57.06 102.09 56.84 100.52 57.91 99.42 C 58.19 97.43 57.39 95.05 58.94 93.42 C 59.34 90.79 58.12 87.66 59.95 85.43 C 59.95 83.40 60.37 81.23 59.31 79.38 C 60.03 76.63 60.08 73.78 60.09 70.96 C 59.35 70.98 57.87 71.02 57.13 71.04 C 57.08 70.53 56.98 69.51 56.94 69.00 C 54.36 69.00 51.79 69.00 49.22 69.01 C 46.28 51.57 41.49 34.48 38.76 17.01 C 41.05 16.81 43.65 17.64 45.63 16.12 Z" />
</g>
<g id="#ffcb8aff">
<path fill="#ffcb8a" opacity="1.00" d=" M 61.81 16.03 C 76.77 15.95 91.74 16.03 106.70 16.01 C 109.84 30.33 112.47 44.76 115.96 59.00 C 112.63 58.99 109.29 58.99 105.96 58.99 C 105.99 60.10 106.02 61.21 106.06 62.33 C 106.40 63.01 107.07 64.36 107.41 65.04 C 110.53 64.71 114.20 65.96 116.88 63.86 C 117.62 67.91 118.42 71.94 119.14 75.99 C 113.44 75.98 107.74 76.00 102.03 76.00 C 102.00 77.14 101.96 78.28 101.91 79.42 C 100.87 80.52 101.05 82.08 100.79 83.44 C 98.75 86.48 101.28 90.56 99.16 93.56 C 99.08 94.03 98.92 94.97 98.85 95.44 C 97.26 97.41 98.56 100.12 97.55 102.29 C 95.92 102.95 94.08 103.67 93.64 105.58 C 92.78 106.65 92.88 107.64 93.92 108.56 C 93.95 109.16 94.01 110.38 94.04 110.99 C 93.62 110.99 92.78 111.00 92.36 111.00 C 92.04 111.64 91.42 112.92 91.11 113.56 C 91.07 114.17 91.00 115.39 90.96 116.00 C 89.74 116.00 88.51 116.00 87.29 116.00 C 80.96 85.97 74.53 55.96 68.18 25.94 C 67.55 23.26 67.41 20.36 66.12 17.89 C 64.82 16.99 63.29 16.52 61.81 16.03 M 100.38 63.87 C 100.94 63.87 102.05 63.88 102.61 63.88 C 103.82 61.79 99.18 61.78 100.38 63.87 Z" />
</g>
<g id="#ffb38dff">
<path fill="#ffb38d" opacity="1.00" d=" M 106.70 16.01 C 110.27 16.45 114.40 14.93 117.58 16.93 C 127.65 17.09 137.72 16.97 147.79 17.00 C 150.45 32.43 154.29 47.62 157.21 63.00 C 150.57 62.98 143.92 63.00 137.27 63.00 C 137.05 63.61 136.61 64.84 136.39 65.45 C 133.65 69.10 131.18 73.08 127.47 75.87 C 124.71 76.18 121.92 75.97 119.14 75.99 C 118.42 71.94 117.62 67.91 116.88 63.86 C 116.99 63.56 117.21 62.95 117.32 62.64 C 118.02 61.43 118.76 60.25 119.45 59.03 C 118.58 59.03 116.84 59.01 115.96 59.00 C 112.47 44.76 109.84 30.33 106.70 16.01 Z" />
</g>
<g id="#ffa18fff">
<path fill="#ffa18f" opacity="1.00" d=" M 147.79 17.00 C 156.28 16.99 164.78 17.02 173.27 16.99 C 176.55 31.65 179.40 46.41 182.82 61.02 L 183.03 61.72 C 180.79 62.11 179.14 63.81 178.67 66.00 C 178.31 66.00 177.60 65.99 177.24 65.98 C 176.02 68.30 175.87 70.87 175.89 73.44 C 175.58 74.08 174.97 75.36 174.66 76.00 C 172.00 75.84 169.14 76.54 166.64 75.39 C 165.51 74.69 164.29 74.12 163.01 73.75 C 162.98 72.69 162.95 71.64 162.91 70.59 C 161.22 68.43 162.25 65.51 162.00 63.00 C 160.40 63.00 158.81 63.00 157.21 63.00 C 154.29 47.62 150.45 32.43 147.79 17.00 Z" />
</g>
<g id="#ff9191ff">
<path fill="#ff9191" opacity="1.00" d=" M 173.27 16.99 C 191.66 17.06 210.05 16.90 228.43 17.07 C 229.07 17.39 230.36 18.03 231.00 18.35 C 231.00 20.24 231.00 22.12 231.00 24.00 C 232.66 24.00 234.33 24.00 236.00 24.00 C 236.00 25.67 236.00 27.33 236.00 29.00 C 250.33 29.00 264.67 29.00 279.00 29.00 C 279.00 33.33 279.00 37.67 279.00 42.00 C 272.00 42.00 265.00 42.00 258.00 42.00 C 258.00 42.75 258.00 44.25 258.00 45.00 C 250.67 45.00 243.34 45.00 236.01 45.00 C 236.01 45.49 236.00 46.46 236.00 46.95 C 235.39 46.99 234.18 47.08 233.58 47.12 C 231.73 48.61 229.27 47.84 227.11 48.00 C 227.17 50.02 226.82 51.98 225.64 53.66 C 224.74 55.16 225.05 56.94 224.95 58.60 C 223.67 59.81 222.10 60.96 221.76 62.82 C 218.15 64.74 213.93 63.92 210.02 63.93 C 209.63 63.75 208.84 63.41 208.44 63.24 C 206.27 63.38 204.68 62.13 202.98 61.06 C 196.27 60.89 189.54 61.04 182.82 61.02 C 179.40 46.41 176.55 31.65 173.27 16.99 Z" />
</g>
<g id="#78745a80">
<path fill="#78745a" opacity="0.50" d=" M 57.13 71.04 C 57.87 71.02 59.35 70.98 60.09 70.96 C 60.08 73.78 60.03 76.63 59.31 79.38 C 53.69 86.04 47.84 92.55 43.03 99.86 C 48.29 90.55 53.43 81.10 57.13 71.04 Z" />
</g>
</svg>
