<?xml version="1.0" encoding="UTF-8" ?>
<!DOCTYPE svg PUBLIC "-//W3C//DTD SVG 1.1//EN" "http://www.w3.org/Graphics/SVG/1.1/DTD/svg11.dtd">
<svg width="386pt" height="163pt" viewBox="0 0 386 163" version="1.1" xmlns="http://www.w3.org/2000/svg">
<g id="#ff9190ff">
<path fill="#ff9190" opacity="1.00" d=" M 254.33 6.49 C 255.62 5.56 257.06 4.89 258.47 4.16 C 261.55 12.47 265.16 20.90 264.72 29.96 C 302.55 30.08 340.38 29.94 378.22 30.02 C 378.85 38.69 378.68 47.42 377.67 56.06 C 342.43 55.99 307.18 55.97 271.95 55.93 C 268.11 54.87 264.77 56.37 262.65 59.33 C 248.08 60.30 233.48 60.04 218.90 60.02 C 213.35 46.45 208.24 32.70 202.86 19.06 C 220.08 18.97 237.30 18.99 254.51 19.03 C 254.42 14.86 253.92 10.65 254.33 6.49 Z" />
</g>
<g id="#ffd488ff">
<path fill="#ffd488" opacity="1.00" d=" M 62.93 10.19 C 63.97 9.82 65.01 9.45 66.06 9.07 C 66.54 9.17 67.50 9.37 67.98 9.47 C 78.06 35.75 88.58 61.88 98.27 88.31 C 98.23 89.90 98.17 91.50 98.09 93.09 C 95.01 88.69 94.35 83.29 93.34 78.14 C 92.66 78.06 91.29 77.89 90.60 77.81 C 89.03 82.30 87.58 86.83 86.37 91.44 C 93.22 92.49 100.13 93.12 107.04 93.62 C 107.37 94.43 107.70 95.23 108.03 96.04 C 100.22 95.96 92.41 95.83 84.61 95.49 C 74.76 69.98 64.83 44.51 55.10 18.96 C 56.73 18.92 59.99 18.86 61.63 18.83 C 62.02 15.94 62.45 13.06 62.93 10.19 Z" />
</g>
<g id="#ffce89ff">
<path fill="#ffce89" opacity="1.00" d=" M 67.98 9.47 C 72.18 9.21 76.30 10.15 80.18 11.67 C 80.01 13.69 79.56 15.75 80.00 17.76 C 81.45 18.62 83.06 19.17 84.62 19.81 C 92.11 39.22 99.64 58.62 107.13 78.03 C 104.45 78.09 101.76 78.16 99.08 78.24 C 98.70 81.58 98.38 84.94 98.27 88.31 C 88.58 61.88 78.06 35.75 67.98 9.47 Z" />
</g>
<g id="#fee186fe">
<path fill="#fee186" opacity="1.00" d=" M 31.22 31.84 C 32.46 26.90 34.02 21.98 36.59 17.56 C 40.20 25.72 43.20 34.13 46.51 42.42 C 49.58 50.55 53.21 58.52 55.21 67.02 C 48.63 66.19 41.49 67.56 35.36 64.46 C 31.94 62.78 28.00 63.02 24.31 62.43 C 25.09 58.40 26.41 54.50 27.50 50.55 C 25.56 53.00 23.48 55.53 22.81 58.66 C 21.02 67.18 20.32 75.89 18.49 84.41 C 17.86 87.16 16.88 90.00 14.71 91.93 C 11.94 92.12 8.69 92.44 6.27 90.73 C 4.08 86.31 5.67 80.98 6.14 76.36 C 8.85 60.96 7.58 45.24 8.51 29.71 C 16.09 30.26 23.66 31.06 31.22 31.84 Z" />
</g>
<g id="#fedb87fe">
<path fill="#fedb87" opacity="1.00" d=" M 36.59 17.56 C 42.66 17.81 48.74 17.99 54.81 18.17 L 55.10 18.96 C 64.83 44.51 74.76 69.98 84.61 95.49 C 81.58 103.10 78.65 110.75 75.90 118.46 C 71.55 105.83 65.30 93.83 62.12 80.81 C 62.02 75.28 59.39 70.44 55.21 67.02 C 53.21 58.52 49.58 50.55 46.51 42.42 C 43.20 34.13 40.20 25.72 36.59 17.56 Z" />
</g>
<g id="#ffc889ff">
<path fill="#ffc889" opacity="1.00" d=" M 84.62 19.81 C 88.39 19.33 92.17 18.90 95.93 18.33 C 101.47 32.69 107.08 47.02 112.58 61.39 C 115.38 68.82 118.90 76.03 120.69 83.79 C 119.44 88.11 117.03 92.00 115.03 96.01 C 113.28 96.02 109.78 96.03 108.03 96.04 C 107.70 95.23 107.37 94.43 107.04 93.62 C 115.01 93.20 115.02 83.70 117.71 78.10 C 114.17 78.07 110.66 77.99 107.13 78.03 C 99.64 58.62 92.11 39.22 84.62 19.81 Z" />
</g>
<g id="#ffc28aff">
<path fill="#ffc28a" opacity="1.00" d=" M 95.93 18.33 C 99.63 18.14 103.35 17.97 107.06 17.70 C 114.19 35.43 120.63 53.43 127.89 71.11 C 129.19 74.38 130.51 77.67 131.32 81.11 C 131.15 83.30 130.55 85.43 130.14 87.59 C 129.79 84.04 129.62 80.51 129.41 76.96 C 125.79 78.25 123.08 80.92 120.69 83.79 C 118.90 76.03 115.38 68.82 112.58 61.39 C 107.08 47.02 101.47 32.69 95.93 18.33 Z" />
</g>
<g id="#ffbc8bff">
<path fill="#ffbc8b" opacity="1.00" d=" M 107.06 17.70 C 110.22 18.23 113.90 17.41 116.78 19.15 C 122.28 31.65 126.71 44.59 131.75 57.29 C 135.46 67.25 139.80 76.98 143.04 87.11 C 141.35 84.25 139.90 81.26 138.53 78.24 C 136.96 78.19 133.83 78.10 132.26 78.05 C 132.03 78.81 131.55 80.34 131.32 81.11 C 130.51 77.67 129.19 74.38 127.89 71.11 C 120.63 53.43 114.19 35.43 107.06 17.70 Z" />
</g>
<g id="#ffb78bff">
<path fill="#ffb78b" opacity="1.00" d=" M 116.78 19.15 C 119.87 19.08 122.99 19.01 126.09 18.94 C 143.08 61.84 159.32 105.04 176.17 147.99 C 162.12 129.55 151.65 108.55 143.04 87.11 C 139.80 76.98 135.46 67.25 131.75 57.29 C 126.71 44.59 122.28 31.65 116.78 19.15 Z" />
</g>
<g id="#ffb38cff">
<path fill="#ffb38c" opacity="1.00" d=" M 126.09 18.94 C 128.68 18.99 131.27 19.03 133.87 19.07 C 149.24 59.31 164.92 99.43 180.36 139.64 C 182.50 145.38 185.16 150.94 186.78 156.87 C 186.06 157.95 185.23 158.94 184.42 159.96 C 181.58 156.04 178.26 152.38 176.17 147.99 C 159.32 105.04 143.08 61.84 126.09 18.94 Z" />
</g>
<g id="#ffae8dff">
<path fill="#ffae8d" opacity="1.00" d=" M 133.87 19.07 C 137.59 19.03 141.34 19.00 145.07 18.95 C 150.78 32.50 155.77 46.34 161.19 60.00 C 159.24 58.33 157.24 56.72 155.13 55.27 C 156.03 58.03 156.96 60.80 157.90 63.55 C 160.47 67.84 158.20 72.93 160.60 77.27 C 169.33 102.60 184.75 124.81 200.28 146.38 C 195.92 150.05 191.60 153.81 186.78 156.87 C 185.16 150.94 182.50 145.38 180.36 139.64 C 164.92 99.43 149.24 59.31 133.87 19.07 Z" />
</g>
<g id="#ffa78eff">
<path fill="#ffa78e" opacity="1.00" d=" M 145.07 18.95 C 149.94 19.00 154.81 19.03 159.68 19.06 C 164.47 32.83 170.07 46.29 175.14 59.96 C 170.48 59.99 165.84 59.98 161.19 60.00 C 155.77 46.34 150.78 32.50 145.07 18.95 Z" />
</g>
<g id="#fea08ffe">
<path fill="#fea08f" opacity="1.00" d=" M 159.68 19.06 C 164.73 19.05 169.79 19.04 174.85 19.03 C 180.23 32.69 185.35 46.45 190.91 60.04 C 185.64 60.01 180.40 60.00 175.14 59.96 C 170.07 46.29 164.47 32.83 159.68 19.06 Z" />
</g>
<g id="#ff9a8fff">
<path fill="#ff9a8f" opacity="1.00" d=" M 174.85 19.03 C 179.92 19.01 185.00 19.00 190.08 18.97 C 195.81 32.47 200.69 46.32 206.14 59.94 C 201.05 59.97 195.98 60.00 190.91 60.04 C 185.35 46.45 180.23 32.69 174.85 19.03 Z" />
</g>
<g id="#ff9590ff">
<path fill="#ff9590" opacity="1.00" d=" M 190.08 18.97 C 194.33 18.99 198.60 19.02 202.86 19.06 C 208.24 32.70 213.35 46.45 218.90 60.02 C 214.64 59.99 210.39 59.97 206.14 59.94 C 200.69 46.32 195.81 32.47 190.08 18.97 Z" />
</g>
<g id="#fee187fe">
<path fill="#fee187" opacity="1.00" d=" M 43.66 119.38 C 45.92 105.00 54.26 92.68 62.12 80.81 C 65.30 93.83 71.55 105.83 75.90 118.46 C 74.92 123.51 74.30 129.65 69.80 132.84 C 60.45 129.79 52.44 123.70 43.66 119.38 Z" />
</g>
</svg>
