<?xml version="1.0" encoding="UTF-8" ?>
<!DOCTYPE svg PUBLIC "-//W3C//DTD SVG 1.1//EN" "http://www.w3.org/Graphics/SVG/1.1/DTD/svg11.dtd">
<svg width="204pt" height="133pt" viewBox="0 0 204 133" version="1.1" xmlns="http://www.w3.org/2000/svg">
<g id="#fec28afe">
<path fill="#fec28a" opacity="1.00" d=" M 33.24 6.34 C 34.82 6.10 36.43 5.97 38.03 5.96 C 43.73 7.47 45.43 13.17 47.17 17.98 C 50.82 28.75 55.16 39.29 58.35 50.21 C 55.59 50.25 52.82 50.24 50.06 50.16 C 44.32 35.62 40.29 20.34 33.24 6.34 Z" />
</g>
<g id="#febc8bfe">
<path fill="#febc8b" opacity="1.00" d=" M 38.03 5.96 C 42.38 5.97 46.72 6.11 51.07 6.26 C 56.50 20.87 61.86 35.50 67.17 50.16 C 64.22 50.17 61.29 50.18 58.35 50.21 C 55.16 39.29 50.82 28.75 47.17 17.98 C 45.43 13.17 43.73 7.47 38.03 5.96 Z" />
</g>
<g id="#ffb58cff">
<path fill="#ffb58c" opacity="1.00" d=" M 51.07 6.26 C 53.66 6.39 56.25 6.59 58.84 6.72 C 66.91 30.53 75.98 53.97 84.42 77.65 C 90.67 94.37 96.09 111.42 103.37 127.74 C 100.66 127.77 97.98 127.83 95.29 127.88 C 87.45 105.25 79.12 82.78 70.51 60.43 C 70.81 56.98 71.17 53.55 71.53 50.11 C 70.07 50.13 68.62 50.15 67.17 50.16 C 61.86 35.50 56.50 20.87 51.07 6.26 Z" />
</g>
<g id="#fec989fe">
<path fill="#fec989" opacity="1.00" d=" M 25.06 8.72 C 27.76 7.83 30.48 7.02 33.24 6.34 C 40.29 20.34 44.32 35.62 50.06 50.16 C 47.02 50.06 43.99 49.97 40.95 49.86 C 35.83 36.08 31.18 22.11 25.06 8.72 Z" />
</g>
<g id="#ffaf8dff">
<path fill="#ffaf8d" opacity="1.00" d=" M 58.84 6.72 C 60.63 6.79 64.23 6.92 66.02 6.98 C 77.32 37.74 88.38 68.58 99.83 99.28 C 101.19 108.74 102.78 118.18 103.37 127.74 C 96.09 111.42 90.67 94.37 84.42 77.65 C 75.98 53.97 66.91 30.53 58.84 6.72 Z" />
</g>
<g id="#ffaa8eff">
<path fill="#ffaa8e" opacity="1.00" d=" M 66.02 6.98 C 67.70 7.01 71.04 7.06 72.72 7.09 C 81.44 33.03 91.77 58.41 100.61 84.30 C 100.60 89.30 100.00 94.28 99.83 99.28 C 88.38 68.58 77.32 37.74 66.02 6.98 Z" />
</g>
<g id="#ffa48eff">
<path fill="#ffa48e" opacity="1.00" d=" M 72.72 7.09 C 75.42 7.10 78.13 7.09 80.83 7.07 C 87.02 25.65 94.44 43.79 100.74 62.32 C 100.85 69.65 100.70 76.97 100.61 84.30 C 91.77 58.41 81.44 33.03 72.72 7.09 Z" />
</g>
<g id="#ff9d8fff">
<path fill="#ff9d8f" opacity="1.00" d=" M 80.83 7.07 C 84.24 7.05 87.63 7.03 91.04 7.02 C 95.70 18.77 99.90 30.69 103.76 42.72 C 104.55 45.01 105.49 47.24 106.43 49.47 C 107.63 52.32 108.85 55.17 110.05 58.02 C 106.93 58.00 103.83 57.99 100.72 57.97 C 100.72 59.42 100.73 60.87 100.74 62.32 C 94.44 43.79 87.02 25.65 80.83 7.07 Z" />
</g>
<g id="#ff9690ff">
<path fill="#ff9690" opacity="1.00" d=" M 91.04 7.02 C 95.63 7.02 100.23 7.05 104.83 7.05 C 110.77 24.18 117.00 41.21 123.41 58.16 C 118.95 58.11 114.50 58.06 110.05 58.02 C 108.85 55.17 107.63 52.32 106.43 49.47 C 108.23 49.23 110.04 48.99 111.85 48.76 C 112.29 46.91 112.73 45.07 113.17 43.23 C 110.02 43.06 106.90 42.90 103.76 42.72 C 99.90 30.69 95.70 18.77 91.04 7.02 Z" />
</g>
<g id="#fe9190fe">
<path fill="#fe9190" opacity="1.00" d=" M 104.83 7.05 C 122.18 7.16 139.58 6.14 156.90 7.58 C 163.15 8.10 168.58 11.45 174.53 13.07 C 175.53 17.39 176.49 21.71 177.43 26.04 C 186.26 26.95 195.13 26.99 204.00 27.20 L 204.00 39.05 C 198.24 39.65 192.33 39.49 186.66 40.71 C 184.95 42.21 183.79 44.21 182.42 46.00 C 180.79 44.11 179.20 42.20 177.62 40.28 C 176.12 40.93 174.62 41.59 173.13 42.24 C 172.98 59.15 172.99 76.07 172.94 92.98 C 167.97 91.61 158.68 94.03 156.86 87.18 C 155.07 73.14 156.11 58.90 155.98 44.79 C 149.29 44.74 142.62 44.83 135.95 45.07 C 127.36 42.94 126.59 52.97 123.41 58.16 C 117.00 41.21 110.77 24.18 104.83 7.05 Z" />
</g>
<g id="#fed089fe">
<path fill="#fed089" opacity="1.00" d=" M 17.75 13.11 C 19.91 11.23 22.34 9.65 25.06 8.72 C 31.18 22.11 35.83 36.08 40.95 49.86 C 37.60 49.76 34.26 49.59 30.92 49.61 C 26.46 37.47 21.88 25.37 17.75 13.11 Z" />
</g>
<g id="#ffd888ff">
<path fill="#ffd888" opacity="1.00" d=" M 14.70 15.64 C 15.46 15.01 16.99 13.74 17.75 13.11 C 21.88 25.37 26.46 37.47 30.92 49.61 C 27.26 49.94 23.96 51.75 20.54 52.95 C 16.36 41.20 11.79 29.57 7.16 17.99 C 9.70 17.30 12.23 16.56 14.70 15.64 Z" />
</g>
<g id="#ffdf87ff">
<path fill="#ffdf87" opacity="1.00" d=" M 0.00 20.25 C 2.36 19.43 4.74 18.65 7.16 17.99 C 11.79 29.57 16.36 41.20 20.54 52.95 C 20.14 59.59 18.00 65.93 16.13 72.25 C 11.11 71.93 6.10 71.52 1.09 71.10 C 1.13 54.84 1.08 38.57 0.00 22.34 L 0.00 20.25 Z" />
</g>
<g id="#ffbb8bff">
<path fill="#ffbb8b" opacity="1.00" d=" M 72.56 91.11 C 67.19 81.70 69.55 70.64 70.51 60.43 C 79.12 82.78 87.45 105.25 95.29 127.88 C 92.56 127.94 89.83 128.02 87.10 128.13 C 82.60 115.66 78.37 103.05 72.56 91.11 Z" />
</g>
<g id="#ffc38aff">
<path fill="#ffc38a" opacity="1.00" d=" M 72.56 91.11 C 78.37 103.05 82.60 115.66 87.10 128.13 C 83.26 128.34 79.42 128.67 75.59 128.98 C 72.70 116.58 73.34 103.73 72.56 91.11 Z" />
</g>
</svg>
