<?xml version="1.0" encoding="UTF-8" ?>
<!DOCTYPE svg PUBLIC "-//W3C//DTD SVG 1.1//EN" "http://www.w3.org/Graphics/SVG/1.1/DTD/svg11.dtd">
<svg width="307pt" height="133pt" viewBox="0 0 307 133" version="1.1" xmlns="http://www.w3.org/2000/svg">
<g id="#ffbb8cff">
<path fill="#ffbb8c" opacity="1.00" d=" M 134.42 6.99 C 135.78 7.00 137.14 7.00 138.50 7.01 C 140.23 8.83 142.23 10.95 144.94 10.97 C 151.61 11.09 158.28 10.96 164.94 11.00 C 165.19 19.99 164.86 28.99 165.07 37.98 C 166.89 50.91 165.53 63.99 166.11 76.98 C 168.34 93.58 165.59 110.42 168.13 127.00 C 165.09 126.99 162.06 127.00 159.02 127.00 C 159.01 126.50 158.99 125.50 158.98 125.00 C 156.46 125.00 153.94 125.00 151.42 125.00 C 150.62 124.18 149.81 123.36 149.00 122.54 C 149.08 114.61 148.82 106.67 149.15 98.74 C 150.51 95.94 149.84 92.74 150.17 89.75 C 151.01 87.51 151.05 85.09 151.56 82.77 C 152.60 80.82 153.13 78.68 153.68 76.56 C 155.73 73.61 156.44 70.18 156.00 66.63 C 154.42 65.05 153.44 63.04 152.61 61.00 C 146.15 61.00 139.69 61.00 133.23 61.00 C 132.54 54.35 131.70 47.70 132.02 41.01 C 131.74 31.33 132.78 21.58 131.12 11.99 C 131.08 11.63 131.02 10.89 130.99 10.53 C 132.11 9.33 133.27 8.17 134.42 6.99 Z" />
</g>
<g id="#ffb08dff">
<path fill="#ffb08d" opacity="1.00" d=" M 164.94 11.00 C 173.60 10.99 182.27 11.01 190.93 11.00 C 193.03 21.21 191.76 31.67 192.01 42.01 C 191.44 49.39 193.45 56.64 193.08 64.01 C 192.91 72.25 193.09 80.49 193.10 88.73 C 192.82 92.06 193.61 95.62 192.15 98.75 C 191.78 106.18 192.12 113.62 192.00 121.06 C 191.97 122.32 191.72 123.53 191.25 124.71 C 191.16 125.28 190.98 126.43 190.89 127.00 C 183.30 126.99 175.72 127.00 168.13 127.00 C 165.59 110.42 168.34 93.58 166.11 76.98 C 165.53 63.99 166.89 50.91 165.07 37.98 C 164.86 28.99 165.19 19.99 164.94 11.00 Z" />
</g>
<g id="#ffa28fff">
<path fill="#ffa28f" opacity="1.00" d=" M 190.93 11.00 C 206.95 10.99 222.97 11.01 238.99 11.00 C 238.26 20.05 240.63 28.96 239.98 38.01 C 240.17 47.33 239.34 56.73 240.56 66.00 C 239.55 66.85 238.50 67.66 237.44 68.45 C 236.15 70.44 234.48 72.14 232.66 73.65 C 231.45 74.42 230.29 75.28 229.16 76.17 C 228.30 75.89 227.46 75.58 226.63 75.26 C 225.57 75.60 224.51 75.92 223.44 76.23 C 222.50 76.77 221.56 77.31 220.62 77.86 C 218.16 79.09 215.40 79.03 212.74 79.22 C 209.09 80.45 204.89 80.49 201.26 79.20 C 200.18 79.10 199.11 79.01 198.04 78.92 C 197.99 78.31 197.88 77.08 197.82 76.47 C 196.10 77.18 195.03 78.62 194.45 80.35 C 193.89 83.13 194.41 86.13 193.10 88.73 C 193.09 80.49 192.91 72.25 193.08 64.01 C 193.45 56.64 191.44 49.39 192.01 42.01 C 191.76 31.67 193.03 21.21 190.93 11.00 M 210.17 57.00 C 210.29 58.33 209.92 59.42 209.05 60.27 C 210.58 62.78 209.66 66.04 211.68 68.42 C 212.12 70.12 213.82 72.02 215.50 70.31 C 216.49 70.01 217.47 69.69 218.44 69.35 C 218.94 69.10 219.94 68.60 220.44 68.35 C 222.68 67.18 224.28 65.15 226.16 63.51 C 226.35 60.16 222.89 58.88 220.43 57.64 C 217.21 56.30 213.56 57.28 210.17 57.00 M 200.09 66.53 C 201.72 69.01 204.78 69.70 207.22 71.10 C 205.83 67.87 203.14 65.44 202.77 61.73 C 201.54 63.08 199.18 64.34 200.09 66.53 Z" />
</g>
<g id="#ff9391ff">
<path fill="#ff9391" opacity="1.00" d=" M 238.99 11.00 C 249.32 11.01 259.66 10.97 269.99 11.00 C 271.65 10.93 273.19 11.58 274.74 12.08 C 275.02 12.71 275.56 13.98 275.84 14.61 C 275.93 15.05 276.12 15.93 276.22 16.37 C 276.78 18.12 277.22 19.90 277.81 21.65 C 277.86 22.13 277.98 23.09 278.03 23.57 C 278.79 24.70 279.47 25.90 280.40 26.90 C 287.61 27.23 294.83 26.85 302.05 27.00 C 303.78 26.93 305.38 27.66 307.00 28.19 L 307.00 47.00 C 300.92 46.97 294.84 47.08 288.77 46.91 C 289.43 48.07 290.09 49.24 290.74 50.41 C 291.03 50.95 291.62 52.04 291.91 52.58 C 291.95 53.06 292.02 54.02 292.06 54.50 C 292.66 55.46 293.27 56.41 293.89 57.37 C 295.53 60.68 294.93 64.45 295.00 68.01 C 292.47 68.00 289.92 68.13 287.40 67.89 C 286.43 66.98 285.89 65.75 285.20 64.63 C 284.58 63.26 283.94 61.89 283.31 60.53 C 282.48 59.01 281.96 57.23 280.57 56.11 C 278.39 55.88 276.19 55.99 274.01 55.97 C 274.27 60.21 273.20 64.72 274.85 68.76 C 275.54 75.05 274.11 81.53 275.69 87.70 C 275.89 88.57 276.10 89.44 276.31 90.31 C 276.93 92.76 277.02 95.31 277.76 97.74 C 278.02 100.08 277.80 102.55 278.84 104.74 C 279.13 109.34 278.97 113.95 279.00 118.56 C 278.18 119.37 277.37 120.18 276.56 121.00 C 273.46 121.10 270.16 120.46 267.25 121.85 C 264.11 122.07 260.97 122.02 257.83 121.91 C 258.36 122.94 258.88 123.98 259.40 125.02 C 258.71 125.00 257.33 124.95 256.64 124.92 C 255.98 124.60 254.68 123.95 254.03 123.63 C 253.99 123.13 253.91 122.14 253.87 121.64 C 253.43 120.63 253.01 119.62 252.61 118.60 C 252.13 116.49 251.86 114.33 251.19 112.27 C 250.92 109.59 251.35 106.76 250.15 104.25 C 249.78 98.76 250.21 93.25 249.85 87.75 C 247.80 81.55 249.88 74.79 248.63 68.41 C 247.07 65.20 243.49 66.01 240.56 66.00 C 239.34 56.73 240.17 47.33 239.98 38.01 C 240.63 28.96 238.26 20.05 238.99 11.00 Z" />
</g>
<g id="#ffc98aff">
<path fill="#ffc98a" opacity="1.00" d=" M 108.64 12.05 C 116.13 11.93 123.62 12.05 131.12 11.99 C 132.78 21.58 131.74 31.33 132.02 41.01 C 131.70 47.70 132.54 54.35 133.23 61.00 C 123.82 60.99 114.42 61.01 105.01 61.00 C 105.38 50.97 103.34 41.04 104.03 31.00 C 104.52 31.00 105.51 31.00 106.00 31.00 C 106.00 25.13 106.00 19.26 106.00 13.39 C 106.66 13.06 107.98 12.39 108.64 12.05 Z" />
</g>
<g id="#ffe287ff">
<path fill="#ffe287" opacity="1.00" d=" M 3.40 29.95 C 3.88 30.02 4.82 30.16 5.29 30.23 C 6.62 30.67 7.98 31.04 9.33 31.43 C 11.81 32.14 14.42 32.03 16.98 32.03 C 30.33 31.93 43.68 32.09 57.02 31.96 C 57.02 35.30 57.02 38.64 57.01 41.99 C 42.69 42.01 28.37 42.00 14.05 42.00 C 13.35 53.79 12.22 65.58 10.78 77.32 C 10.21 79.07 9.78 80.86 9.23 82.61 C 9.11 83.05 8.86 83.93 8.74 84.37 C 8.35 85.60 7.99 86.83 7.66 88.07 C 5.62 87.96 3.58 87.81 1.54 87.65 C 0.73 82.11 1.04 76.51 1.01 70.93 C 1.04 57.93 0.97 44.93 1.01 31.93 C 1.81 31.27 2.61 30.61 3.40 29.95 Z" />
</g>
<g id="#ffda88ff">
<path fill="#ffda88" opacity="1.00" d=" M 58.27 31.68 C 66.70 30.14 75.42 31.42 83.97 31.00 C 83.99 34.65 84.01 38.31 84.01 41.96 C 81.42 42.07 78.65 41.59 76.25 42.85 C 71.95 42.80 67.35 43.84 63.26 42.14 C 61.18 42.02 59.09 41.99 57.01 41.99 C 57.02 38.64 57.02 35.30 57.02 31.96 C 57.34 31.89 57.96 31.75 58.27 31.68 Z" />
</g>
<g id="#ffd189ff">
<path fill="#ffd189" opacity="1.00" d=" M 83.97 31.00 C 90.65 31.00 97.34 31.00 104.03 31.00 C 103.34 41.04 105.38 50.97 105.01 61.00 C 103.55 60.99 102.10 60.97 100.64 60.94 C 99.98 60.61 98.66 59.94 98.00 59.61 C 98.00 54.48 98.00 49.35 98.00 44.23 C 95.46 44.19 93.20 43.07 90.90 42.15 C 88.62 41.87 86.31 42.00 84.01 41.96 C 84.01 38.31 83.99 34.65 83.97 31.00 Z" />
</g>
</svg>
