<?xml version="1.0" encoding="UTF-8" ?>
<!DOCTYPE svg PUBLIC "-//W3C//DTD SVG 1.1//EN" "http://www.w3.org/Graphics/SVG/1.1/DTD/svg11.dtd">
<svg width="340pt" height="133pt" viewBox="0 0 340 133" version="1.1" xmlns="http://www.w3.org/2000/svg">
<g id="#ffa58eff">
<path fill="#ffa58e" opacity="1.00" d=" M 169.54 0.00 L 172.21 0.00 C 173.69 0.97 175.19 3.19 176.91 0.92 C 178.18 1.14 179.46 1.38 180.71 1.71 C 181.58 1.89 182.46 2.07 183.34 2.24 C 185.08 2.78 186.87 3.19 188.63 3.70 C 189.98 4.01 191.33 4.32 192.66 4.71 C 193.08 4.84 193.94 5.11 194.36 5.25 C 196.11 5.79 197.90 6.22 199.65 6.77 C 200.08 6.87 200.94 7.05 201.37 7.14 C 202.03 7.45 203.34 8.06 204.00 8.37 C 204.00 13.25 203.99 18.12 204.00 23.00 C 201.00 23.00 198.00 23.00 195.00 23.00 L 195.00 24.00 C 202.97 24.00 210.93 24.01 218.90 24.00 C 221.05 35.98 222.87 48.02 225.03 60.00 C 221.35 59.99 217.68 59.99 214.00 60.00 C 214.00 58.66 214.00 57.33 214.00 56.00 C 201.73 56.00 189.46 56.01 177.18 56.00 C 175.97 45.27 173.85 34.67 172.08 24.03 L 171.96 23.13 C 173.38 23.00 174.80 22.90 176.23 22.78 C 178.48 21.83 180.95 22.01 183.34 21.86 C 182.83 19.97 182.10 18.14 181.32 16.35 C 180.00 14.62 178.61 12.93 177.46 11.08 C 175.44 11.00 173.42 10.91 171.42 10.67 C 169.62 9.48 168.68 7.70 168.75 5.54 C 169.46 4.93 170.18 4.32 170.89 3.71 C 170.42 2.48 169.97 1.24 169.54 0.00 Z" />
</g>
<g id="#ffca8aff">
<path fill="#ffca8a" opacity="1.00" d=" M 83.40 19.09 C 84.79 14.62 90.68 14.72 93.92 17.07 C 94.28 17.18 95.02 17.41 95.38 17.52 C 101.07 18.51 106.87 17.80 112.60 18.00 C 112.93 18.67 113.60 20.00 113.93 20.66 C 113.97 21.78 114.00 22.89 114.03 24.01 C 116.31 24.01 118.58 24.01 120.86 24.00 C 122.56 39.12 125.77 54.01 128.31 69.00 C 126.91 68.98 125.52 68.97 124.12 68.97 C 124.03 69.55 123.83 70.69 123.73 71.26 C 123.09 73.20 122.96 75.24 122.71 77.24 C 122.11 79.19 121.96 81.23 121.71 83.24 C 120.91 85.41 120.99 87.73 120.90 90.00 C 113.26 90.00 105.63 90.00 98.00 90.00 C 98.03 85.27 97.88 80.53 98.14 75.79 C 99.48 73.06 98.90 69.93 99.02 67.00 C 98.38 67.00 97.09 67.00 96.45 67.00 C 96.02 66.60 95.16 65.81 94.73 65.41 C 92.16 64.73 91.73 62.31 91.80 60.00 C 91.11 60.00 89.74 60.00 89.06 60.00 C 89.04 59.50 89.01 58.50 89.00 58.00 C 88.92 51.22 87.15 44.65 86.17 37.99 C 85.07 31.68 84.23 25.32 82.97 19.05 L 83.40 19.09 Z" />
</g>
<g id="#ffd489ff">
<path fill="#ffd489" opacity="1.00" d=" M 81.01 18.87 C 81.50 18.91 82.48 19.00 82.97 19.05 C 84.23 25.32 85.07 31.68 86.17 37.99 C 87.15 44.65 88.92 51.22 89.00 58.00 C 82.08 58.00 75.15 58.00 68.23 58.00 C 66.97 48.30 64.75 38.74 63.78 29.00 C 67.85 29.00 71.92 29.00 76.00 29.00 C 76.00 28.36 76.00 27.09 76.00 26.45 C 76.82 25.64 77.64 24.82 78.45 24.00 C 79.09 24.00 80.36 24.00 81.00 24.00 C 81.00 22.29 81.00 20.58 81.01 18.87 Z" />
</g>
<g id="#ff9990ff">
<path fill="#ff9990" opacity="1.00" d=" M 226.00 18.93 C 228.09 19.13 230.39 18.59 232.34 19.55 C 232.73 20.58 233.05 21.64 233.29 22.71 C 233.69 23.13 234.49 23.96 234.89 24.37 C 235.08 26.05 234.74 27.89 235.60 29.42 C 238.51 30.61 241.83 29.79 244.91 30.01 C 245.35 33.00 245.79 36.00 246.21 39.00 C 245.66 39.00 244.55 39.00 244.00 39.00 C 243.99 40.66 243.99 42.32 244.00 43.98 C 244.50 43.99 245.50 44.01 246.00 44.02 C 245.99 49.01 245.99 53.99 246.00 58.98 C 245.49 58.99 244.46 59.01 243.94 59.02 C 244.04 61.62 243.67 64.37 244.85 66.79 C 245.20 85.00 244.90 103.22 245.00 121.43 C 241.63 122.26 241.75 125.49 241.99 128.31 C 242.35 128.98 243.05 130.31 243.41 130.97 C 240.79 131.01 238.18 131.01 235.57 130.97 C 235.95 130.29 236.70 128.95 237.08 128.27 C 236.95 126.56 236.91 124.81 236.15 123.23 C 235.80 104.50 236.10 85.76 236.00 67.02 C 235.50 67.01 234.51 66.99 234.01 66.99 C 233.98 64.49 234.17 61.98 233.84 59.50 C 233.47 57.86 231.29 58.25 230.11 57.63 C 230.08 58.23 230.00 59.41 229.96 60.00 C 228.31 60.00 226.67 60.00 225.03 60.00 C 222.87 48.02 221.05 35.98 218.90 24.00 C 220.00 24.00 222.20 24.00 223.30 24.00 L 222.04 22.38 C 222.80 22.78 224.32 23.57 225.08 23.97 L 223.63 21.23 C 224.23 21.14 225.42 20.96 226.01 20.88 C 226.01 20.39 226.00 19.41 226.00 18.93 M 224.48 24.24 C 224.77 24.56 224.77 24.56 224.48 24.24 Z" />
</g>
<g id="#ffb98cff">
<path fill="#ffb98c" opacity="1.00" d=" M 125.36 22.00 C 131.64 22.07 137.93 21.84 144.20 22.15 C 150.30 24.10 156.90 22.37 163.20 23.15 C 165.98 24.47 169.12 23.93 172.08 24.03 C 173.85 34.67 175.97 45.27 177.18 56.00 C 175.34 55.99 173.49 56.01 171.65 56.04 C 172.02 57.28 172.42 58.52 172.86 59.74 C 172.93 61.16 172.99 62.57 173.05 63.99 C 173.54 64.00 174.51 64.02 175.00 64.03 C 174.98 80.02 175.00 96.01 174.99 112.00 C 162.22 111.97 149.44 112.05 136.67 111.96 C 136.00 111.62 134.67 110.95 134.00 110.61 C 133.98 96.41 134.03 82.21 133.97 68.02 C 134.02 65.60 133.61 62.98 135.10 60.87 C 133.03 60.96 130.95 61.01 128.88 61.05 C 128.98 61.60 129.17 62.70 129.26 63.25 C 129.95 65.11 130.01 67.10 130.17 69.06 C 129.71 69.04 128.77 69.01 128.31 69.00 C 125.77 54.01 122.56 39.12 120.86 24.00 C 121.55 24.00 122.94 24.00 123.63 24.00 C 124.07 23.50 124.93 22.50 125.36 22.00 Z" />
</g>
<g id="#32240f40">
<path fill="#32240f" opacity="0.25" d=" M 236.22 23.26 C 236.68 23.75 236.68 23.75 236.22 23.26 Z" />
</g>
<g id="#ffdb88ff">
<path fill="#ffdb88" opacity="1.00" d=" M 49.80 29.14 C 54.45 28.88 59.12 29.03 63.78 29.00 C 64.75 38.74 66.97 48.30 68.23 58.00 C 67.42 58.00 65.81 58.00 65.01 58.00 C 65.00 57.25 65.00 55.75 65.00 55.00 C 61.56 54.99 58.12 54.98 54.68 55.04 C 54.01 55.38 52.67 56.06 52.00 56.40 C 52.00 56.64 52.00 57.14 52.00 57.39 C 49.61 58.84 47.67 60.88 45.35 62.42 C 44.64 63.04 43.92 63.67 43.21 64.29 C 41.84 57.15 40.45 50.01 39.65 42.78 C 40.71 41.93 41.82 41.15 42.97 40.42 L 43.04 39.87 C 42.22 39.95 40.56 40.11 39.73 40.19 C 38.59 36.87 37.74 33.45 37.13 30.00 C 41.33 29.71 45.80 30.81 49.80 29.14 Z" />
</g>
<g id="#ffe287ff">
<path fill="#ffe287" opacity="1.00" d=" M 7.80 30.15 C 17.57 29.81 27.35 30.10 37.13 30.00 C 37.74 33.45 38.59 36.87 39.73 40.19 L 39.96 40.96 C 31.28 40.83 22.60 41.06 13.93 40.84 C 14.38 42.11 14.82 43.39 15.20 44.69 C 15.64 45.12 16.52 45.97 16.96 46.39 C 17.01 46.86 17.11 47.80 17.16 48.27 C 17.92 50.22 18.56 52.22 19.19 54.22 C 20.27 53.30 21.36 52.39 22.47 51.51 C 23.53 51.27 24.60 51.05 25.66 50.83 C 26.06 50.46 26.85 49.72 27.25 49.35 C 28.77 48.49 30.23 47.51 31.75 46.65 C 32.16 46.27 32.96 45.53 33.36 45.15 C 34.72 44.97 36.09 44.79 37.44 44.53 C 38.18 43.95 38.92 43.37 39.65 42.78 C 40.45 50.01 41.84 57.15 43.21 64.29 C 42.31 65.05 41.37 65.77 40.40 66.44 C 39.09 67.45 37.79 68.49 36.38 69.35 C 35.13 70.43 33.91 71.54 32.67 72.63 C 30.22 74.24 27.84 75.98 25.69 77.98 C 24.52 78.58 23.27 79.00 22.00 79.36 C 22.00 79.77 21.99 80.59 21.99 81.00 C 21.52 81.00 20.58 81.00 20.11 81.00 C 20.03 80.43 19.86 79.29 19.77 78.72 C 19.34 77.37 19.03 75.98 18.73 74.60 C 18.44 73.88 17.85 72.42 17.56 71.69 C 16.44 72.05 15.33 72.42 14.22 72.82 C 12.73 72.87 11.23 72.90 9.73 72.92 C 9.08 72.58 7.78 71.89 7.13 71.55 C 6.27 66.91 5.76 62.21 4.72 57.61 C 5.23 51.45 5.03 45.27 5.00 39.10 C 3.35 38.64 1.70 38.17 0.06 37.69 L 0.00 37.47 L 0.00 31.98 C 2.51 30.98 5.29 31.16 7.80 30.15 Z" />
</g>
<g id="#ff9191ff">
<path fill="#ff9191" opacity="1.00" d=" M 244.91 30.01 C 275.77 29.99 306.63 30.01 337.49 30.00 C 338.29 31.33 339.16 32.62 340.00 33.92 L 340.00 37.09 C 338.42 37.82 336.71 38.09 334.98 38.03 C 321.33 37.95 307.67 38.05 294.01 37.96 C 292.04 37.96 290.01 37.96 288.20 38.85 C 274.21 39.20 260.21 38.90 246.21 39.00 C 245.79 36.00 245.35 33.00 244.91 30.01 Z" />
</g>
<g id="#76796580">
<path fill="#767965" opacity="0.50" d=" M 0.06 37.69 C 1.70 38.17 3.35 38.64 5.00 39.10 C 5.03 45.27 5.23 51.45 4.72 57.61 C 3.88 54.63 2.94 51.67 1.95 48.73 L 3.03 49.38 C 2.39 47.81 1.75 46.24 1.11 44.67 L 2.67 43.93 L 0.33 43.93 L 1.61 43.53 C 1.09 41.59 0.57 39.64 0.06 37.69 Z" />
</g>
</svg>
