<?xml version="1.0" encoding="UTF-8" ?>
<!DOCTYPE svg PUBLIC "-//W3C//DTD SVG 1.1//EN" "http://www.w3.org/Graphics/SVG/1.1/DTD/svg11.dtd">
<svg width="418pt" height="133pt" viewBox="0 0 418 133" version="1.1" xmlns="http://www.w3.org/2000/svg">
<g id="#feb88cfe">
<path fill="#feb88c" opacity="1.00" d=" M 152.88 28.67 C 156.79 28.66 160.91 28.36 164.43 30.41 C 165.51 30.44 167.68 30.49 168.76 30.52 C 170.44 30.33 172.13 30.15 173.82 29.98 C 175.31 40.17 176.93 50.36 179.33 60.38 C 171.96 60.91 163.05 63.16 161.08 71.55 C 158.16 57.95 155.92 44.21 153.24 30.56 C 153.15 30.09 152.97 29.14 152.88 28.67 Z" />
</g>
<g id="#febe8bfe">
<path fill="#febe8b" opacity="1.00" d=" M 133.63 35.89 C 139.80 33.02 146.22 30.14 153.24 30.56 C 155.92 44.21 158.16 57.95 161.08 71.55 C 157.18 70.63 152.80 70.24 150.14 66.90 C 148.72 68.62 147.29 70.33 145.85 72.03 C 144.25 69.44 142.18 67.19 139.32 66.00 C 137.39 55.97 135.46 45.94 133.63 35.89 Z" />
</g>
<g id="#5b533b60">
<path fill="#5b533b" opacity="0.38" d=" M 164.43 30.41 C 164.92 28.41 168.21 28.70 168.76 30.52 C 167.68 30.49 165.51 30.44 164.43 30.41 Z" />
</g>
<g id="#feb18dfe">
<path fill="#feb18d" opacity="1.00" d=" M 173.82 29.98 C 180.53 29.98 187.26 30.00 193.98 29.93 C 195.97 40.24 197.94 50.56 199.97 60.87 C 193.23 61.19 186.50 61.75 179.76 62.15 C 179.65 61.70 179.44 60.82 179.33 60.38 C 176.93 50.36 175.31 40.17 173.82 29.98 Z" />
</g>
<g id="#ffaa8dff">
<path fill="#ffaa8d" opacity="1.00" d=" M 193.98 29.93 C 201.36 29.90 208.69 30.88 216.00 31.85 C 217.93 41.82 219.50 51.88 222.18 61.69 C 214.77 61.52 207.37 61.16 199.97 60.87 C 197.94 50.56 195.97 40.24 193.98 29.93 Z" />
</g>
<g id="#ff9190ff">
<path fill="#ff9190" opacity="1.00" d=" M 377.05 34.13 C 383.02 36.08 386.66 30.36 392.13 29.97 C 398.21 28.78 403.43 32.57 408.98 34.16 C 414.52 35.86 410.83 43.04 410.05 46.99 C 393.82 47.12 377.57 46.43 361.39 47.79 C 361.59 50.88 361.80 53.97 361.99 57.06 C 338.88 63.91 314.63 61.84 290.88 61.97 C 289.07 52.69 287.20 43.40 285.74 34.05 C 316.18 33.90 346.61 33.99 377.05 34.13 Z" />
</g>
<g id="#ffa38eff">
<path fill="#ffa38e" opacity="1.00" d=" M 216.00 31.85 C 222.91 32.60 229.81 33.51 236.74 34.16 C 238.41 45.59 240.60 56.93 242.85 68.26 C 235.50 68.41 227.04 68.32 222.18 61.69 C 219.50 51.88 217.93 41.82 216.00 31.85 Z" />
</g>
<g id="#ff9d8fff">
<path fill="#ff9d8f" opacity="1.00" d=" M 236.74 34.16 C 244.07 34.06 251.41 34.04 258.75 34.01 C 260.44 44.57 262.49 55.07 264.10 65.64 C 257.04 66.69 249.96 67.58 242.85 68.26 C 240.60 56.93 238.41 45.59 236.74 34.16 Z" />
</g>
<g id="#ff9790ff">
<path fill="#ff9790" opacity="1.00" d=" M 258.75 34.01 C 267.74 33.97 276.74 33.98 285.74 34.05 C 287.20 43.40 289.07 52.69 290.88 61.97 C 281.93 63.06 272.96 63.95 264.10 65.64 C 262.49 55.07 260.44 44.57 258.75 34.01 Z" />
</g>
<g id="#ffc58aff">
<path fill="#ffc58a" opacity="1.00" d=" M 116.90 42.26 C 122.39 39.91 127.96 37.77 133.63 35.89 C 135.46 45.94 137.39 55.97 139.32 66.00 C 133.22 67.42 126.65 68.42 121.86 72.83 C 121.15 62.51 118.52 52.45 116.90 42.26 Z" />
</g>
<g id="#ffcb89ff">
<path fill="#ffcb89" opacity="1.00" d=" M 98.95 49.32 C 104.72 46.45 110.82 44.34 116.90 42.26 C 118.52 52.45 121.15 62.51 121.86 72.83 C 121.20 75.94 121.28 80.20 118.60 82.22 C 113.96 83.39 109.18 83.95 104.47 84.81 C 104.05 72.80 101.07 61.10 98.95 49.32 Z" />
</g>
<g id="#ffd189ff">
<path fill="#ffd189" opacity="1.00" d=" M 78.82 51.42 C 85.54 50.80 92.27 50.29 98.95 49.32 C 101.07 61.10 104.05 72.80 104.47 84.81 C 104.47 85.90 104.45 86.99 104.39 88.08 C 103.05 87.99 101.72 87.91 100.38 87.81 C 98.43 84.47 96.75 80.14 92.51 79.23 C 89.70 78.13 86.73 79.28 83.92 79.76 C 82.19 70.32 80.34 60.90 78.82 51.42 Z" />
</g>
<g id="#ffd788ff">
<path fill="#ffd788" opacity="1.00" d=" M 54.98 53.10 C 62.95 52.95 70.90 52.31 78.82 51.42 C 80.34 60.90 82.19 70.32 83.92 79.76 L 84.10 80.73 C 76.73 84.31 69.41 87.97 62.19 91.84 C 60.26 79.09 57.92 66.40 55.14 53.81 L 54.98 53.10 Z" />
</g>
<g id="#fedd87fe">
<path fill="#fedd87" opacity="1.00" d=" M 34.43 55.93 C 41.41 56.05 48.24 54.65 55.14 53.81 C 57.92 66.40 60.26 79.09 62.19 91.84 C 55.54 97.18 47.56 100.38 39.78 103.71 C 36.51 87.77 35.24 71.32 29.89 55.87 L 30.76 55.90 C 31.98 55.98 33.21 56.04 34.43 55.93 Z" />
</g>
<g id="#eacf7dea">
<path fill="#eacf7d" opacity="0.92" d=" M 3.65 59.65 C 10.17 51.97 21.68 55.15 30.36 55.77 L 30.76 55.90 L 29.89 55.87 C 21.07 55.78 11.81 55.83 3.65 59.65 Z" />
</g>
<g id="#1d1d1820">
<path fill="#1d1d18" opacity="0.13" d=" M 30.36 55.77 C 30.79 53.91 34.46 53.82 34.43 55.93 C 33.21 56.04 31.98 55.98 30.76 55.90 L 30.36 55.77 Z" />
</g>
<g id="#fee186fe">
<path fill="#fee186" opacity="1.00" d=" M 3.65 59.65 C 11.81 55.83 21.07 55.78 29.89 55.87 C 35.24 71.32 36.51 87.77 39.78 103.71 C 33.79 108.77 26.96 112.93 19.37 115.09 C 15.63 115.90 10.12 117.29 7.37 113.67 C 5.76 95.69 5.69 77.60 3.65 59.65 Z" />
</g>
</svg>
