<?xml version="1.0" encoding="UTF-8" ?>
<!DOCTYPE svg PUBLIC "-//W3C//DTD SVG 1.1//EN" "http://www.w3.org/Graphics/SVG/1.1/DTD/svg11.dtd">
<svg width="157pt" height="133pt" viewBox="0 0 157 133" version="1.1" xmlns="http://www.w3.org/2000/svg">
<g id="#fec28bfe">
<path fill="#fec28b" opacity="1.00" d=" M 12.87 10.11 C 15.47 9.18 18.15 8.46 20.89 8.06 C 37.36 27.17 53.83 46.30 69.70 65.91 C 74.36 67.07 79.12 67.88 83.91 68.28 C 84.99 69.50 86.07 70.72 87.15 71.94 C 79.78 71.90 72.42 71.96 65.05 72.01 C 47.56 51.46 29.72 31.19 12.87 10.11 Z" />
</g>
<g id="#ffbc8bff">
<path fill="#ffbc8b" opacity="1.00" d=" M 20.89 8.06 C 24.23 7.86 27.58 7.94 30.93 7.93 C 43.89 22.55 55.92 37.99 69.15 52.37 C 69.34 56.88 69.55 61.40 69.70 65.91 C 53.83 46.30 37.36 27.17 20.89 8.06 Z" />
</g>
<g id="#ffb58cff">
<path fill="#ffb58c" opacity="1.00" d=" M 30.93 7.93 C 35.57 7.96 40.21 8.03 44.85 8.05 C 57.41 23.86 71.39 38.51 83.49 54.68 C 86.00 59.77 90.74 63.05 94.23 67.36 C 89.37 65.63 82.89 66.77 78.71 63.35 C 76.81 59.15 77.98 54.08 77.41 49.60 C 74.58 50.29 71.79 51.13 69.15 52.37 C 55.92 37.99 43.89 22.55 30.93 7.93 Z" />
</g>
<g id="#ffad8dff">
<path fill="#ffad8d" opacity="1.00" d=" M 44.85 8.05 C 49.49 8.06 54.14 8.01 58.78 7.98 C 70.22 22.28 82.27 36.08 94.14 50.02 C 90.60 49.90 87.07 49.86 83.53 49.81 C 83.50 51.43 83.48 53.06 83.49 54.68 C 71.39 38.51 57.41 23.86 44.85 8.05 Z" />
</g>
<g id="#ffa68eff">
<path fill="#ffa68e" opacity="1.00" d=" M 58.78 7.98 C 62.47 7.95 66.16 7.95 69.85 8.05 C 81.48 22.93 94.58 36.62 106.07 51.60 C 102.11 50.94 98.15 50.28 94.14 50.02 C 82.27 36.08 70.22 22.28 58.78 7.98 Z" />
</g>
<g id="#ffa08fff">
<path fill="#ffa08f" opacity="1.00" d=" M 69.85 8.05 C 76.21 8.68 81.93 11.55 87.84 13.69 C 97.57 23.91 106.64 34.80 115.25 45.98 C 110.13 52.23 112.79 60.90 112.59 68.29 C 111.10 66.26 109.56 64.25 108.28 62.07 C 107.56 58.57 107.02 55.04 106.07 51.60 C 94.58 36.62 81.48 22.93 69.85 8.05 Z" />
</g>
<g id="#ff9890ff">
<path fill="#ff9890" opacity="1.00" d=" M 87.84 13.69 C 93.39 12.38 98.69 10.24 104.10 8.48 C 114.72 21.38 125.90 33.83 136.20 47.00 C 129.20 46.89 122.22 46.42 115.25 45.98 C 106.64 34.80 97.57 23.91 87.84 13.69 Z" />
</g>
<g id="#ff9190ff">
<path fill="#ff9190" opacity="1.00" d=" M 104.10 8.48 C 121.09 7.48 138.12 8.01 155.13 8.06 C 155.89 21.03 156.09 34.02 156.12 47.01 C 149.48 47.00 142.83 47.02 136.20 47.00 C 125.90 33.83 114.72 21.38 104.10 8.48 Z" />
</g>
<g id="#fec889fe">
<path fill="#fec889" opacity="1.00" d=" M 7.01 18.51 C 8.91 15.67 10.72 12.77 12.87 10.11 C 29.72 31.19 47.56 51.46 65.05 72.01 C 63.78 72.01 62.51 72.00 61.23 71.99 C 60.79 74.73 60.38 77.49 59.92 80.22 C 41.57 60.27 24.80 38.94 7.01 18.51 Z" />
</g>
<g id="#ffcf89ff">
<path fill="#ffcf89" opacity="1.00" d=" M 3.31 25.48 C 4.44 23.10 5.64 20.76 7.01 18.51 C 24.80 38.94 41.57 60.27 59.92 80.22 C 59.37 83.28 58.73 86.32 58.01 89.35 C 39.30 68.47 21.81 46.55 3.31 25.48 Z" />
</g>
<g id="#fed488fe">
<path fill="#fed488" opacity="1.00" d=" M 0.00 32.95 C 1.05 30.43 2.17 27.95 3.31 25.48 C 21.81 46.55 39.30 68.47 58.01 89.35 C 57.08 92.88 55.67 96.26 54.37 99.67 C 41.48 85.81 29.04 71.44 17.67 56.30 C 13.44 49.91 6.68 45.88 0.00 42.47 L 0.00 32.95 Z" />
</g>
<g id="#ffdb87ff">
<path fill="#ffdb87" opacity="1.00" d=" M 17.67 56.30 C 29.04 71.44 41.48 85.81 54.37 99.67 C 51.88 105.87 51.01 112.67 53.15 119.12 C 52.88 119.10 52.33 119.05 52.05 119.03 C 38.11 103.11 24.65 86.75 10.90 70.65 C 13.05 65.82 15.31 61.03 17.67 56.30 Z" />
</g>
<g id="#ffae8dff">
<path fill="#ffae8d" opacity="1.00" d=" M 108.28 62.07 C 109.56 64.25 111.10 66.26 112.59 68.29 C 112.67 69.52 112.76 70.75 112.85 71.99 C 104.28 71.96 95.72 71.96 87.15 71.94 C 86.07 70.72 84.99 69.50 83.91 68.28 C 92.03 67.48 103.56 70.65 108.28 62.07 Z" />
</g>
<g id="#fee186fe">
<path fill="#fee186" opacity="1.00" d=" M 10.90 70.65 C 24.65 86.75 38.11 103.11 52.05 119.03 C 48.52 119.07 44.99 119.17 41.46 119.33 C 40.17 123.29 37.91 126.52 33.07 124.76 C 21.26 125.19 11.06 118.54 0.00 115.65 L 0.00 105.68 C 3.12 93.87 6.05 81.91 10.90 70.65 Z" />
</g>
</svg>
