<?xml version="1.0" encoding="UTF-8" ?>
<!DOCTYPE svg PUBLIC "-//W3C//DTD SVG 1.1//EN" "http://www.w3.org/Graphics/SVG/1.1/DTD/svg11.dtd">
<svg width="285pt" height="133pt" viewBox="0 0 285 133" version="1.1" xmlns="http://www.w3.org/2000/svg">
<g id="#ffa28fff">
<path fill="#ffa28f" opacity="1.00" d=" M 175.21 9.32 C 179.23 9.47 179.34 13.92 179.94 16.94 C 178.97 19.20 177.47 21.36 177.99 23.96 C 181.94 23.94 185.90 23.97 189.86 24.07 C 190.49 29.82 192.26 35.37 193.04 41.10 C 190.29 41.08 184.78 41.05 182.03 41.03 C 181.95 42.33 181.95 43.63 182.03 44.93 C 184.96 45.00 187.95 45.02 190.89 45.04 C 193.03 55.93 195.28 66.81 197.09 77.76 C 193.89 78.00 191.11 79.80 189.19 82.31 C 189.15 84.67 189.06 89.39 189.02 91.75 C 190.66 91.88 193.95 92.14 195.59 92.27 C 196.01 95.25 198.82 96.55 200.97 98.19 C 203.07 105.78 203.59 113.70 205.74 121.28 L 205.92 122.02 C 198.73 122.86 191.43 123.48 184.21 122.85 C 180.65 116.78 188.24 109.29 186.21 102.82 C 179.94 75.43 175.38 47.58 169.90 19.98 C 170.29 15.97 170.53 10.64 175.21 9.32 Z" />
</g>
<g id="#ff9291ff">
<path fill="#ff9291" opacity="1.00" d=" M 232.05 12.15 C 234.00 10.88 236.43 9.94 238.79 10.10 C 242.04 14.03 238.12 20.42 241.25 24.76 C 249.65 23.64 252.10 33.12 257.78 37.30 C 258.27 44.51 257.80 51.75 258.05 58.97 C 266.29 59.12 274.54 58.83 282.79 59.11 C 284.64 63.14 284.92 68.44 281.82 71.90 C 273.18 72.18 264.54 71.85 255.91 72.05 C 256.12 74.77 259.68 76.41 258.60 79.33 C 256.86 86.43 258.04 93.94 255.76 100.90 C 251.24 100.94 246.70 101.31 242.20 100.86 C 239.46 97.12 241.65 91.53 239.78 87.19 C 237.18 86.83 234.72 86.40 232.19 85.82 C 229.42 72.23 227.30 58.49 224.07 45.00 C 227.27 45.31 231.22 46.15 229.98 42.06 C 226.62 41.97 223.29 42.01 219.93 42.01 C 218.74 36.00 217.66 29.96 216.08 24.04 C 221.86 24.17 228.64 24.60 232.82 19.80 C 232.64 17.25 232.00 14.72 232.05 12.15 M 235.23 42.24 C 234.20 43.73 236.69 45.00 237.86 44.66 C 239.15 42.96 236.83 40.81 235.23 42.24 M 237.25 47.28 C 235.47 50.11 235.83 55.09 238.02 57.11 C 238.00 54.54 237.97 49.39 237.95 46.81 L 237.25 47.28 Z" />
</g>
<g id="#ffa78eff">
<path fill="#ffa78e" opacity="1.00" d=" M 165.41 23.32 C 165.73 21.10 167.88 20.16 169.90 19.98 C 175.38 47.58 179.94 75.43 186.21 102.82 C 182.30 104.20 176.17 100.78 173.58 105.07 C 169.13 82.63 165.42 60.01 160.32 37.71 C 159.90 32.59 164.12 28.22 165.41 23.32 Z" />
</g>
<g id="#ff9990ff">
<path fill="#ff9990" opacity="1.00" d=" M 189.86 24.07 C 198.60 23.98 207.34 23.88 216.08 24.04 C 217.66 29.96 218.74 36.00 219.93 42.01 C 210.97 41.78 201.90 42.76 193.04 41.10 C 192.26 35.37 190.49 29.82 189.86 24.07 Z" />
</g>
<g id="#ffac8eff">
<path fill="#ffac8e" opacity="1.00" d=" M 160.32 37.71 C 165.42 60.01 169.13 82.63 173.58 105.07 C 171.41 108.22 166.82 110.86 163.14 112.95 C 158.72 89.66 153.72 66.43 149.89 43.07 C 153.20 42.93 156.55 43.12 159.87 42.93 C 160.04 41.19 160.11 39.44 160.32 37.71 Z" />
</g>
<g id="#ffc88aff">
<path fill="#ffc88a" opacity="1.00" d=" M 83.88 44.09 C 87.90 44.09 92.00 44.32 95.87 43.05 C 100.94 69.68 106.31 96.27 111.14 122.94 C 107.93 123.42 102.59 122.23 104.77 117.21 C 102.92 114.74 98.31 115.51 97.10 112.98 C 92.93 89.98 88.42 67.02 83.88 44.09 Z" />
</g>
<g id="#ffc48bff">
<path fill="#ffc48b" opacity="1.00" d=" M 95.87 43.05 C 99.21 42.94 102.57 42.87 105.91 43.08 C 109.88 69.89 115.87 96.39 120.81 123.04 C 117.58 123.05 114.36 123.12 111.14 122.94 C 106.31 96.27 100.94 69.68 95.87 43.05 Z" />
</g>
<g id="#ffbf8bff">
<path fill="#ffbf8b" opacity="1.00" d=" M 105.91 43.08 C 110.29 42.96 114.69 42.85 119.08 43.00 C 121.95 54.50 123.54 66.26 126.02 77.83 C 122.45 79.45 119.84 82.51 117.23 85.34 C 116.90 91.14 118.10 98.49 124.32 100.72 C 125.79 100.59 128.71 100.33 130.18 100.21 C 132.26 108.03 132.91 116.15 135.05 123.96 C 130.83 123.06 123.87 125.79 120.81 123.04 C 115.87 96.39 109.88 69.89 105.91 43.08 Z" />
</g>
<g id="#ffb88cff">
<path fill="#ffb88c" opacity="1.00" d=" M 119.08 43.00 C 124.68 42.94 130.29 42.91 135.89 43.05 C 136.90 54.84 140.52 66.23 142.12 77.93 C 136.75 77.95 131.38 78.15 126.02 77.83 C 123.54 66.26 121.95 54.50 119.08 43.00 Z" />
<path fill="#ffb88c" opacity="1.00" d=" M 130.18 100.21 C 135.41 98.55 140.35 96.06 144.87 92.95 C 147.04 101.86 148.80 110.88 150.15 119.96 L 149.89 120.77 C 144.98 121.94 140.18 124.30 135.05 123.96 C 132.91 116.15 132.26 108.03 130.18 100.21 Z" />
</g>
<g id="#ffb18dff">
<path fill="#ffb18d" opacity="1.00" d=" M 135.89 43.05 C 140.55 42.98 145.23 42.80 149.89 43.07 C 153.72 66.43 158.72 89.66 163.14 112.95 C 159.40 115.71 154.79 118.67 150.15 119.96 C 148.80 110.88 147.04 101.86 144.87 92.95 C 146.69 90.71 149.14 88.78 149.99 85.92 C 150.22 83.03 148.34 80.46 146.81 78.17 C 145.25 77.97 143.68 77.97 142.12 77.93 C 140.52 66.23 136.90 54.84 135.89 43.05 Z" />
</g>
<g id="#ffe087ff">
<path fill="#ffe087" opacity="1.00" d=" M 3.22 44.14 C 11.45 43.96 19.69 43.82 27.91 44.08 C 30.98 66.52 36.34 88.60 40.14 110.92 C 32.76 111.11 25.38 110.98 18.00 111.00 C 13.67 110.96 9.35 111.01 5.03 110.98 C 2.95 110.97 2.99 108.14 2.41 106.67 C 1.44 88.47 2.30 70.21 1.97 51.99 C 3.35 49.97 0.47 45.73 3.22 44.14 Z" />
</g>
<g id="#ffdc88ff">
<path fill="#ffdc88" opacity="1.00" d=" M 27.91 44.08 C 32.57 43.99 37.24 43.78 41.89 44.08 C 46.22 66.39 50.13 88.79 54.92 110.98 C 49.99 110.99 45.06 111.19 40.14 110.92 C 36.34 88.60 30.98 66.52 27.91 44.08 Z" />
</g>
<g id="#ffd788ff">
<path fill="#ffd788" opacity="1.00" d=" M 41.89 44.08 C 46.95 43.97 52.02 43.88 57.09 44.01 C 61.76 66.25 65.71 88.64 70.10 110.94 C 65.04 111.02 59.98 111.12 54.92 110.98 C 50.13 88.79 46.22 66.39 41.89 44.08 Z" />
</g>
<g id="#ffd289ff">
<path fill="#ffd289" opacity="1.00" d=" M 57.09 44.01 C 61.71 44.00 66.35 43.80 70.97 44.07 C 75.06 65.33 79.52 86.54 83.08 107.89 C 80.49 108.34 76.64 106.55 75.43 109.36 C 74.85 111.81 71.93 110.89 70.10 110.94 C 65.71 88.64 61.76 66.25 57.09 44.01 Z" />
</g>
<g id="#ffcd8aff">
<path fill="#ffcd8a" opacity="1.00" d=" M 70.97 44.07 C 75.26 44.00 79.58 43.78 83.88 44.09 C 88.42 67.02 92.93 89.98 97.10 112.98 C 92.30 112.55 88.03 109.52 83.20 108.74 L 83.08 107.89 C 79.52 86.54 75.06 65.33 70.97 44.07 Z" />
</g>
<g id="#ff9c90ff">
<path fill="#ff9c90" opacity="1.00" d=" M 190.89 45.04 C 195.92 44.96 200.93 44.99 205.96 45.02 C 210.88 67.97 214.65 91.15 219.58 114.10 C 216.71 117.82 210.78 120.43 205.74 121.28 C 203.59 113.70 203.07 105.78 200.97 98.19 C 204.86 98.52 208.54 96.84 210.83 93.69 C 213.24 86.88 206.16 83.56 202.63 79.39 C 201.47 77.48 198.95 78.15 197.09 77.76 C 195.28 66.81 193.03 55.93 190.89 45.04 Z" />
</g>
<g id="#ff9790ff">
<path fill="#ff9790" opacity="1.00" d=" M 205.96 45.02 C 211.99 44.97 218.03 44.98 224.07 45.00 C 227.30 58.49 229.42 72.23 232.19 85.82 C 230.99 87.71 227.80 88.17 227.81 90.90 C 227.28 99.06 225.76 108.13 219.58 114.10 C 214.65 91.15 210.88 67.97 205.96 45.02 Z" />
</g>
<g id="#d3bc74d4">
<path fill="#d3bc74" opacity="0.83" d=" M 5.03 110.98 C 9.35 111.01 13.67 110.96 18.00 111.00 L 18.00 111.98 C 13.67 111.99 9.34 112.17 5.01 111.95 L 5.03 110.98 Z" />
</g>
</svg>
