<?xml version="1.0" encoding="UTF-8" ?>
<!DOCTYPE svg PUBLIC "-//W3C//DTD SVG 1.1//EN" "http://www.w3.org/Graphics/SVG/1.1/DTD/svg11.dtd">
<svg width="219pt" height="133pt" viewBox="0 0 219 133" version="1.1" xmlns="http://www.w3.org/2000/svg">
<g id="#ff9e8fff">
<path fill="#ff9e8f" opacity="1.00" d=" M 94.96 8.37 C 97.00 8.61 99.04 8.84 101.09 9.05 C 110.77 26.59 121.84 43.32 132.62 60.21 C 132.55 60.79 132.41 61.95 132.35 62.53 C 129.83 62.61 124.79 62.78 122.27 62.86 C 112.61 46.09 101.89 29.98 91.84 13.44 C 92.87 11.75 93.91 10.05 94.96 8.37 Z" />
</g>
<g id="#ff9890ff">
<path fill="#ff9890" opacity="1.00" d=" M 101.09 9.05 C 106.34 9.28 111.59 9.12 116.84 9.20 C 123.89 21.33 131.86 32.92 138.73 45.17 C 133.90 48.70 133.07 54.62 132.62 60.21 C 121.84 43.32 110.77 26.59 101.09 9.05 Z" />
</g>
<g id="#ff9190ff">
<path fill="#ff9190" opacity="1.00" d=" M 116.84 9.20 C 123.95 9.11 131.07 8.77 138.19 9.04 C 147.87 9.35 157.59 8.18 167.24 9.47 C 171.30 10.02 175.02 12.02 179.11 12.46 C 188.78 13.80 198.18 10.12 207.83 10.56 C 212.79 10.88 215.56 15.28 219.00 18.19 L 219.00 29.31 C 218.23 34.52 217.38 39.72 216.65 44.94 C 190.67 44.55 164.70 44.17 138.73 45.17 C 131.86 32.92 123.89 21.33 116.84 9.20 Z" />
</g>
<g id="#ffac8dff">
<path fill="#ffac8d" opacity="1.00" d=" M 70.87 11.82 C 73.16 9.92 76.29 11.28 78.91 11.50 C 90.23 30.09 101.51 48.75 113.76 66.75 C 111.87 72.73 111.01 79.84 105.34 83.55 C 104.70 82.76 104.07 81.96 103.43 81.17 C 106.06 77.13 109.14 73.11 109.39 68.06 C 106.26 64.04 101.77 61.50 96.91 60.22 C 87.55 46.78 79.20 32.66 70.47 18.81 C 70.02 16.55 68.38 13.39 70.87 11.82 Z" />
</g>
<g id="#ffa58eff">
<path fill="#ffa58e" opacity="1.00" d=" M 78.91 11.50 C 83.20 12.25 87.52 12.88 91.84 13.44 C 101.89 29.98 112.61 46.09 122.27 62.86 C 119.30 63.84 116.48 65.22 113.76 66.75 C 101.51 48.75 90.23 30.09 78.91 11.50 Z" />
</g>
<g id="#ffb48cff">
<path fill="#ffb48c" opacity="1.00" d=" M 70.47 18.81 C 79.20 32.66 87.55 46.78 96.91 60.22 C 94.43 63.40 91.92 66.56 89.41 69.71 C 80.80 54.48 71.77 39.38 61.58 25.16 C 64.44 22.91 67.48 20.88 70.47 18.81 Z" />
</g>
<g id="#febb8bfe">
<path fill="#febb8b" opacity="1.00" d=" M 44.88 22.67 C 50.52 22.39 56.47 22.46 61.58 25.16 C 71.77 39.38 80.80 54.48 89.41 69.71 C 91.69 74.48 95.55 78.17 98.92 82.15 C 95.32 81.10 91.34 80.23 88.67 77.38 C 86.08 74.40 85.19 70.42 83.76 66.84 C 81.27 66.06 78.78 65.26 76.28 64.49 C 69.55 53.91 62.54 43.50 56.44 32.54 C 56.02 26.49 49.85 24.17 44.88 22.67 Z" />
</g>
<g id="#fec38afe">
<path fill="#fec38a" opacity="1.00" d=" M 46.17 35.99 C 49.60 34.85 53.01 33.67 56.44 32.54 C 62.54 43.50 69.55 53.91 76.28 64.49 C 74.64 69.66 73.24 76.31 77.18 80.81 C 81.12 83.19 86.03 83.67 90.57 84.09 C 90.31 85.31 90.07 86.54 89.83 87.76 C 85.83 87.24 82.00 85.87 78.12 84.82 C 67.12 68.77 58.29 51.25 46.17 35.99 Z" />
</g>
<g id="#fec989fe">
<path fill="#fec989" opacity="1.00" d=" M 37.75 38.93 C 40.51 37.82 43.35 36.93 46.17 35.99 C 58.29 51.25 67.12 68.77 78.12 84.82 C 73.56 83.36 68.85 82.46 64.13 81.72 C 55.91 67.10 46.47 53.24 37.75 38.93 Z" />
</g>
<g id="#fed188fe">
<path fill="#fed188" opacity="1.00" d=" M 36.54 39.49 C 36.84 39.35 37.45 39.07 37.75 38.93 C 46.47 53.24 55.91 67.10 64.13 81.72 C 59.98 82.55 55.97 83.91 52.21 85.84 C 46.38 75.30 40.21 64.79 32.55 55.46 C 34.53 50.32 35.03 44.77 36.54 39.49 Z" />
</g>
<g id="#fed987fe">
<path fill="#fed987" opacity="1.00" d=" M 32.55 55.46 C 40.21 64.79 46.38 75.30 52.21 85.84 C 53.41 90.02 54.69 94.60 52.87 98.81 C 51.14 103.05 51.72 107.66 51.52 112.11 C 42.09 97.66 33.15 82.89 23.74 68.43 C 26.64 64.07 29.77 59.88 32.55 55.46 Z" />
</g>
<g id="#fee186fe">
<path fill="#fee186" opacity="1.00" d=" M 7.16 103.76 C 11.03 91.27 15.98 79.07 23.74 68.43 C 33.15 82.89 42.09 97.66 51.52 112.11 C 46.78 116.42 43.45 123.35 36.65 124.76 C 24.56 127.21 11.10 126.72 0.00 120.87 L 0.00 115.76 C 1.57 113.24 3.30 110.83 4.98 108.39 C 6.60 107.41 7.43 105.62 7.16 103.76 Z" />
</g>
<g id="#ffb98bff">
<path fill="#ffb98b" opacity="1.00" d=" M 90.57 84.09 C 94.89 83.31 99.16 82.20 103.43 81.17 C 104.07 81.96 104.70 82.76 105.34 83.55 C 100.42 85.73 95.10 86.82 89.83 87.76 C 90.07 86.54 90.31 85.31 90.57 84.09 Z" />
</g>
<g id="#dec678df">
<path fill="#dec678" opacity="0.87" d=" M 4.98 108.39 C 4.80 106.54 5.62 104.79 7.16 103.76 C 7.43 105.62 6.60 107.41 4.98 108.39 Z" />
</g>
</svg>
