<?xml version="1.0" encoding="UTF-8" ?>
<!DOCTYPE svg PUBLIC "-//W3C//DTD SVG 1.1//EN" "http://www.w3.org/Graphics/SVG/1.1/DTD/svg11.dtd">
<svg width="353pt" height="133pt" viewBox="0 0 353 133" version="1.1" xmlns="http://www.w3.org/2000/svg">
<g id="#ffd388ff">
<path fill="#ffd388" opacity="1.00" d=" M 60.75 37.04 C 66.98 33.77 73.21 30.47 79.61 27.55 C 79.88 28.85 80.42 31.44 80.69 32.74 C 83.27 44.81 85.50 56.95 87.91 69.06 C 82.64 71.78 82.18 77.59 81.64 82.85 C 84.62 82.44 87.60 82.04 90.57 81.52 C 90.78 83.52 90.98 85.51 91.18 87.51 C 83.91 87.19 76.50 86.59 69.85 83.39 C 66.77 68.26 63.91 53.10 60.92 37.95 L 60.75 37.04 M 73.99 77.04 C 74.62 79.21 76.11 80.96 77.37 82.80 C 77.39 79.93 77.45 74.19 77.47 71.32 C 76.21 73.15 74.78 74.93 73.99 77.04 Z" />
</g>
<g id="#fecb89fe">
<path fill="#fecb89" opacity="1.00" d=" M 80.69 32.74 C 87.39 31.27 94.30 31.19 101.13 30.79 C 104.34 45.44 106.88 60.22 109.96 74.89 C 105.21 80.99 99.24 86.59 91.18 87.51 C 90.98 85.51 90.78 83.52 90.57 81.52 C 92.92 79.96 96.44 78.27 94.66 74.49 C 92.94 72.11 90.28 70.69 87.91 69.06 C 85.50 56.95 83.27 44.81 80.69 32.74 Z" />
</g>
<g id="#ffc28aff">
<path fill="#ffc28a" opacity="1.00" d=" M 101.13 30.79 C 107.02 30.91 112.91 30.99 118.80 31.07 C 121.36 44.78 123.85 58.50 126.91 72.10 C 121.20 72.58 115.58 73.82 109.96 74.89 C 106.88 60.22 104.34 45.44 101.13 30.79 Z" />
</g>
<g id="#ffba8bff">
<path fill="#ffba8b" opacity="1.00" d=" M 118.80 31.07 C 124.46 31.00 130.12 30.91 135.78 30.81 C 137.95 42.80 140.45 54.72 142.87 66.66 C 137.47 68.24 132.34 70.63 126.91 72.10 C 123.85 58.50 121.36 44.78 118.80 31.07 Z" />
</g>
<g id="#ffb28cff">
<path fill="#ffb28c" opacity="1.00" d=" M 135.78 30.81 C 142.55 31.32 149.09 33.17 155.77 34.27 C 157.91 45.16 160.08 56.05 162.12 66.96 C 155.70 66.89 149.28 66.89 142.87 66.66 C 140.45 54.72 137.95 42.80 135.78 30.81 Z" />
</g>
<g id="#ffa98dff">
<path fill="#ffa98d" opacity="1.00" d=" M 155.77 34.27 C 161.08 34.16 166.39 34.05 171.71 33.99 C 173.59 44.87 176.07 55.65 177.43 66.62 C 177.50 67.30 177.63 68.67 177.70 69.35 C 172.45 68.92 167.28 67.94 162.12 66.96 C 160.08 56.05 157.91 45.16 155.77 34.27 Z" />
</g>
<g id="#ffa38eff">
<path fill="#ffa38e" opacity="1.00" d=" M 171.71 33.99 C 176.47 34.01 181.24 34.02 186.02 34.01 C 188.26 44.87 190.34 55.76 192.33 66.67 C 187.50 64.63 181.94 63.06 177.43 66.62 C 176.07 55.65 173.59 44.87 171.71 33.99 Z" />
</g>
<g id="#fe9d8ffe">
<path fill="#fe9d8f" opacity="1.00" d=" M 186.02 34.01 C 191.39 33.99 196.77 33.99 202.15 33.96 C 204.49 45.02 206.50 56.15 208.85 67.20 C 203.34 67.54 197.82 66.99 192.33 66.67 C 190.34 55.76 188.26 44.87 186.02 34.01 Z" />
</g>
<g id="#ff9790ff">
<path fill="#ff9790" opacity="1.00" d=" M 202.15 33.96 C 208.72 33.98 215.30 34.00 221.87 34.03 C 224.05 44.88 226.33 55.71 228.32 66.59 C 221.83 66.83 215.34 66.99 208.85 67.20 C 206.50 56.15 204.49 45.02 202.15 33.96 Z" />
</g>
<g id="#ff9190ff">
<path fill="#ff9190" opacity="1.00" d=" M 221.87 34.03 C 265.25 33.96 308.63 34.00 352.00 34.01 C 352.00 37.99 352.01 41.98 352.02 45.96 C 348.80 46.60 345.59 47.17 342.42 47.98 C 345.29 48.42 348.16 48.85 351.04 49.24 C 350.97 54.18 350.91 59.13 350.86 64.07 C 343.69 62.48 342.50 71.05 336.90 72.05 C 307.81 70.20 278.64 70.97 249.52 71.44 C 242.03 72.22 235.50 67.78 228.32 66.59 C 226.33 55.71 224.05 44.88 221.87 34.03 Z" />
</g>
<g id="#feda87fe">
<path fill="#feda87" opacity="1.00" d=" M 40.27 50.17 C 47.47 46.65 53.84 41.70 60.92 37.95 C 63.91 53.10 66.77 68.26 69.85 83.39 C 66.80 79.37 63.96 75.16 60.49 71.47 C 55.11 71.23 50.06 73.73 45.14 75.63 C 43.55 67.14 41.89 58.66 40.27 50.17 Z" />
</g>
<g id="#fee186fe">
<path fill="#fee186" opacity="1.00" d=" M 3.85 49.34 C 10.44 50.37 16.39 53.87 22.95 54.82 C 28.94 54.31 34.64 52.15 40.27 50.17 C 41.89 58.66 43.55 67.14 45.14 75.63 C 35.53 83.52 29.01 94.60 25.40 106.40 C 21.92 105.22 17.05 106.83 14.38 103.68 C 10.28 98.89 6.46 93.76 3.35 88.28 C 3.59 77.38 3.62 66.48 3.30 55.58 L 3.32 54.74 C 3.41 52.93 3.66 51.13 3.85 49.34 Z" />
</g>
<g id="#1c1e1820">
<path fill="#1c1e18" opacity="0.13" d=" M 3.26 87.31 C 1.80 76.53 1.08 65.47 3.32 54.74 L 3.30 55.58 C 3.14 65.94 2.76 76.31 3.23 86.66 L 3.26 87.31 Z" />
</g>
<g id="#ecd281ed">
<path fill="#ecd281" opacity="0.93" d=" M 3.30 55.58 C 3.62 66.48 3.59 77.38 3.35 88.28 C 3.32 87.87 3.26 87.06 3.23 86.66 C 2.76 76.31 3.14 65.94 3.30 55.58 Z" />
</g>
</svg>
