<?xml version="1.0" encoding="UTF-8" ?>
<!DOCTYPE svg PUBLIC "-//W3C//DTD SVG 1.1//EN" "http://www.w3.org/Graphics/SVG/1.1/DTD/svg11.dtd">
<svg width="409pt" height="133pt" viewBox="0 0 409 133" version="1.1" xmlns="http://www.w3.org/2000/svg">
<g id="#ffb78cff">
<path fill="#ffb78c" opacity="1.00" d=" M 165.11 11.99 C 167.48 12.18 170.07 11.49 172.29 12.51 C 172.88 13.84 173.26 15.26 173.86 16.59 C 173.90 17.14 173.98 18.24 174.03 18.78 C 176.20 19.86 178.58 20.17 180.98 20.08 C 180.99 19.56 181.01 18.52 181.02 18.00 C 182.62 18.00 184.23 18.01 185.84 18.00 C 189.23 35.40 192.97 52.73 196.17 70.16 C 195.63 70.11 194.53 70.00 193.99 69.94 C 194.22 72.48 193.26 75.39 194.89 77.62 C 194.94 78.63 194.99 79.65 195.03 80.68 C 193.86 81.17 191.88 81.34 192.05 83.07 C 191.96 94.52 191.95 105.98 192.07 117.42 C 192.40 118.05 193.05 119.32 193.38 119.95 C 183.60 120.07 173.83 119.97 164.05 120.00 C 164.01 119.40 163.92 118.20 163.88 117.60 C 163.67 117.18 163.26 116.34 163.05 115.92 C 162.87 107.49 163.11 99.05 162.96 90.62 C 162.74 84.05 160.68 77.75 159.55 71.32 C 156.09 53.19 152.12 35.16 148.90 16.99 C 151.67 17.05 156.09 16.01 156.30 20.05 C 158.09 19.93 160.09 20.38 161.60 19.13 C 162.19 19.08 163.36 18.99 163.95 18.95 C 163.99 18.36 164.08 17.19 164.13 16.60 C 165.22 15.29 164.95 13.55 165.11 11.99 M 177.42 31.75 C 176.05 32.04 174.53 31.97 173.38 32.91 C 169.77 32.65 165.65 34.00 162.38 32.08 C 159.92 31.98 157.46 31.99 155.00 32.00 C 155.00 33.33 155.00 34.67 155.00 36.00 C 164.34 36.00 173.67 36.00 183.01 36.01 C 183.00 34.32 183.00 32.63 183.01 30.94 C 181.13 31.05 179.10 30.68 177.42 31.75 Z" />
</g>
<g id="#ff9d90ff">
<path fill="#ff9d90" opacity="1.00" d=" M 221.05 13.62 C 221.68 13.95 222.95 14.60 223.58 14.93 C 232.05 15.09 240.52 14.96 249.00 15.00 C 248.99 22.33 248.99 29.67 249.00 37.00 C 235.22 37.00 221.44 36.99 207.66 37.01 C 208.55 35.99 209.45 34.99 210.34 33.98 C 209.83 33.98 208.82 34.00 208.31 34.00 C 207.59 29.32 206.75 24.65 205.86 20.00 C 210.90 20.00 215.95 20.00 220.99 20.00 C 220.99 17.87 221.00 15.75 221.05 13.62 Z" />
</g>
<g id="#ffc38bff">
<path fill="#ffc38b" opacity="1.00" d=" M 142.01 17.00 C 144.31 17.00 146.60 17.00 148.90 16.99 C 152.12 35.16 156.09 53.19 159.55 71.32 C 160.68 77.75 162.74 84.05 162.96 90.62 C 162.32 90.95 161.05 91.60 160.42 91.93 C 154.50 92.08 148.58 91.96 142.66 92.00 C 142.45 90.54 142.23 89.08 142.08 87.61 C 141.94 84.83 141.99 82.05 142.00 79.26 C 141.51 79.13 140.52 78.88 140.03 78.75 C 137.81 66.59 134.67 54.58 133.24 42.30 C 134.86 39.55 133.65 36.05 133.99 33.00 C 123.24 32.76 112.44 33.59 101.74 32.35 C 103.83 32.36 105.91 32.51 108.00 32.64 C 108.00 28.10 108.00 23.55 108.00 19.00 C 118.13 19.05 128.26 18.89 138.38 19.08 C 139.48 19.75 140.67 20.14 141.97 20.23 C 141.98 19.42 142.00 17.81 142.01 17.00 M 149.51 79.09 C 147.89 80.28 146.63 81.86 145.53 83.51 C 145.24 84.66 145.00 85.81 144.79 86.98 C 147.20 87.00 149.61 87.04 152.03 87.02 C 153.34 86.90 155.62 87.34 155.88 85.45 C 156.13 83.31 155.99 81.14 156.01 78.99 C 153.84 79.00 151.67 78.89 149.51 79.09 Z" />
</g>
<g id="#ffa88eff">
<path fill="#ffa88e" opacity="1.00" d=" M 185.84 18.00 C 188.23 18.00 190.61 18.00 193.00 18.00 C 193.00 18.50 193.00 19.50 193.01 20.00 C 197.29 20.00 201.57 20.00 205.86 20.00 C 206.75 24.65 207.59 29.32 208.31 34.00 C 204.20 34.00 200.08 34.00 195.97 34.00 C 195.69 37.01 196.15 39.92 197.64 42.58 C 205.22 42.13 212.77 42.96 220.34 43.14 C 221.41 43.72 222.55 44.04 223.78 44.12 C 225.29 52.24 226.89 60.35 228.71 68.41 C 228.45 69.06 227.93 70.35 227.67 71.00 C 226.99 71.00 225.64 71.00 224.97 71.00 C 225.00 70.47 225.08 69.41 225.12 68.87 C 223.52 70.62 221.73 69.50 220.01 68.75 C 220.00 69.31 219.99 70.44 219.99 71.00 C 219.49 71.00 218.50 71.00 218.01 71.00 C 218.00 70.50 218.00 69.50 218.00 69.00 L 217.00 69.00 C 217.00 69.50 217.00 70.50 216.99 71.00 C 216.50 71.00 215.51 71.00 215.01 71.00 C 215.01 70.44 214.99 69.31 214.99 68.74 C 213.26 69.51 211.46 70.62 209.88 68.87 C 209.92 69.40 210.00 70.47 210.04 71.00 C 209.28 71.00 207.76 71.00 207.01 71.00 C 207.00 70.50 207.00 69.50 207.00 69.00 L 206.00 69.00 C 206.00 69.50 206.00 70.50 206.00 71.00 C 203.98 71.00 201.97 71.00 199.95 71.00 C 200.00 70.48 200.09 69.43 200.13 68.90 C 198.91 69.62 197.58 70.04 196.17 70.16 C 192.97 52.73 189.23 35.40 185.84 18.00 Z" />
</g>
<g id="#ff9a90ff">
<path fill="#ff9a90" opacity="1.00" d=" M 256.00 36.00 C 257.57 36.00 259.15 36.00 260.73 36.00 C 262.38 45.70 264.85 55.24 266.21 64.99 C 265.76 64.99 264.84 65.00 264.39 65.00 C 264.07 65.60 263.45 66.80 263.13 67.40 C 263.51 68.11 263.89 68.82 264.27 69.53 C 263.56 69.87 262.13 70.54 261.42 70.88 C 260.82 70.92 259.61 71.01 259.01 71.06 C 259.01 70.54 259.00 69.51 258.99 69.00 C 258.50 69.00 257.50 69.00 257.01 69.00 C 257.00 69.50 257.00 70.50 256.99 71.00 C 256.50 71.00 255.50 71.00 255.01 71.00 C 255.00 70.50 255.00 69.50 255.00 69.00 L 254.01 69.00 C 254.00 69.50 253.99 70.50 253.99 71.00 C 253.24 71.00 251.75 71.00 251.01 71.00 C 251.00 70.50 251.00 69.50 251.00 69.00 L 250.00 69.00 C 250.00 69.50 250.00 70.50 249.99 71.00 C 249.25 71.00 247.75 71.00 247.01 71.00 C 247.00 70.50 247.00 69.50 246.99 69.00 L 246.00 69.00 C 246.00 69.50 246.00 70.50 246.00 71.00 C 245.25 71.00 243.75 71.00 243.01 71.00 C 243.00 70.50 243.00 69.50 243.00 69.00 L 242.00 69.00 C 242.00 69.50 242.00 70.50 242.00 71.00 C 241.25 71.00 239.75 71.00 239.00 71.00 C 239.00 70.50 239.00 69.50 239.00 69.00 L 238.00 69.00 C 238.00 69.50 238.00 70.50 238.00 71.00 C 237.50 71.00 236.50 71.00 236.00 71.00 C 236.00 70.50 236.00 69.50 236.00 69.00 L 235.00 69.00 C 235.00 69.50 235.00 70.50 235.00 71.00 C 234.25 71.00 232.75 71.00 232.00 71.00 C 232.00 70.50 232.00 69.50 232.00 69.00 L 231.00 69.00 C 231.00 69.50 231.00 70.50 231.00 71.00 C 230.55 71.00 229.65 71.00 229.21 71.01 C 229.08 70.36 228.83 69.06 228.71 68.41 C 226.89 60.35 225.29 52.24 223.78 44.12 C 234.51 43.84 245.26 44.08 256.00 44.00 C 256.00 41.34 256.00 38.67 256.00 36.00 Z" />
</g>
<g id="#ff9191ff">
<path fill="#ff9191" opacity="1.00" d=" M 260.73 36.00 C 265.82 36.00 270.91 36.00 276.00 36.00 C 276.00 37.33 276.00 38.67 276.00 40.00 C 289.47 40.05 302.95 39.90 316.42 40.07 C 317.06 40.40 318.35 41.05 319.00 41.38 C 319.00 45.59 319.00 49.79 319.00 54.00 C 330.79 53.94 342.59 54.12 354.38 53.91 C 355.50 52.89 356.99 53.01 358.38 52.99 C 360.21 55.55 361.94 52.10 363.89 51.58 C 363.92 52.19 364.00 53.40 364.04 54.00 C 370.15 53.96 376.27 54.09 382.39 53.93 C 383.57 52.65 385.41 52.68 386.61 53.92 C 391.62 54.07 396.64 54.00 401.66 53.97 C 402.66 55.12 403.63 56.30 404.52 57.55 C 405.16 59.64 405.00 61.84 405.03 64.00 C 399.89 64.03 394.74 63.93 389.60 64.06 C 388.53 65.23 387.47 65.23 386.40 64.07 C 380.13 63.96 373.86 63.95 367.60 64.07 C 366.57 65.42 365.43 64.97 364.35 64.13 C 363.64 65.75 362.29 64.66 361.37 64.17 C 360.32 65.52 358.45 65.15 357.39 64.08 C 345.47 63.96 333.54 63.94 321.61 64.09 C 320.32 65.29 318.55 64.97 316.96 65.03 C 300.05 64.96 283.13 65.03 266.21 64.99 C 264.85 55.24 262.38 45.70 260.73 36.00 Z" />
</g>
<g id="#ffcd8aff">
<path fill="#ffcd8a" opacity="1.00" d=" M 103.97 37.03 C 106.18 37.17 108.69 36.41 110.58 37.91 C 116.53 38.20 122.51 37.76 128.45 38.12 C 130.27 38.41 129.82 40.65 130.16 41.92 C 130.93 42.01 132.47 42.21 133.24 42.30 C 134.67 54.58 137.81 66.59 140.03 78.75 C 139.94 79.13 139.77 79.88 139.68 80.26 C 139.16 82.00 138.77 83.83 139.02 85.65 C 139.99 86.38 141.01 87.03 142.08 87.61 C 142.23 89.08 142.45 90.54 142.66 92.00 C 141.46 92.00 140.25 91.99 139.05 91.99 C 139.01 92.59 138.92 93.80 138.87 94.40 C 137.54 95.99 138.10 98.11 137.95 100.00 C 137.22 100.00 135.75 100.00 135.02 100.00 C 135.00 101.79 134.99 103.59 134.92 105.39 C 133.72 106.66 134.06 108.43 133.89 110.00 C 127.86 109.99 121.82 110.02 115.78 109.99 C 115.88 108.30 116.54 106.77 117.38 105.33 C 117.46 102.31 119.62 100.29 120.32 97.53 C 121.69 95.10 120.33 92.13 121.61 89.68 C 123.74 86.89 122.93 83.26 122.95 80.01 C 122.97 78.62 121.41 78.24 120.50 77.56 C 114.12 76.27 107.45 77.36 100.96 77.00 C 98.78 67.04 96.74 57.04 94.95 47.01 C 95.40 46.18 95.95 45.41 96.61 44.72 C 98.72 44.76 100.94 45.05 102.91 44.08 C 103.00 43.25 103.17 41.60 103.26 40.77 C 103.43 39.77 103.61 38.78 103.82 37.78 L 103.97 37.03 Z" />
</g>
<g id="#e7bc67ff">
<path fill="#e7bc67" opacity="1.00" d=" M 96.75 37.75 C 99.11 37.75 101.46 37.75 103.82 37.78 C 103.61 38.78 103.43 39.77 103.26 40.77 C 101.09 40.75 98.92 40.75 96.75 40.75 C 96.75 40.00 96.75 38.50 96.75 37.75 Z" />
</g>
<g id="#ffe187ff">
<path fill="#ffe187" opacity="1.00" d=" M 26.13 40.00 C 46.41 40.03 66.69 39.94 86.97 40.05 C 88.35 40.00 88.74 41.58 89.41 42.49 C 91.12 45.05 87.33 46.77 86.73 49.10 C 87.30 49.07 88.43 49.01 88.99 48.98 C 89.00 48.49 89.01 47.50 89.02 47.00 C 91.00 47.01 92.98 47.01 94.95 47.01 C 96.74 57.04 98.78 67.04 100.96 77.00 C 95.38 76.97 89.80 77.01 84.22 76.99 C 83.30 79.03 82.84 81.20 82.84 83.45 C 82.54 84.08 81.94 85.36 81.64 86.00 C 74.11 86.04 66.58 85.91 59.05 86.05 C 58.63 86.26 57.81 86.67 57.39 86.88 C 55.98 86.99 54.56 87.09 53.14 87.12 C 46.22 86.96 39.30 86.87 32.38 86.95 C 31.44 85.89 30.50 84.82 29.58 83.75 C 27.22 83.76 24.59 83.83 23.67 86.43 L 23.00 87.45 C 23.00 89.62 23.00 91.78 23.00 93.95 C 20.56 93.92 17.14 93.42 16.73 96.69 C 16.15 97.00 15.00 97.61 14.42 97.91 C 12.94 97.91 11.47 97.89 9.99 97.86 C 9.86 92.87 10.72 87.96 11.13 83.02 C 11.21 74.32 11.09 65.62 11.15 56.92 C 8.83 56.88 6.51 56.87 4.19 56.69 C 2.78 55.52 0.62 51.07 3.94 50.95 C 7.65 51.10 11.22 52.51 14.99 52.04 C 15.00 56.73 15.01 61.43 15.00 66.13 C 18.00 66.18 21.00 65.97 24.00 65.98 C 24.00 65.24 24.00 63.75 24.00 63.01 C 29.00 63.02 34.00 63.00 39.00 63.02 C 39.00 62.51 39.00 61.50 39.00 61.00 C 35.20 60.98 31.40 61.04 27.60 60.92 C 26.95 60.59 25.65 59.94 25.00 59.61 C 25.07 54.61 24.93 49.62 25.09 44.63 C 26.25 43.34 25.94 41.57 26.13 40.00 M 77.63 58.40 C 80.26 57.90 82.15 55.74 83.39 53.50 C 80.82 54.13 78.91 56.19 77.63 58.40 M 63.26 56.11 C 63.52 59.42 66.22 54.49 63.26 56.11 M 15.91 71.98 C 15.89 73.76 15.88 75.54 15.81 77.32 C 14.64 79.01 15.07 81.10 14.95 83.01 C 17.11 83.01 19.27 83.00 21.43 82.93 C 22.07 82.60 23.36 81.95 24.00 81.63 C 24.00 78.41 24.00 75.20 24.00 71.98 C 21.30 71.98 18.60 71.98 15.91 71.98 Z" />
</g>
<g id="#78755c80">
<path fill="#78755c" opacity="0.50" d=" M 63.26 56.11 C 66.22 54.49 63.52 59.42 63.26 56.11 Z" />
</g>
<g id="#76796580">
<path fill="#767965" opacity="0.50" d=" M 4.19 56.69 C 6.51 56.87 8.83 56.88 11.15 56.92 C 11.09 65.62 11.21 74.32 11.13 83.02 C 10.72 87.96 9.86 92.87 9.99 97.86 C 7.47 98.54 5.06 99.56 2.72 100.71 C 3.09 96.16 3.47 91.61 3.90 87.07 C 4.26 76.95 3.68 66.81 4.19 56.69 Z" />
</g>
<g id="#77786280">
<path fill="#777862" opacity="0.50" d=" M 23.67 86.43 C 24.59 83.83 27.22 83.76 29.58 83.75 C 30.50 84.82 31.44 85.89 32.38 86.95 C 39.30 86.87 46.22 86.96 53.14 87.12 C 43.93 89.38 34.38 89.65 24.95 89.99 C 24.50 88.81 24.07 87.62 23.67 86.43 Z" />
</g>
</svg>
