<?xml version="1.0" encoding="UTF-8" ?>
<!DOCTYPE svg PUBLIC "-//W3C//DTD SVG 1.1//EN" "http://www.w3.org/Graphics/SVG/1.1/DTD/svg11.dtd">
<svg width="373pt" height="133pt" viewBox="0 0 373 133" version="1.1" xmlns="http://www.w3.org/2000/svg">
<g id="#ffc88aff">
<path fill="#ffc88a" opacity="1.00" d=" M 111.58 2.58 C 112.87 1.69 114.53 2.12 115.99 1.92 C 115.99 4.12 115.99 6.33 116.01 8.53 L 116.94 9.15 C 118.17 12.98 118.35 17.03 118.93 20.99 C 121.47 39.86 123.82 58.76 126.39 77.63 L 127.00 77.92 C 128.30 77.99 129.60 78.02 130.91 78.02 C 130.93 79.68 130.95 81.34 130.97 83.00 C 129.39 82.99 127.81 82.99 126.23 82.99 C 125.21 85.03 124.85 87.24 124.87 89.51 C 122.94 92.72 124.51 96.90 123.94 100.50 C 122.52 101.59 123.16 103.50 122.92 105.00 C 113.35 105.00 103.77 105.00 94.19 105.00 C 94.16 97.94 92.48 91.06 91.80 84.06 C 90.13 68.92 87.53 53.88 85.99 38.72 C 86.20 37.21 87.89 37.17 89.00 36.73 C 89.01 34.64 88.86 32.53 89.12 30.45 C 89.62 28.63 92.51 28.41 93.48 29.94 C 101.99 30.07 110.50 29.97 119.01 30.00 C 119.01 29.50 119.01 28.50 119.01 28.00 C 118.26 28.00 116.77 28.00 116.02 28.00 C 116.01 27.50 115.99 26.50 115.99 25.99 C 113.66 26.00 111.34 26.00 109.01 26.00 C 109.00 26.54 108.98 27.61 108.97 28.15 C 107.69 27.84 105.53 28.30 105.13 26.55 C 104.80 21.14 105.10 15.71 105.00 10.29 C 106.23 9.83 107.42 9.27 108.61 8.72 C 109.20 8.47 110.37 7.97 110.96 7.72 C 111.14 6.02 110.59 4.10 111.58 2.58 M 117.00 70.99 C 116.99 72.59 116.98 74.19 116.97 75.80 C 118.75 75.56 119.29 77.47 120.18 78.56 C 120.09 76.76 119.33 75.11 118.73 73.45 C 118.47 72.84 117.97 71.62 117.71 71.01 L 117.00 70.99 Z" />
</g>
<g id="#ffae8dff">
<path fill="#ffae8d" opacity="1.00" d=" M 162.02 6.00 C 163.29 6.00 164.57 6.00 165.84 6.00 C 165.76 7.34 166.13 8.51 166.93 9.50 C 167.07 14.00 166.96 18.50 167.00 23.00 C 168.99 23.00 170.98 23.00 172.98 23.00 C 172.99 23.50 173.01 24.50 173.02 25.01 C 174.28 25.01 175.54 25.00 176.81 25.00 C 178.52 38.67 180.81 52.28 181.98 66.00 C 182.06 68.66 181.99 71.32 181.99 73.98 C 182.49 73.99 183.50 74.01 184.00 74.02 C 184.00 75.35 184.00 76.67 184.00 77.99 C 183.25 77.99 181.75 78.00 181.00 78.00 C 181.04 85.64 180.91 93.28 181.04 100.91 C 181.26 101.31 181.71 102.10 181.93 102.50 C 182.22 107.17 181.67 111.89 182.18 116.54 L 182.93 117.50 C 182.97 118.65 183.00 119.81 183.02 120.96 C 181.20 121.21 178.90 120.33 177.51 121.94 C 171.00 122.06 164.48 121.99 157.97 122.00 C 156.64 122.18 154.88 121.54 155.04 119.91 C 154.93 107.61 155.04 95.30 155.00 83.00 C 152.67 83.00 150.33 83.00 148.00 83.00 C 144.75 58.67 141.67 34.32 138.34 10.00 C 142.22 10.00 146.11 10.00 149.99 10.00 C 149.99 9.50 150.00 8.50 150.01 8.00 C 154.00 8.00 157.99 8.00 161.99 8.00 C 161.99 7.50 162.01 6.50 162.02 6.00 Z" />
</g>
<g id="#ffbb8cff">
<path fill="#ffbb8c" opacity="1.00" d=" M 122.89 10.11 C 122.75 5.57 128.11 7.27 131.00 7.00 C 131.00 7.75 131.00 9.25 131.00 10.00 C 133.45 10.00 135.90 10.00 138.34 10.00 C 141.67 34.32 144.75 58.67 148.00 83.00 C 142.33 82.99 136.65 83.01 130.97 83.00 C 130.95 81.34 130.93 79.68 130.91 78.02 C 132.82 78.02 134.73 78.01 136.64 78.00 C 137.07 77.50 137.94 76.49 138.37 75.98 C 139.03 75.99 140.35 76.00 141.01 76.01 C 141.01 75.51 141.00 74.52 141.00 74.02 C 140.51 74.01 139.53 73.99 139.04 73.99 C 139.01 73.39 138.93 72.19 138.90 71.59 C 138.58 70.94 137.95 69.64 137.64 68.99 C 134.09 69.00 130.55 69.01 127.00 69.00 C 127.00 71.97 127.00 74.95 127.00 77.92 L 126.39 77.63 C 123.82 58.76 121.47 39.86 118.93 20.99 C 118.35 17.03 118.17 12.98 116.94 9.15 C 118.96 9.05 121.31 8.43 122.89 10.11 Z" />
</g>
<g id="#ff9191ff">
<path fill="#ff9191" opacity="1.00" d=" M 310.00 10.00 C 311.66 10.00 313.32 10.00 314.99 10.00 C 314.99 10.50 315.00 11.49 315.01 11.99 C 315.50 12.00 316.48 12.00 316.97 12.01 C 316.99 13.17 317.03 14.34 317.09 15.50 C 317.39 16.12 318.00 17.35 318.30 17.96 C 316.20 18.01 314.10 18.00 312.00 18.00 C 312.00 22.00 312.00 26.00 312.00 30.00 C 313.33 30.00 314.66 30.00 316.00 30.00 C 316.00 31.33 316.00 32.67 316.00 34.00 C 318.66 34.00 321.33 34.00 324.00 34.00 C 324.00 35.33 324.00 36.67 324.00 38.00 C 323.25 38.00 321.75 38.00 321.00 38.00 L 321.00 39.00 C 321.75 39.00 323.24 39.00 323.99 39.00 C 323.99 39.50 324.01 40.50 324.01 41.00 C 339.34 41.00 354.67 41.00 370.00 41.00 C 369.99 43.50 369.97 46.00 370.07 48.51 C 371.46 49.60 370.84 51.50 371.08 53.00 C 362.39 53.00 353.70 53.00 345.01 53.00 C 345.01 52.50 344.99 51.50 344.99 51.00 C 334.74 51.00 324.50 51.00 314.26 51.00 C 314.09 52.86 312.86 54.09 311.00 54.26 C 310.99 56.84 311.00 59.42 311.00 62.00 C 308.32 62.00 305.65 62.00 302.97 62.00 C 302.99 60.83 303.03 59.66 303.08 58.49 C 303.87 57.50 304.23 56.34 304.15 55.01 C 303.61 55.01 302.54 55.00 302.00 55.00 C 302.00 56.66 302.00 58.33 302.00 60.00 C 301.25 60.00 299.75 60.00 299.00 60.00 C 299.00 61.66 299.00 63.33 299.00 64.99 C 298.50 64.99 297.51 65.00 297.01 65.01 C 297.00 65.51 296.99 66.50 296.99 67.00 C 275.70 67.00 254.42 67.00 233.14 67.00 C 231.38 53.66 229.68 40.32 227.81 27.00 C 254.87 27.00 281.94 27.00 309.00 27.00 C 309.00 28.67 309.00 30.33 309.00 32.00 L 310.00 32.00 C 310.00 24.67 310.00 17.33 310.00 10.00 Z" />
</g>
<g id="#ffa18fff">
<path fill="#ffa18f" opacity="1.00" d=" M 176.81 25.00 C 183.50 25.00 190.18 25.00 196.87 25.00 C 197.03 28.05 197.21 31.11 197.65 34.13 C 199.30 44.73 200.12 55.45 202.10 66.00 C 195.39 66.00 188.68 66.00 181.98 66.00 C 180.81 52.28 178.52 38.67 176.81 25.00 Z" />
</g>
<g id="#ff9890ff">
<path fill="#ff9890" opacity="1.00" d=" M 196.87 25.00 L 197.99 24.99 C 198.00 25.49 198.01 26.50 198.01 27.00 C 207.94 27.00 217.88 27.00 227.81 27.00 C 229.68 40.32 231.38 53.66 233.14 67.00 C 227.58 67.14 221.98 66.71 216.46 67.19 L 215.51 67.92 C 214.34 67.97 213.17 68.00 212.01 68.03 C 212.01 67.52 211.99 66.51 211.99 66.00 C 208.69 66.00 205.39 66.00 202.10 66.00 C 200.12 55.45 199.30 44.73 197.65 34.13 C 197.21 31.11 197.03 28.05 196.87 25.00 Z" />
</g>
<g id="#ffe287ff">
<path fill="#ffe287" opacity="1.00" d=" M 1.00 36.01 C 3.29 36.02 5.58 36.01 7.86 36.00 C 7.87 37.51 7.96 39.99 10.00 39.99 C 22.99 40.02 35.99 39.99 48.98 40.00 C 50.50 50.62 52.34 61.23 53.04 71.94 C 52.16 72.39 51.27 72.82 50.37 73.25 C 47.55 75.16 44.71 76.89 41.10 76.43 L 41.09 76.85 C 41.65 76.87 42.77 76.91 43.32 76.94 C 41.03 79.56 38.68 82.25 35.61 83.99 C 33.75 83.99 31.89 84.00 30.03 84.01 C 30.03 82.20 30.03 80.39 30.00 78.59 C 27.58 79.17 26.37 81.71 23.99 82.37 C 23.96 82.77 23.89 83.56 23.86 83.96 C 23.47 83.98 22.70 84.01 22.31 84.02 C 21.29 87.19 18.11 89.26 17.73 92.66 C 17.07 93.87 15.56 94.15 14.51 94.90 L 14.41 94.90 C 12.66 94.90 10.91 94.90 9.17 94.91 C 6.45 86.82 7.17 78.24 7.00 69.85 C 5.16 69.84 3.32 69.82 1.48 69.81 L 1.00 69.81 C 1.01 58.54 1.00 47.28 1.00 36.01 Z" />
</g>
<g id="#ffd389ff">
<path fill="#ffd389" opacity="1.00" d=" M 83.51 39.93 C 84.13 39.63 85.37 39.02 85.99 38.72 C 87.53 53.88 90.13 68.92 91.80 84.06 C 92.48 91.06 94.16 97.94 94.19 105.00 C 89.13 105.00 84.06 105.00 79.00 105.00 C 79.09 100.82 78.81 96.62 79.11 92.45 C 80.48 90.98 82.28 89.69 82.26 87.46 C 83.77 84.93 82.70 81.78 83.00 78.98 C 82.69 75.89 83.71 72.47 82.41 69.59 C 79.87 68.34 76.81 69.25 74.07 69.01 L 74.03 68.00 C 73.70 58.59 71.60 49.37 70.79 40.00 C 75.03 39.96 79.27 40.08 83.51 39.93 Z" />
</g>
<g id="#ffda88ff">
<path fill="#ffda88" opacity="1.00" d=" M 48.98 40.00 C 56.25 40.00 63.52 40.00 70.79 40.00 C 71.60 49.37 73.70 58.59 74.03 68.00 L 73.00 68.01 C 73.00 66.00 73.00 64.00 73.00 62.00 C 72.25 62.00 70.75 62.00 70.00 62.00 C 70.00 65.00 70.00 68.00 70.00 71.00 L 69.00 71.00 C 69.00 69.67 69.00 68.33 69.00 67.00 C 64.92 67.01 60.84 66.98 56.77 67.02 C 57.11 67.58 57.81 68.69 58.16 69.25 C 57.47 70.06 56.98 70.98 56.71 72.01 C 55.49 71.99 54.26 71.97 53.04 71.94 C 52.34 61.23 50.50 50.62 48.98 40.00 Z" />
</g>
<g id="#76796580">
<path fill="#767965" opacity="0.50" d=" M 1.48 69.81 C 3.32 69.82 5.16 69.84 7.00 69.85 C 7.17 78.24 6.45 86.82 9.17 94.91 C 10.91 94.90 12.66 94.90 14.41 94.90 C 13.04 98.42 8.70 97.15 5.75 97.58 C 4.30 88.33 2.73 79.09 1.48 69.81 Z" />
</g>
</svg>
