<?xml version="1.0" encoding="UTF-8" ?>
<!DOCTYPE svg PUBLIC "-//W3C//DTD SVG 1.1//EN" "http://www.w3.org/Graphics/SVG/1.1/DTD/svg11.dtd">
<svg width="416pt" height="133pt" viewBox="0 0 416 133" version="1.1" xmlns="http://www.w3.org/2000/svg">
<g id="#fead8dfe">
<path fill="#fead8d" opacity="1.00" d=" M 148.01 17.13 C 151.07 16.75 154.13 16.45 157.21 16.21 C 161.11 38.88 164.69 61.60 168.98 84.19 C 165.03 84.15 161.08 84.10 157.14 84.04 C 154.48 65.63 150.98 47.36 148.07 29.01 C 147.96 25.05 147.94 21.09 148.01 17.13 Z" />
</g>
<g id="#ffa88dff">
<path fill="#ffa88d" opacity="1.00" d=" M 157.21 16.21 C 159.84 16.13 165.10 15.96 167.73 15.87 C 167.98 20.09 168.27 24.30 168.49 28.52 C 169.83 28.64 172.50 28.88 173.84 29.00 C 176.80 45.73 179.40 62.52 182.38 79.24 C 180.09 84.49 173.97 84.77 168.98 84.19 C 164.69 61.60 161.11 38.88 157.21 16.21 Z" />
</g>
<g id="#febe8afe">
<path fill="#febe8a" opacity="1.00" d=" M 109.96 19.99 C 113.25 19.86 116.53 20.02 119.82 20.24 C 122.61 41.59 126.62 62.75 130.12 83.99 C 126.25 83.96 122.36 83.78 118.49 83.63 C 117.07 65.21 111.85 47.29 109.97 28.93 C 109.89 25.95 109.97 22.97 109.96 19.99 Z" />
</g>
<g id="#ffb98bff">
<path fill="#ffb98b" opacity="1.00" d=" M 119.82 20.24 C 122.60 20.48 125.34 20.89 128.11 21.27 C 128.92 23.38 129.73 25.49 130.54 27.60 C 131.59 28.02 133.70 28.85 134.75 29.27 C 137.45 47.59 140.26 65.89 143.83 84.06 C 139.26 84.04 134.69 84.01 130.12 83.99 C 126.62 62.75 122.61 41.59 119.82 20.24 M 129.78 71.98 C 129.87 73.92 130.35 75.80 131.21 77.54 C 133.77 76.32 135.96 74.47 137.71 72.25 C 135.73 72.18 131.76 72.04 129.78 71.98 Z" />
</g>
<g id="#ff9690ff">
<path fill="#ff9690" opacity="1.00" d=" M 206.74 26.88 C 213.28 23.73 220.77 24.04 227.86 23.89 C 230.16 37.61 232.29 51.37 234.96 65.02 C 227.68 65.06 220.41 65.03 213.14 64.93 C 211.04 52.24 208.75 39.58 206.74 26.88 Z" />
</g>
<g id="#ff9190ff">
<path fill="#ff9190" opacity="1.00" d=" M 227.86 23.89 C 230.52 23.90 233.18 23.96 235.85 24.06 C 235.96 31.02 236.02 37.97 236.14 44.92 C 295.42 45.21 354.71 44.79 413.99 45.08 C 413.99 47.79 413.99 53.21 413.99 55.93 C 379.04 56.01 344.08 56.54 309.15 54.99 C 308.31 75.12 307.12 95.70 312.56 115.35 C 313.68 118.53 312.94 121.86 312.26 125.03 C 309.46 125.02 303.86 125.00 301.06 124.99 C 302.07 117.16 302.48 109.27 300.94 101.49 C 296.89 101.54 292.85 101.32 288.81 101.50 C 288.93 99.76 289.18 96.27 289.30 94.53 C 290.10 93.62 290.92 92.72 291.76 91.85 C 290.87 90.48 289.82 89.21 289.01 87.79 C 289.53 84.08 292.07 80.84 292.58 77.09 C 292.03 73.03 290.82 69.12 289.70 65.20 C 271.46 64.66 253.20 65.11 234.96 65.02 C 232.29 51.37 230.16 37.61 227.86 23.89 Z" />
</g>
<g id="#ff9c8fff">
<path fill="#ff9c8f" opacity="1.00" d=" M 189.90 29.17 C 195.53 28.78 201.41 28.98 206.74 26.88 C 208.75 39.58 211.04 52.24 213.14 64.93 C 207.34 64.88 201.55 64.73 195.76 64.66 C 193.66 52.86 191.44 41.06 189.90 29.17 Z" />
</g>
<g id="#fec989fe">
<path fill="#fec989" opacity="1.00" d=" M 96.00 29.20 C 96.51 29.16 97.52 29.08 98.03 29.04 C 102.42 54.21 106.10 79.51 111.21 104.55 C 106.46 104.70 101.63 104.37 97.14 102.73 C 94.01 101.70 91.73 97.94 94.00 94.69 C 95.06 89.46 97.07 84.42 97.45 79.06 C 95.55 79.03 91.73 78.97 89.83 78.94 C 88.86 72.80 87.78 66.68 86.96 60.52 C 90.31 60.19 93.66 59.77 96.97 59.15 C 95.59 49.23 95.86 39.19 96.00 29.20 Z" />
</g>
<g id="#ffc48aff">
<path fill="#ffc48a" opacity="1.00" d=" M 98.03 29.04 C 102.01 28.95 105.99 28.91 109.97 28.93 C 111.85 47.29 117.07 65.21 118.49 83.63 C 117.11 89.96 116.52 96.44 116.60 102.92 C 114.82 103.53 113.03 104.10 111.21 104.55 C 106.10 79.51 102.42 54.21 98.03 29.04 Z" />
</g>
<g id="#ffb38cff">
<path fill="#ffb38c" opacity="1.00" d=" M 134.75 29.27 C 139.19 29.29 143.62 29.09 148.07 29.01 C 150.98 47.36 154.48 65.63 157.14 84.04 C 152.70 84.02 148.26 84.07 143.83 84.06 C 140.26 65.89 137.45 47.59 134.75 29.27 Z" />
</g>
<g id="#ffa28eff">
<path fill="#ffa28e" opacity="1.00" d=" M 173.84 29.00 C 179.18 29.33 184.54 29.15 189.90 29.17 C 191.44 41.06 193.66 52.86 195.76 64.66 C 188.87 66.70 185.85 73.65 182.38 79.24 C 179.40 62.52 176.80 45.73 173.84 29.00 Z" />
</g>
<g id="#1d1d1720">
<path fill="#1d1d17" opacity="0.13" d=" M 28.74 47.64 C 36.93 47.32 45.13 47.26 53.32 47.35 C 51.61 47.43 49.90 47.53 48.19 47.57 C 41.71 47.70 35.22 47.64 28.74 47.64 Z" />
</g>
<g id="#fed788fe">
<path fill="#fed788" opacity="1.00" d=" M 53.32 47.35 C 57.50 47.23 61.66 47.00 65.84 46.92 C 67.63 59.01 69.85 71.02 72.11 83.02 C 67.43 85.02 62.82 87.16 58.10 89.05 C 56.10 77.88 54.68 66.61 52.57 55.47 C 52.74 52.02 50.44 49.67 48.19 47.57 C 49.90 47.53 51.61 47.43 53.32 47.35 Z" />
</g>
<g id="#fed188fe">
<path fill="#fed188" opacity="1.00" d=" M 65.84 46.92 C 69.67 46.91 73.47 47.19 77.24 47.77 C 79.28 48.66 79.42 51.26 80.03 53.11 C 77.88 55.90 77.77 57.86 79.68 59.01 C 82.04 59.79 84.48 60.37 86.96 60.52 C 87.78 66.68 88.86 72.80 89.83 78.94 C 83.77 79.42 77.70 80.58 72.11 83.02 C 69.85 71.02 67.63 59.01 65.84 46.92 Z" />
</g>
<g id="#fedb87fe">
<path fill="#fedb87" opacity="1.00" d=" M 27.08 47.69 C 27.50 47.67 28.32 47.65 28.74 47.64 C 35.22 47.64 41.71 47.70 48.19 47.57 C 50.44 49.67 52.74 52.02 52.57 55.47 C 54.68 66.61 56.10 77.88 58.10 89.05 C 52.53 91.50 46.86 93.73 41.24 96.06 C 37.69 80.25 36.64 63.99 32.79 48.23 C 27.62 47.90 26.90 52.25 26.03 56.02 C 26.43 53.25 26.69 50.46 27.08 47.69 M 38.30 81.93 C 40.41 83.60 42.96 84.16 45.62 83.89 C 43.29 82.87 40.83 82.16 38.30 81.93 Z" />
</g>
<g id="#fee086fe">
<path fill="#fee086" opacity="1.00" d=" M 26.03 56.02 C 26.90 52.25 27.62 47.90 32.79 48.23 C 36.64 63.99 37.69 80.25 41.24 96.06 C 38.31 97.25 35.32 98.31 32.38 99.47 C 32.37 102.47 32.29 105.46 32.29 108.47 C 30.87 108.57 29.45 108.69 28.03 108.79 C 25.67 107.20 23.68 107.16 22.06 108.67 C 15.43 104.52 7.39 106.72 0.00 106.57 L 0.00 57.23 C 4.29 57.60 8.60 57.81 12.90 58.00 C 14.69 58.63 16.67 58.36 18.16 57.17 C 20.73 57.07 23.30 56.95 25.87 56.86 L 26.03 56.02 Z" />
</g>
<g id="#b08f50bf">
<path fill="#b08f50" opacity="0.75" d=" M 79.68 59.01 C 77.77 57.86 77.88 55.90 80.03 53.11 C 80.66 55.01 80.95 57.30 79.68 59.01 Z" />
</g>
<g id="#e5ca7ae5">
<path fill="#e5ca7a" opacity="0.90" d=" M 12.90 58.00 C 14.36 56.70 16.38 56.51 18.16 57.17 C 16.67 58.36 14.69 58.63 12.90 58.00 Z" />
</g>
<g id="#77765e80">
<path fill="#77765e" opacity="0.50" d=" M 38.30 81.93 C 40.83 82.16 43.29 82.87 45.62 83.89 C 42.96 84.16 40.41 83.60 38.30 81.93 Z" />
</g>
<g id="#79663c80">
<path fill="#79663c" opacity="0.50" d=" M 22.06 108.67 C 23.68 107.16 25.67 107.20 28.03 108.79 C 26.15 109.76 23.85 110.00 22.06 108.67 Z" />
</g>
</svg>
