<?xml version="1.0" encoding="UTF-8" ?>
<!DOCTYPE svg PUBLIC "-//W3C//DTD SVG 1.1//EN" "http://www.w3.org/Graphics/SVG/1.1/DTD/svg11.dtd">
<svg width="219pt" height="133pt" viewBox="0 0 219 133" version="1.1" xmlns="http://www.w3.org/2000/svg">
<g id="#fe9190fe">
<path fill="#fe9190" opacity="1.00" d=" M 85.83 11.28 C 95.46 11.74 104.12 7.08 113.70 7.15 L 113.02 8.27 C 112.10 9.64 112.41 10.46 113.95 10.75 L 114.66 10.82 C 139.85 13.06 165.21 11.91 190.47 11.66 C 192.79 9.00 196.11 7.82 199.66 8.09 C 203.03 12.00 203.35 17.48 206.10 21.71 C 208.26 22.76 210.65 23.42 212.92 24.30 C 212.94 26.95 212.97 32.25 212.99 34.90 C 211.29 34.96 207.87 35.08 206.17 35.13 C 205.14 37.10 204.10 39.05 203.03 40.99 C 183.43 41.00 163.83 41.00 144.23 41.01 C 143.93 45.58 143.71 50.16 143.29 54.73 C 140.06 54.96 136.87 55.19 133.66 55.50 C 134.08 57.66 134.42 59.84 134.72 62.02 C 134.30 61.68 133.48 61.00 133.06 60.66 C 116.28 45.26 101.35 27.94 85.83 11.28 Z" />
</g>
<g id="#ffb38cff">
<path fill="#ffb38c" opacity="1.00" d=" M 20.32 7.31 C 23.79 8.53 27.30 9.79 30.50 11.64 C 49.25 28.66 64.67 49.03 83.44 66.03 L 83.89 66.67 C 80.27 66.89 76.66 67.03 73.06 67.36 C 54.72 49.09 37.28 29.94 19.67 10.97 C 19.83 10.06 20.16 8.23 20.32 7.31 Z" />
</g>
<g id="#d4a24dff">
<path fill="#d4a24d" opacity="1.00" d=" M 113.02 8.27 L 113.82 8.37 C 113.86 8.96 113.92 10.15 113.95 10.75 C 112.41 10.46 112.10 9.64 113.02 8.27 Z" />
</g>
<g id="#35281340">
<path fill="#352813" opacity="0.25" d=" M 113.82 8.37 C 115.47 8.60 115.75 9.42 114.66 10.82 L 113.95 10.75 C 113.92 10.15 113.86 8.96 113.82 8.37 Z" />
</g>
<g id="#ffba8bff">
<path fill="#ffba8b" opacity="1.00" d=" M 12.86 16.17 C 15.15 14.47 17.41 12.73 19.67 10.97 C 37.28 29.94 54.72 49.09 73.06 67.36 C 72.75 69.23 72.43 71.11 72.12 72.98 C 75.30 73.49 78.47 74.02 81.66 74.46 C 82.09 74.53 82.96 74.66 83.40 74.73 C 79.33 75.55 74.91 75.96 71.62 78.75 C 52.41 57.55 32.59 36.89 12.86 16.17 Z" />
</g>
<g id="#ffad8dff">
<path fill="#ffad8d" opacity="1.00" d=" M 30.50 11.64 C 33.94 11.40 37.39 11.17 40.83 10.98 C 55.01 26.22 68.97 41.70 83.64 56.46 C 81.97 56.41 78.61 56.32 76.93 56.27 C 79.34 59.36 81.58 62.58 83.44 66.03 C 64.67 49.03 49.25 28.66 30.50 11.64 Z" />
</g>
<g id="#ffa78eff">
<path fill="#ffa78e" opacity="1.00" d=" M 40.83 10.98 C 44.16 11.00 47.50 11.03 50.84 11.07 C 78.11 39.53 104.93 68.42 131.95 97.13 C 131.95 101.17 131.95 105.21 131.95 109.25 C 119.94 97.72 108.85 85.29 97.42 73.20 C 98.24 71.34 99.08 69.47 99.89 67.61 C 94.46 63.91 89.46 59.58 83.64 56.46 C 68.97 41.70 55.01 26.22 40.83 10.98 Z" />
</g>
<g id="#ffa28eff">
<path fill="#ffa28e" opacity="1.00" d=" M 50.84 11.07 C 54.14 11.07 57.46 11.07 60.76 11.10 C 84.05 36.89 108.36 61.73 131.95 87.25 C 131.94 90.53 131.97 93.84 131.95 97.13 C 104.93 68.42 78.11 39.53 50.84 11.07 Z" />
</g>
<g id="#ff9d8fff">
<path fill="#ff9d8f" opacity="1.00" d=" M 60.76 11.10 C 64.12 11.07 67.48 11.05 70.83 11.03 C 91.67 34.23 113.82 56.25 134.63 79.45 C 135.66 82.07 132.94 84.82 131.95 87.25 C 108.36 61.73 84.05 36.89 60.76 11.10 Z" />
</g>
<g id="#ff9790ff">
<path fill="#ff9790" opacity="1.00" d=" M 70.83 11.03 C 75.83 11.09 80.83 11.10 85.83 11.28 C 101.35 27.94 116.28 45.26 133.06 60.66 C 133.24 66.95 133.47 73.26 134.63 79.45 C 113.82 56.25 91.67 34.23 70.83 11.03 Z" />
</g>
<g id="#fec28afe">
<path fill="#fec28a" opacity="1.00" d=" M 4.53 21.31 C 7.30 19.59 10.07 17.88 12.86 16.17 C 32.59 36.89 52.41 57.55 71.62 78.75 C 72.24 79.54 73.47 81.13 74.09 81.92 C 70.98 81.73 64.75 81.34 61.64 81.14 C 42.18 61.97 24.44 41.12 5.07 21.85 L 4.53 21.31 Z" />
</g>
<g id="#ffca89ff">
<path fill="#ffca89" opacity="1.00" d=" M 4.53 21.32 L 5.07 21.85 C 24.44 41.12 42.18 61.97 61.64 81.14 C 60.07 84.13 58.81 87.25 57.45 90.34 C 39.97 71.11 22.34 51.99 3.90 33.68 C 4.12 29.56 4.33 25.44 4.53 21.32 Z" />
</g>
<g id="#fed088fe">
<path fill="#fed088" opacity="1.00" d=" M 3.90 33.68 C 22.34 51.99 39.97 71.11 57.45 90.34 C 57.66 90.57 58.07 91.04 58.27 91.27 C 55.23 92.39 52.18 93.53 49.24 94.90 C 40.19 85.18 31.02 75.57 21.60 66.21 C 20.94 62.35 20.18 58.51 19.39 54.67 C 15.91 53.46 10.02 55.33 7.93 51.04 C 3.34 46.39 4.49 39.61 3.90 33.68 Z" />
</g>
<g id="#fed888fe">
<path fill="#fed888" opacity="1.00" d=" M 18.07 66.02 C 18.95 66.06 20.71 66.16 21.60 66.21 C 31.02 75.57 40.19 85.18 49.24 94.90 C 49.36 100.56 46.48 105.77 46.00 111.38 C 35.73 98.96 23.97 87.86 13.36 75.73 C 14.96 72.51 16.54 69.27 18.07 66.02 Z" />
</g>
<g id="#ffb08dff">
<path fill="#ffb08d" opacity="1.00" d=" M 97.42 73.20 C 108.85 85.29 119.94 97.72 131.95 109.25 C 131.84 114.72 131.90 120.22 131.40 125.68 C 122.59 114.21 111.35 104.90 102.51 93.47 C 101.95 92.35 100.83 90.11 100.27 88.99 C 98.33 88.49 96.40 87.98 94.47 87.47 C 94.25 83.76 94.04 80.04 93.84 76.33 C 91.23 75.93 86.01 75.13 83.40 74.73 C 82.96 74.66 82.09 74.53 81.66 74.46 C 86.93 74.27 92.17 73.65 97.42 73.20 Z" />
</g>
<g id="#fee087fe">
<path fill="#fee087" opacity="1.00" d=" M 3.88 103.27 C 5.54 93.68 9.86 84.76 13.36 75.73 C 23.97 87.86 35.73 98.96 46.00 111.38 C 46.72 113.45 46.64 115.68 46.80 117.84 C 34.87 117.14 22.92 116.88 11.01 115.92 C 8.22 115.37 4.49 115.97 2.22 113.72 C 1.45 111.53 1.40 109.06 2.65 107.04 C 3.30 105.87 3.81 104.62 3.88 103.27 Z" />
</g>
<g id="#ffb88cff">
<path fill="#ffb88c" opacity="1.00" d=" M 102.51 93.47 C 111.35 104.90 122.59 114.21 131.40 125.68 C 132.05 126.59 132.68 127.51 133.29 128.45 C 129.57 128.64 125.90 128.88 122.20 128.99 C 115.68 121.73 109.09 114.52 102.10 107.71 C 102.20 102.96 102.25 98.21 102.51 93.47 Z" />
</g>
<g id="#dec576df">
<path fill="#dec576" opacity="0.87" d=" M 2.65 107.04 C 0.95 106.16 1.90 102.69 3.88 103.27 C 3.81 104.62 3.30 105.87 2.65 107.04 Z" />
</g>
<g id="#fec08bfe">
<path fill="#fec08b" opacity="1.00" d=" M 102.10 107.71 C 109.09 114.52 115.68 121.73 122.20 128.99 C 115.46 128.99 108.72 128.99 101.98 129.00 C 102.00 121.90 102.04 114.81 102.10 107.71 Z" />
</g>
</svg>
