<?xml version="1.0" encoding="UTF-8" ?>
<!DOCTYPE svg PUBLIC "-//W3C//DTD SVG 1.1//EN" "http://www.w3.org/Graphics/SVG/1.1/DTD/svg11.dtd">
<svg width="348pt" height="133pt" viewBox="0 0 348 133" version="1.1" xmlns="http://www.w3.org/2000/svg">
<g id="#ff9190ff">
<path fill="#ff9190" opacity="1.00" d=" M 312.46 9.03 C 313.65 5.41 319.01 6.96 321.52 5.47 C 327.30 14.63 330.19 25.10 331.20 35.83 C 334.80 35.96 342.01 36.22 345.62 36.35 C 346.44 38.42 347.26 40.49 348.00 42.60 L 348.00 44.86 C 343.18 47.16 337.96 48.41 332.96 50.22 C 329.62 52.23 327.92 56.07 325.88 59.19 C 320.47 60.17 312.96 58.10 308.81 62.84 C 306.44 79.86 310.29 97.77 304.85 114.46 C 300.75 113.33 295.54 114.71 292.04 111.83 C 287.85 97.29 291.07 82.11 292.23 67.36 C 292.47 64.80 290.29 62.90 288.46 61.48 C 284.64 58.53 279.57 59.48 275.11 59.53 C 273.09 46.96 270.44 34.51 268.01 22.01 C 279.83 21.92 291.70 22.61 303.49 21.46 C 308.59 19.31 310.71 13.82 312.46 9.03 Z" />
</g>
<g id="#febd8bfe">
<path fill="#febd8b" opacity="1.00" d=" M 127.71 20.65 C 131.90 17.64 135.85 14.31 139.97 11.20 C 145.76 43.37 152.18 75.43 158.86 107.42 C 158.41 111.32 157.99 115.22 157.47 119.11 C 147.30 119.67 139.67 112.33 131.46 107.53 C 134.56 95.84 142.25 86.24 147.57 75.58 C 148.92 72.25 149.70 67.79 147.15 64.88 C 143.63 62.13 139.50 60.17 135.23 58.88 C 132.78 46.12 130.44 33.35 127.71 20.65 Z" />
</g>
<g id="#ffb88bff">
<path fill="#ffb88b" opacity="1.00" d=" M 139.97 11.20 C 144.59 11.00 149.22 11.28 153.82 11.68 C 157.80 36.69 163.43 61.39 168.07 86.27 C 168.31 88.18 168.76 90.10 168.60 92.04 C 165.56 97.28 161.86 102.14 158.86 107.42 C 152.18 75.43 145.76 43.37 139.97 11.20 Z" />
</g>
<g id="#ffb28cff">
<path fill="#ffb28c" opacity="1.00" d=" M 153.82 11.68 C 157.47 11.82 159.90 14.60 162.02 17.28 C 167.81 17.49 173.62 16.46 179.37 15.67 C 179.62 17.43 179.86 19.19 180.10 20.95 C 174.23 21.01 168.37 21.12 162.50 21.25 C 164.13 21.42 167.38 21.75 169.00 21.92 C 173.00 38.34 175.62 55.05 178.85 71.63 C 177.74 73.55 176.67 75.51 175.63 77.47 C 179.06 78.58 182.52 79.56 186.02 80.43 C 186.71 83.01 187.41 85.61 188.10 88.20 C 181.33 89.26 174.40 82.25 168.07 86.27 C 163.43 61.39 157.80 36.69 153.82 11.68 Z" />
</g>
<g id="#ffa68eff">
<path fill="#ffa68e" opacity="1.00" d=" M 179.37 15.67 C 183.78 16.43 188.26 16.75 192.74 16.68 C 199.84 16.33 207.01 17.12 214.04 15.84 C 214.35 15.86 214.98 15.92 215.29 15.95 C 215.97 17.62 216.55 19.31 217.17 21.00 C 204.81 21.04 192.46 20.94 180.10 20.95 C 179.86 19.19 179.62 17.43 179.37 15.67 Z" />
</g>
<g id="#ff9b8fff">
<path fill="#ff9b8f" opacity="1.00" d=" M 215.29 15.95 C 221.03 16.92 226.90 15.48 232.60 16.69 C 236.70 19.15 240.58 22.41 245.73 22.26 C 247.61 34.82 250.30 47.24 252.93 59.66 C 251.34 60.01 249.73 60.32 248.13 60.63 C 250.87 71.02 247.82 81.73 250.75 92.04 C 253.34 103.58 255.78 115.16 258.26 126.72 C 254.80 126.93 251.40 127.22 247.96 127.44 C 240.22 92.43 234.10 57.08 226.87 21.96 C 229.43 21.83 231.99 21.69 234.57 21.53 C 228.76 21.32 222.97 21.09 217.17 21.00 C 216.55 19.31 215.97 17.62 215.29 15.95 Z" />
</g>
<g id="#fec28afe">
<path fill="#fec28a" opacity="1.00" d=" M 110.34 30.06 C 116.24 27.14 122.06 24.03 127.71 20.65 C 130.44 33.35 132.78 46.12 135.23 58.88 C 129.57 58.28 123.87 58.06 118.19 57.91 C 117.20 51.08 116.12 44.26 114.50 37.55 C 114.33 34.43 112.33 32.16 110.34 30.06 Z" />
</g>
<g id="#ffad8dff">
<path fill="#ffad8d" opacity="1.00" d=" M 169.00 21.92 C 173.92 22.19 178.84 22.03 183.77 22.05 C 186.13 38.77 190.18 55.19 193.21 71.79 C 188.42 71.69 183.64 71.70 178.85 71.63 C 175.62 55.05 173.00 38.34 169.00 21.92 Z" />
</g>
<g id="#ffa98dff">
<path fill="#ffa98d" opacity="1.00" d=" M 183.77 22.05 C 187.51 22.02 191.24 21.99 194.99 21.97 C 199.23 43.00 203.57 64.03 207.23 85.16 C 201.35 88.25 194.56 88.14 188.10 88.20 C 187.41 85.61 186.71 83.01 186.02 80.43 C 191.73 79.99 197.47 79.51 203.06 78.23 C 202.29 76.56 201.66 74.81 200.64 73.27 C 198.38 72.06 195.69 72.22 193.21 71.79 C 190.18 55.19 186.13 38.77 183.77 22.05 Z" />
</g>
<g id="#ffa58eff">
<path fill="#ffa58e" opacity="1.00" d=" M 194.99 21.97 C 200.03 21.96 205.06 21.99 210.11 22.01 C 214.74 40.47 216.79 59.52 221.77 77.87 C 215.70 77.66 210.74 80.58 207.23 85.16 C 203.57 64.03 199.23 43.00 194.99 21.97 Z" />
</g>
<g id="#fe9f8ffe">
<path fill="#fe9f8f" opacity="1.00" d=" M 210.11 22.01 C 215.69 22.03 221.28 22.06 226.87 21.96 C 234.10 57.08 240.22 92.43 247.96 127.44 C 243.72 127.62 239.50 127.90 235.27 127.99 C 230.56 111.39 229.55 93.46 221.77 77.87 C 216.79 59.52 214.74 40.47 210.11 22.01 Z" />
</g>
<g id="#ff9590ff">
<path fill="#ff9590" opacity="1.00" d=" M 245.73 22.26 C 253.15 22.27 260.58 22.06 268.01 22.01 C 270.44 34.51 273.09 46.96 275.11 59.53 C 270.53 59.26 265.05 60.79 261.61 56.92 C 258.74 57.90 255.90 59.01 252.93 59.66 C 250.30 47.24 247.61 34.82 245.73 22.26 Z" />
</g>
<g id="#fec989fe">
<path fill="#fec989" opacity="1.00" d=" M 93.78 35.01 C 99.57 34.48 105.06 32.38 110.34 30.06 C 112.33 32.16 114.33 34.43 114.50 37.55 C 116.12 44.26 117.20 51.08 118.19 57.91 C 111.50 57.71 105.21 60.10 98.97 62.15 C 96.98 53.16 95.14 44.12 93.78 35.01 Z" />
</g>
<g id="#fee186fe">
<path fill="#fee186" opacity="1.00" d=" M 0.00 35.47 C 9.24 35.15 18.49 35.02 27.74 34.98 C 28.46 39.28 29.30 43.56 30.12 47.84 C 25.11 47.00 20.07 46.38 15.02 45.86 C 15.46 54.42 14.89 63.19 16.49 71.61 C 21.03 76.54 29.02 74.76 34.72 72.85 C 35.53 76.57 36.35 80.28 37.14 84.00 C 28.04 87.26 18.94 91.39 9.02 91.12 C 7.49 90.86 1.47 91.99 1.67 88.47 C 0.70 79.47 0.37 70.42 0.00 61.38 L 0.00 35.47 Z" />
</g>
<g id="#ffdb87ff">
<path fill="#ffdb87" opacity="1.00" d=" M 27.74 34.98 C 35.08 34.97 42.42 35.02 49.76 35.02 C 52.04 49.02 55.13 62.87 57.89 76.77 C 50.98 79.19 44.03 81.50 37.14 84.00 C 36.35 80.28 35.53 76.57 34.72 72.85 C 40.15 70.44 46.04 68.44 50.64 64.61 C 52.49 61.11 50.72 56.53 48.40 53.65 C 42.55 51.04 36.32 49.40 30.12 47.84 C 29.30 43.56 28.46 39.28 27.74 34.98 Z" />
</g>
<g id="#ffd688ff">
<path fill="#ffd688" opacity="1.00" d=" M 49.76 35.02 C 56.88 34.99 64.00 34.94 71.12 34.97 C 73.65 46.43 75.69 57.99 78.24 69.45 C 71.44 71.86 64.67 74.33 57.89 76.77 C 55.13 62.87 52.04 49.02 49.76 35.02 Z" />
</g>
<g id="#fed089fe">
<path fill="#fed089" opacity="1.00" d=" M 71.12 34.97 C 78.67 35.03 86.23 35.17 93.78 35.01 C 95.14 44.12 96.98 53.16 98.97 62.15 C 92.07 64.63 85.19 67.14 78.24 69.45 C 75.69 57.99 73.65 46.43 71.12 34.97 Z" />
</g>
</svg>
