<?xml version="1.0" encoding="UTF-8" ?>
<!DOCTYPE svg PUBLIC "-//W3C//DTD SVG 1.1//EN" "http://www.w3.org/Graphics/SVG/1.1/DTD/svg11.dtd">
<svg width="165pt" height="133pt" viewBox="0 0 165 133" version="1.1" xmlns="http://www.w3.org/2000/svg">
<g id="#fe9190fe">
<path fill="#fe9190" opacity="1.00" d=" M 132.98 17.74 C 139.05 18.69 143.19 12.43 149.20 13.57 C 153.13 18.27 157.39 23.15 158.67 29.34 C 159.33 31.47 157.07 32.82 156.01 34.34 C 155.55 39.88 155.43 45.43 155.05 50.98 C 148.10 50.97 141.16 50.98 134.21 51.00 C 123.62 39.93 112.66 29.22 101.88 18.33 C 112.25 18.12 122.63 18.37 132.98 17.74 Z" />
</g>
<g id="#ffba8bff">
<path fill="#ffba8b" opacity="1.00" d=" M 22.68 14.59 C 24.25 15.53 25.85 16.43 27.34 17.52 C 40.81 29.35 52.83 42.72 65.69 55.20 C 64.89 57.87 64.15 60.55 63.44 63.23 C 49.73 48.48 34.36 35.43 20.45 20.89 C 21.23 18.81 21.96 16.70 22.68 14.59 Z" />
</g>
<g id="#ffb48cff">
<path fill="#ffb48c" opacity="1.00" d=" M 27.34 17.52 C 31.63 18.11 36.58 16.28 40.62 18.34 C 52.65 29.95 64.78 41.45 76.71 53.17 C 74.44 57.62 72.65 62.34 71.95 67.31 C 70.91 66.21 69.94 65.05 69.02 63.86 C 67.90 59.69 69.84 55.60 71.28 51.77 C 69.42 52.93 67.56 54.07 65.69 55.20 C 52.83 42.72 40.81 29.35 27.34 17.52 Z" />
</g>
<g id="#ffad8dff">
<path fill="#ffad8d" opacity="1.00" d=" M 40.62 18.34 C 45.01 18.24 49.40 18.15 53.80 18.08 C 64.45 29.47 75.95 40.02 87.19 50.81 C 83.66 51.44 80.16 52.17 76.71 53.17 C 64.78 41.45 52.65 29.95 40.62 18.34 Z" />
</g>
<g id="#ffa58eff">
<path fill="#ffa58e" opacity="1.00" d=" M 53.80 18.08 C 58.46 18.04 63.12 18.00 67.78 17.95 C 78.48 28.99 89.16 40.07 100.27 50.70 C 95.91 50.66 91.55 50.62 87.19 50.81 C 75.95 40.02 64.45 29.47 53.80 18.08 Z" />
</g>
<g id="#ff9f8fff">
<path fill="#ff9f8f" opacity="1.00" d=" M 67.78 17.95 C 73.01 18.46 78.61 17.48 83.62 19.46 C 94.84 29.44 104.45 41.20 116.33 50.46 C 114.51 50.92 112.68 51.38 110.86 51.85 C 108.85 56.60 106.82 61.34 105.14 66.22 C 103.96 65.34 102.78 64.46 101.61 63.57 C 103.17 59.71 104.35 55.71 105.33 51.67 C 103.64 51.34 101.96 51.02 100.27 50.70 C 89.16 40.07 78.48 28.99 67.78 17.95 Z" />
</g>
<g id="#ff9790ff">
<path fill="#ff9790" opacity="1.00" d=" M 83.62 19.46 C 89.70 19.10 95.80 18.79 101.88 18.33 C 112.66 29.22 123.62 39.93 134.21 51.00 C 128.28 50.75 122.18 51.56 116.33 50.46 C 104.45 41.20 94.84 29.44 83.62 19.46 Z" />
</g>
<g id="#ffc08bff">
<path fill="#ffc08b" opacity="1.00" d=" M 17.47 30.14 C 18.27 27.00 19.24 23.90 20.45 20.89 C 34.36 35.43 49.73 48.48 63.44 63.23 C 65.62 65.51 67.93 67.65 70.34 69.69 C 69.89 67.75 69.43 65.81 69.02 63.86 C 69.94 65.05 70.91 66.21 71.95 67.31 C 73.61 68.63 75.47 69.67 77.27 70.81 C 79.07 71.96 80.80 73.22 82.62 74.35 C 75.35 73.93 68.15 72.78 60.88 72.51 C 45.94 58.88 31.95 44.25 17.47 30.14 Z" />
</g>
<g id="#ffc88aff">
<path fill="#ffc88a" opacity="1.00" d=" M 17.04 29.72 L 17.47 30.14 C 31.95 44.25 45.94 58.88 60.88 72.51 C 59.88 75.73 58.99 78.98 58.10 82.23 C 41.74 67.29 25.76 51.93 10.68 35.70 L 9.86 34.81 C 11.98 34.94 14.10 35.18 16.20 35.47 C 16.41 34.04 16.83 31.16 17.04 29.72 Z" />
</g>
<g id="#ffcf89ff">
<path fill="#ffcf89" opacity="1.00" d=" M 10.68 35.70 C 25.76 51.93 41.74 67.29 58.10 82.23 C 57.14 86.58 56.19 90.93 55.16 95.26 C 44.85 85.62 34.37 76.16 24.59 65.99 C 25.65 63.41 26.61 60.79 27.49 58.14 C 23.45 56.38 18.95 55.40 15.40 52.69 C 14.57 50.33 14.50 47.78 14.09 45.32 C 10.80 44.44 7.51 43.54 4.23 42.61 C 6.36 40.30 8.68 38.14 10.68 35.70 Z" />
</g>
<g id="#ffb18cff">
<path fill="#ffb18c" opacity="1.00" d=" M 98.83 70.16 C 99.76 67.97 100.71 65.78 101.61 63.57 C 102.78 64.46 103.96 65.34 105.14 66.22 C 103.53 69.35 102.36 73.86 98.22 74.33 C 93.13 74.84 87.55 76.20 82.62 74.35 C 80.80 73.22 79.07 71.96 77.27 70.81 C 84.46 71.05 91.65 70.64 98.83 70.16 Z" />
</g>
<g id="#ffd888ff">
<path fill="#ffd888" opacity="1.00" d=" M 18.07 81.84 C 19.99 76.46 22.03 71.11 24.59 65.99 C 34.37 76.16 44.85 85.62 55.16 95.26 C 53.70 101.42 52.19 107.57 50.39 113.64 C 40.67 102.03 29.21 92.05 18.07 81.84 Z" />
</g>
<g id="#ffe087ff">
<path fill="#ffe087" opacity="1.00" d=" M 18.07 81.84 C 29.21 92.05 40.67 102.03 50.39 113.64 C 51.86 115.63 53.04 117.80 54.29 119.92 C 40.44 120.10 26.56 120.14 12.75 118.90 C 12.86 106.36 14.81 93.93 18.07 81.84 Z" />
</g>
</svg>
