<?xml version="1.0" encoding="UTF-8" ?>
<!DOCTYPE svg PUBLIC "-//W3C//DTD SVG 1.1//EN" "http://www.w3.org/Graphics/SVG/1.1/DTD/svg11.dtd">
<svg width="288pt" height="133pt" viewBox="0 0 288 133" version="1.1" xmlns="http://www.w3.org/2000/svg">
<g id="#ff9c90ff">
<path fill="#ff9c90" opacity="1.00" d=" M 135.00 14.01 C 138.53 14.07 142.07 13.80 145.60 14.11 C 147.48 15.07 146.91 17.27 147.11 18.98 C 147.57 18.99 148.49 19.02 148.95 19.03 C 148.97 20.36 149.00 21.68 149.07 23.00 C 151.15 27.79 153.66 32.39 156.12 36.99 C 154.75 36.98 153.39 36.98 152.04 36.99 C 152.02 36.49 151.98 35.49 151.97 34.99 C 151.21 34.99 149.69 34.99 148.93 35.00 C 149.04 36.90 148.68 38.98 149.90 40.63 C 149.97 42.21 149.97 43.79 149.90 45.37 C 148.52 47.32 149.07 49.78 148.97 52.00 C 141.32 52.00 133.67 52.00 126.02 52.00 C 120.77 40.77 114.35 30.18 109.01 19.00 C 117.67 19.00 126.34 19.00 135.00 19.00 C 135.00 17.34 135.00 15.67 135.00 14.01 Z" />
</g>
<g id="#ff9191ff">
<path fill="#ff9191" opacity="1.00" d=" M 178.35 13.86 C 178.89 15.32 180.79 14.85 181.97 15.02 C 215.65 14.97 249.33 15.03 283.01 14.99 C 284.88 14.54 286.21 16.41 286.12 18.12 C 286.54 24.40 287.01 30.72 286.16 36.98 C 286.10 38.21 285.34 40.06 283.87 39.97 C 249.80 40.12 215.71 39.82 181.63 40.12 C 179.97 41.30 177.90 40.99 175.99 41.04 C 170.00 40.96 164.00 41.02 158.00 41.00 C 158.00 39.69 158.00 38.37 158.00 37.06 C 157.53 37.04 156.59 37.00 156.12 36.99 C 153.66 32.39 151.15 27.79 149.07 23.00 C 149.79 23.00 151.24 23.00 151.97 23.00 C 151.99 22.50 152.01 21.50 152.03 21.00 C 153.68 21.00 155.34 21.00 157.00 21.00 C 157.00 19.00 157.00 17.00 157.00 15.00 C 163.63 14.92 170.26 15.15 176.88 14.93 C 177.25 14.66 177.98 14.13 178.35 13.86 Z" />
</g>
<g id="#ffdc88ff">
<path fill="#ffdc88" opacity="1.00" d=" M 17.16 15.96 C 18.24 16.05 19.32 16.15 20.39 16.26 C 21.65 16.80 23.00 17.08 24.33 17.39 C 25.44 17.73 26.58 17.96 27.74 18.07 C 30.23 23.82 32.99 29.47 36.20 34.86 C 39.89 41.00 42.43 47.75 46.17 53.86 C 50.12 60.38 52.71 67.64 56.97 73.97 C 54.23 73.73 53.90 76.24 53.70 78.39 C 53.24 79.69 52.97 81.04 52.68 82.39 C 52.03 83.97 51.96 85.69 51.77 87.37 C 51.23 88.66 50.97 90.03 50.68 91.39 C 50.25 92.70 49.97 94.05 49.69 95.39 C 49.25 96.70 48.97 98.05 48.69 99.39 C 48.25 100.70 47.97 102.05 47.69 103.40 C 47.25 104.70 46.97 106.05 46.69 107.40 C 46.01 108.98 45.97 110.70 45.79 112.39 C 44.72 113.90 44.72 115.82 45.65 117.39 C 46.24 118.57 46.81 119.76 47.31 120.98 C 43.04 120.56 38.34 122.04 34.38 120.12 C 27.93 119.85 21.48 120.10 15.03 119.98 C 12.61 120.00 10.05 119.68 7.86 120.92 C 7.38 120.62 6.43 120.03 5.95 119.74 C 7.34 107.93 8.39 95.99 11.50 84.47 C 13.97 77.32 16.56 70.17 19.92 63.39 C 19.99 62.02 20.02 60.66 20.05 59.31 C 17.44 58.22 14.98 56.83 12.39 55.71 C 10.93 55.11 9.16 54.91 8.11 53.59 C 7.65 51.01 7.94 48.30 9.15 45.95 C 5.95 46.06 2.06 46.67 0.00 43.55 L 0.00 40.02 C 1.66 40.01 3.33 40.00 4.99 40.00 C 5.00 38.23 5.02 36.47 5.05 34.71 C 6.24 35.21 7.42 35.74 8.60 36.27 C 9.18 36.54 10.36 37.08 10.95 37.35 C 11.01 36.68 11.14 35.34 11.20 34.67 C 11.77 33.38 12.03 32.00 12.33 30.65 C 12.82 29.31 13.01 27.91 13.19 26.51 C 13.71 25.53 14.23 24.55 14.75 23.57 C 15.01 23.09 15.53 22.13 15.79 21.65 C 16.75 19.89 17.15 17.95 17.16 15.96 Z" />
</g>
<g id="#ffc98aff">
<path fill="#ffc98a" opacity="1.00" d=" M 27.74 18.07 C 30.03 18.16 32.60 17.42 34.62 18.88 C 43.64 19.15 52.67 18.93 61.69 19.01 C 63.72 24.16 67.12 28.61 69.33 33.68 C 72.15 40.00 75.97 45.79 79.02 52.00 C 77.82 51.99 76.62 51.99 75.42 51.99 C 73.44 54.19 71.19 56.13 69.28 58.39 C 68.71 59.57 67.88 60.58 67.03 61.56 C 66.98 63.50 67.00 65.44 67.10 67.39 C 68.43 68.53 67.91 70.25 66.66 71.15 C 69.23 70.93 71.81 70.95 74.38 71.12 C 74.80 71.32 75.66 71.71 76.09 71.91 C 81.58 72.09 87.10 72.12 92.59 71.89 C 93.62 70.96 94.22 69.69 94.93 68.52 C 95.55 69.80 96.20 71.06 96.79 72.35 L 96.85 72.52 C 96.55 73.14 95.94 74.38 95.64 75.00 C 92.89 75.16 89.84 74.31 87.37 75.88 C 81.74 75.77 75.93 76.71 70.42 75.39 C 69.41 75.00 68.42 74.60 67.42 74.20 C 66.96 74.09 66.05 73.88 65.60 73.78 C 63.78 72.66 61.62 72.98 59.61 73.11 C 58.95 73.33 57.63 73.76 56.97 73.97 C 52.71 67.64 50.12 60.38 46.17 53.86 C 42.43 47.75 39.89 41.00 36.20 34.86 C 32.99 29.47 30.23 23.82 27.74 18.07 M 59.52 57.78 C 58.88 58.95 59.23 60.57 58.02 61.42 C 58.08 62.75 57.63 64.33 58.72 65.40 C 59.75 68.27 62.56 69.98 65.22 71.17 C 64.98 70.53 64.50 69.25 64.26 68.61 C 62.39 65.36 62.52 60.99 63.64 57.55 C 64.37 56.25 65.75 55.44 66.27 53.99 C 63.96 55.13 61.34 55.87 59.52 57.78 Z" />
</g>
<g id="#ffb68cff">
<path fill="#ffb68c" opacity="1.00" d=" M 61.69 19.01 C 71.12 18.98 80.54 19.01 89.97 19.00 C 95.82 29.94 101.53 40.95 107.17 52.01 L 106.46 52.06 C 105.68 52.80 104.91 53.56 104.17 54.34 C 103.96 55.84 103.38 57.24 102.76 58.62 C 102.23 59.86 101.76 61.14 101.25 62.39 C 100.37 64.43 99.63 66.52 98.81 68.59 C 98.05 69.80 97.38 71.06 96.79 72.35 C 96.20 71.06 95.55 69.80 94.93 68.52 C 95.03 67.52 95.27 66.55 95.65 65.61 C 96.44 63.99 97.09 62.30 97.75 60.62 C 98.32 59.28 98.88 57.94 99.38 56.57 C 100.91 54.68 99.02 53.40 97.54 52.48 C 91.44 51.39 85.18 52.29 79.02 52.00 C 75.97 45.79 72.15 40.00 69.33 33.68 C 67.12 28.61 63.72 24.16 61.69 19.01 Z" />
</g>
<g id="#ffa98eff">
<path fill="#ffa98e" opacity="1.00" d=" M 89.97 19.00 C 96.32 18.99 102.67 19.01 109.01 19.00 C 114.35 30.18 120.77 40.77 126.02 52.00 C 119.73 52.02 113.45 51.96 107.17 52.01 C 101.53 40.95 95.82 29.94 89.97 19.00 Z" />
</g>
</svg>
