<?xml version="1.0" encoding="UTF-8" ?>
<!DOCTYPE svg PUBLIC "-//W3C//DTD SVG 1.1//EN" "http://www.w3.org/Graphics/SVG/1.1/DTD/svg11.dtd">
<svg width="407pt" height="133pt" viewBox="0 0 407 133" version="1.1" xmlns="http://www.w3.org/2000/svg">
<g id="#fec28afe">
<path fill="#fec28a" opacity="1.00" d=" M 107.24 21.69 C 110.11 22.46 112.98 23.23 115.84 24.06 C 127.98 33.76 140.05 43.55 152.33 53.07 C 149.88 56.17 147.45 59.28 144.95 62.34 C 134.04 59.98 129.19 71.84 119.79 73.94 C 124.57 67.69 129.53 61.57 134.24 55.25 C 123.77 47.08 113.74 38.32 102.81 30.75 C 104.28 27.73 105.76 24.71 107.24 21.69 Z" />
</g>
<g id="#fe9190fe">
<path fill="#fe9190" opacity="1.00" d=" M 384.42 21.65 C 391.69 23.74 399.03 26.96 403.94 32.95 C 405.79 36.13 405.27 40.21 406.39 43.64 C 402.21 44.33 397.99 44.89 393.78 45.30 C 397.85 46.56 405.04 45.17 405.02 51.02 C 406.70 55.40 403.53 60.02 399.07 59.97 C 368.72 60.73 338.33 59.13 307.98 60.31 C 297.59 60.69 287.33 62.69 276.93 62.96 C 283.85 54.04 290.81 45.17 297.83 36.33 C 296.50 34.90 295.17 33.48 293.86 32.05 C 322.43 31.49 351.05 32.92 379.60 31.56 C 382.26 28.90 383.04 25.03 384.42 21.65 M 296.83 44.66 C 297.15 45.24 297.78 46.41 298.10 46.99 C 326.55 47.50 354.97 46.18 383.40 45.42 C 373.40 43.33 363.13 44.08 353.00 43.93 C 334.27 44.10 315.53 43.56 296.83 44.66 Z" />
</g>
<g id="#febc8bfe">
<path fill="#febc8b" opacity="1.00" d=" M 115.84 24.06 C 122.46 25.21 129.21 25.32 135.90 25.89 C 145.77 35.00 156.66 42.90 167.15 51.26 C 163.86 55.69 160.50 60.08 157.16 64.47 C 153.07 63.93 149.04 62.95 144.95 62.34 C 147.45 59.28 149.88 56.17 152.33 53.07 C 140.05 43.55 127.98 33.76 115.84 24.06 Z" />
</g>
<g id="#ffb08dff">
<path fill="#ffb08d" opacity="1.00" d=" M 155.88 26.49 C 165.08 27.23 174.21 25.64 183.38 25.50 C 183.57 25.56 183.95 25.70 184.14 25.76 C 191.92 33.23 200.39 39.94 209.11 46.28 C 204.72 52.01 200.29 57.72 195.89 63.45 C 188.91 62.83 181.94 62.13 174.94 61.89 C 178.36 57.70 181.79 53.51 185.12 49.24 C 175.33 41.71 165.71 33.97 155.88 26.49 Z" />
</g>
<g id="#ffb78cff">
<path fill="#ffb78c" opacity="1.00" d=" M 135.90 25.89 C 142.56 26.18 149.22 26.26 155.88 26.49 C 165.71 33.97 175.33 41.71 185.12 49.24 C 181.79 53.51 178.36 57.70 174.94 61.89 C 168.97 62.47 163.12 63.88 157.16 64.47 C 160.50 60.08 163.86 55.69 167.15 51.26 C 156.66 42.90 145.77 35.00 135.90 25.89 Z" />
</g>
<g id="#ffa98dff">
<path fill="#ffa98d" opacity="1.00" d=" M 209.11 46.28 C 200.39 39.94 191.92 33.23 184.14 25.76 C 194.67 29.37 205.76 30.91 216.78 32.08 C 221.50 36.13 226.33 40.04 231.24 43.86 C 226.02 50.52 220.84 57.21 215.81 64.03 C 209.17 64.00 202.52 63.78 195.89 63.45 C 200.29 57.72 204.72 52.01 209.11 46.28 Z" />
</g>
<g id="#fec789fe">
<path fill="#fec789" opacity="1.00" d=" M 83.66 29.39 C 90.00 28.97 97.05 27.04 102.81 30.75 C 113.74 38.32 123.77 47.08 134.24 55.25 C 129.53 61.57 124.57 67.69 119.79 73.94 C 114.96 73.93 110.15 73.49 105.33 73.37 C 106.98 72.01 108.50 70.52 110.03 69.03 C 114.03 68.33 118.78 68.63 122.08 65.80 C 122.62 62.53 119.81 60.51 117.36 59.06 C 117.90 58.44 118.44 57.82 118.98 57.20 C 107.21 47.92 95.41 38.69 83.66 29.39 Z" />
</g>
<g id="#ffcc89ff">
<path fill="#ffcc89" opacity="1.00" d=" M 66.86 31.00 C 72.46 30.50 78.06 29.93 83.66 29.39 C 95.41 38.69 107.21 47.92 118.98 57.20 C 118.44 57.82 117.90 58.44 117.36 59.06 C 113.47 60.69 107.00 58.53 104.27 62.36 C 102.45 66.33 107.30 67.77 110.03 69.03 C 108.50 70.52 106.98 72.01 105.33 73.37 C 97.56 77.39 94.93 86.36 91.73 93.84 C 89.09 99.44 90.49 105.62 91.84 111.34 C 82.71 110.45 73.49 109.62 64.57 107.31 C 76.88 90.99 89.99 75.29 102.23 58.92 C 90.42 49.65 78.60 40.37 66.86 31.00 Z" />
</g>
<g id="#ffd288ff">
<path fill="#ffd288" opacity="1.00" d=" M 44.81 32.91 C 52.16 32.26 59.51 31.63 66.86 31.00 C 78.60 40.37 90.42 49.65 102.23 58.92 C 89.99 75.29 76.88 90.99 64.57 107.31 C 62.84 106.17 61.14 104.88 60.02 103.11 C 64.32 92.34 72.36 83.15 73.92 71.32 C 76.23 67.96 78.55 64.60 80.89 61.25 C 68.71 52.00 56.69 42.54 44.81 32.91 Z" />
</g>
<g id="#fea18efe">
<path fill="#fea18e" opacity="1.00" d=" M 216.78 32.08 C 226.11 32.29 235.44 32.11 244.78 32.14 C 248.24 35.16 251.71 38.17 255.22 41.13 C 249.47 48.69 243.49 56.08 237.82 63.69 C 230.48 63.90 223.15 64.00 215.81 64.03 C 220.84 57.21 226.02 50.52 231.24 43.86 C 226.33 40.04 221.50 36.13 216.78 32.08 Z" />
</g>
<g id="#ff9b8fff">
<path fill="#ff9b8f" opacity="1.00" d=" M 244.78 32.14 C 252.12 32.10 259.47 32.08 266.82 32.08 C 269.47 34.24 272.13 36.39 274.81 38.52 C 268.55 46.73 262.18 54.84 255.91 63.04 C 249.87 63.16 243.85 63.46 237.82 63.69 C 243.49 56.08 249.47 48.69 255.22 41.13 C 251.71 38.17 248.24 35.16 244.78 32.14 Z" />
</g>
<g id="#ff9690ff">
<path fill="#ff9690" opacity="1.00" d=" M 266.82 32.08 C 275.83 32.05 284.84 32.04 293.86 32.05 C 295.17 33.48 296.50 34.90 297.83 36.33 C 290.81 45.17 283.85 54.04 276.93 62.96 C 269.92 63.17 262.91 62.94 255.91 63.04 C 262.18 54.84 268.55 46.73 274.81 38.52 C 272.13 36.39 269.47 34.24 266.82 32.08 Z" />
</g>
<g id="#ffd887ff">
<path fill="#ffd887" opacity="1.00" d=" M 24.90 35.83 C 31.42 34.23 38.14 33.59 44.81 32.91 C 56.69 42.54 68.71 52.00 80.89 61.25 C 78.55 64.60 76.23 67.96 73.92 71.32 C 68.62 70.23 63.35 68.95 57.99 68.16 C 58.70 66.53 59.41 64.90 60.11 63.27 C 48.21 54.33 36.63 44.98 24.90 35.83 Z" />
</g>
<g id="#fedd87fe">
<path fill="#fedd87" opacity="1.00" d=" M 0.00 41.38 C 8.23 39.24 16.68 38.04 24.90 35.83 C 36.63 44.98 48.21 54.33 60.11 63.27 C 59.41 64.90 58.70 66.53 57.99 68.16 C 49.24 69.17 40.63 71.41 32.41 74.53 C 25.78 78.99 24.46 88.49 17.11 92.14 C 11.86 95.13 5.95 96.36 0.00 96.86 L 0.00 41.38 Z" />
</g>
</svg>
